<svg xmlns="http://www.w3.org/2000/svg" xmlns:xlink="http://www.w3.org/1999/xlink" width="348" height="244" viewBox="0 0 348 244">
  <defs>
    <path id="group-12-a" d="M5,0 L342,0 L342,239 C363.333333,222.333333 307.166667,213.666667 173.5,213 C39.8333333,212.333333 -16.3333333,221 5,239 L5,0 Z"/>
    <filter id="group-12-b">
      <feColorMatrix in="SourceGraphic" values="0 0 0 0 0.916101 0 0 0 0 0.916101 0 0 0 0 0.916101 0 0 0 1.000000 0"/>
    </filter>
    <linearGradient id="group-12-d" x1="100%" x2="0%" y1="50%" y2="50%">
      <stop offset="0%" stop-color="#FFF"/>
      <stop offset="100%" stop-color="#F2F2F2"/>
    </linearGradient>
  </defs>
  <g fill="none" fill-rule="evenodd" transform="translate(.5)">
    <mask id="group-12-c" fill="#fff">
      <use xlink:href="#group-12-a"/>
    </mask>
    <g filter="url(#group-12-b)">
      <g mask="url(#group-12-c)">
        <g transform="translate(5 34)">
          <g transform="translate(25)">
            <rect width="1" height="193" fill="#CCC"/>
            <rect width="1" height="193" x="26" fill="#CCC"/>
            <rect width="1" height="193" x="52" fill="#CCC"/>
            <rect width="1" height="193" x="78" fill="#CCC"/>
            <rect width="1" height="193" x="104" fill="#CCC"/>
            <rect width="1" height="193" x="130" fill="#CCC"/>
            <rect width="1" height="193" x="156" fill="#CCC"/>
            <rect width="1" height="193" x="182" fill="#CCC"/>
            <rect width="1" height="193" x="208" fill="#CCC"/>
            <rect width="1" height="193" x="234" fill="#CCC"/>
            <rect width="1" height="193" x="260" fill="#CCC"/>
            <rect width="1" height="193" x="286" fill="#CCC"/>
          </g>
          <polygon fill="#CCC" points="0 25 337 25 337 26 0 26"/>
          <polygon fill="#CCC" points="0 51 337 51 337 52 0 52"/>
          <polygon fill="#CCC" points="0 77 337 77 337 78 0 78"/>
          <polygon fill="#CCC" points="0 103 337 103 337 104 0 104"/>
          <polygon fill="#CCC" points="0 129 337 129 337 130 0 130"/>
          <polygon fill="#CCC" points="0 155 337 155 337 156 0 156"/>
          <polygon fill="#CCC" points="0 181 337 181 337 182 0 182"/>
        </g>
      </g>
    </g>
    <ellipse cx="172.5" cy="227" fill="#E3E3E3" opacity=".5" rx="166.5" ry="12"/>
    <g transform="translate(18 176)">
      <path fill="#0FCA80" stroke="#363636" d="M20.457 29.198C20.457 29.198 6.932 21.28 4 5.738 4 5.738 16.74 8.378 23.126 29.198M25.794 29.198C25.794 29.198 39.319 21.28 42.252 5.738 42.252 5.738 29.512 8.378 23.126 29.198"/>
      <path fill="#0FCA80" stroke="#363636" d="M21.71,27.927 C21.71,27.927 11.957,15.659 14.835,0.107 C14.835,0.107 25.762,7.169 24.199,28.89"/>
      <path fill="#0FCA80" stroke="#363636" d="M24.86,27.975 C24.86,27.975 34.32,15.48 31.074,-8.34887715e-14 C31.074,-8.34887715e-14 20.317,7.319 22.395,28.997"/>
      <ellipse cx="23" cy="50.775" fill="#CCC" rx="23" ry="2.775"/>
      <path fill="#EEB93E" stroke="#363636" d="M12.072,50.691 L33.543,50.691 C35.752139,50.691 37.543,48.900139 37.543,46.691 L37.543,26.045 L37.543,26.045 L8.072,26.045 L8.072,46.691 C8.072,48.900139 9.862861,50.691 12.072,50.691 Z"/>
      <path fill="#E99341" stroke="#363636" d="M31.752,50.691 L33.543,50.691 C35.752139,50.691 37.543,48.900139 37.543,46.691 L37.543,26.045 L37.543,26.045 L31.752,26.045 L31.752,50.691 Z"/>
    </g>
    <rect width="41.643" height="55" x="240" y="47" fill="#B2B2B2" opacity=".5"/>
    <g transform="translate(244 43)">
      <rect width="40.643" height="54" x=".5" y=".5" fill="#FFF" stroke="#363636"/>
      <path fill="#FFF" stroke="#000" stroke-width=".5" d="M28.5816589,10.75 L29.1337551,13.0895118 L30.9164448,13.0895464 L31.794644,15.9290714 L30.8394998,15.9290134 L29.9594017,23.1060054 L28.8773617,35.9385746 L27.3736084,44.0817524 L14.2831536,44.0817524 L13.2854698,35.9447729 L11.2176059,23.1123586 L10.8149089,15.9290143 L9.87525247,15.9290714 L10.7536636,13.0895464 L12.5362354,13.0895118 L13.0883316,10.75 L28.5816589,10.75 Z"/>
      <g transform="translate(10.214 11)">
        <polygon fill="#EEE" points=".773 4.159 4.29 32.832 16.951 32.832 20.468 4.159"/>
        <polygon fill="#EEB93E" points="19.989 12.085 1.252 12.085 2.89 24.905 18.415 24.905"/>
        <polygon fill="#D86000" points=".724 2.34 0 4.679 21.241 4.679 20.518 2.34"/>
        <polygon fill="#FF7100" points="3.072 0 2.52 2.34 18.722 2.34 18.17 0"/>
      </g>
    </g>
    <g transform="translate(43.354 106.182)">
      <ellipse cx="54" cy="120.775" fill="#CCC" rx="11" ry="2.775"/>
      <ellipse cx="236.146" cy="120.592" fill="#CCC" rx="25.5" ry="2.775"/>
      <g transform="rotate(4.5 4.242 127.13)">
        <path fill="#EEE" stroke="#363636" d="M200.219101,0.5 C207.062157,0.5 213.257382,3.27369658 217.741843,7.75815724 C222.226303,12.2426179 225,18.4378426 225,25.2808989 L225,25.2808989 L225,101.5 L18,101.5 L18,25.2808989 C18,18.4378426 20.7736966,12.2426179 25.2581572,7.75815724 C29.7426179,3.27369658 35.9378426,0.5 42.7808989,0.5 L42.7808989,0.5 Z"/>
        <rect width="208" height="23" x="18" y="61" fill="#EEE"/>
        <rect width="189" height="1" x="28.5" y="61" fill="#363636"/>
        <path fill="#EEE" stroke="#363636" d="M24.5000787,38.5 L24.501099,44.9786179 C25.5599103,46.6131879 26.2948064,48.4873532 26.6088695,50.5177619 L26.6088695,50.5177619 L29.2179369,67.3853058 C29.8552915,71.5057851 31.6706663,75.2223326 34.3113907,78.1841451 C36.9902977,81.1887827 40.5186593,83.4166044 44.5282248,84.5015369 L44.5282248,84.5015369 L199.471775,84.5015369 C203.414006,83.4348242 206.891059,81.2632871 209.552928,78.3348612 C212.180686,75.4439611 214.014055,71.8155315 214.717951,67.7751898 L214.717951,67.7751898 L217.39113,50.5177619 C217.925962,47.0600943 219.681464,44.0556539 222.177956,41.9156303 C224.674447,39.7756067 227.911927,38.5 231.410714,38.5 C234.695892,38.5 237.675024,39.8103585 239.853935,41.9369452 C242.036906,44.0674943 243.416771,47.0172845 243.496358,50.2894619 L243.496358,50.2894619 L243.5,77.7191011 C243.5,84.4879731 240.786121,90.6229881 236.387082,95.0953969 C231.98061,99.5753634 225.883299,102.387169 219.137158,102.496613 L219.137158,102.496613 L25.2808989,102.5 C18.4378426,102.5 12.2426179,99.7263034 7.75815724,95.2418428 C3.27369658,90.7573821 0.5,84.5621574 0.5,77.7191011 L0.5,77.7191011 L0.5,50.5892857 C0.5,47.2509216 1.85313939,44.2286002 4.04086981,42.0408698 C6.22860022,39.8531394 9.25092165,38.5 12.5892857,38.5 C12.9757131,38.5 13.3589541,38.5155526 13.7383627,38.5461102 C14.207103,38.5160487 14.6016788,38.5 15,38.5 L15,38.5 L24.5000787,38.5 Z"/>
        <g transform="translate(14)">
          <path fill="#FFF" stroke="#363636" d="M200.219101.5C207.062157.5 213.257382 3.27369658 217.741843 7.75815724 222.226303 12.2426179 225 18.4378426 225 25.2808989L225 25.2808989 225 101.5 18 101.5 18 25.2808989C18 18.4378426 20.7736966 12.2426179 25.2581572 7.75815724 29.7426179 3.27369658 35.9378426.5 42.7808989.5L42.7808989.5zM46.3279847 102.5L42.9549675 113.743391C42.7095459 114.561463 42.2103501 115.250615 41.5589868 115.735249 40.9076234 116.219884 40.1040923 116.5 39.25 116.5 38.4050066 116.5 37.6127967 116.215957 36.9774043 115.727799 36.3420119 115.239641 35.8634371 114.547367 35.6457139 113.730905L35.6457139 113.730905 32.6508058 102.5 46.3279847 102.5z"/>
          <path fill="url(#group-12-d)" d="M226,70.4178099 C182.403254,32.8409856 139.384954,13.1128692 96.9450995,11.2334608 C33.2853183,8.4143481 14.8501228,31.3737613 19.7472915,66.7081526 C23.0120707,90.2644134 69.4504261,95.1513796 159.062358,81.369051 L226,70.4178099 Z"/>
          <rect width="208" height="23" x="18" y="61" fill="#EEE"/>
          <rect width="189" height="1" x="28.5" y="61" fill="#363636"/>
          <path fill="#FFF" stroke="#363636" d="M231.410714,38.5 C234.695892,38.5 237.675024,39.8103585 239.853935,41.9369452 C242.036906,44.0674943 243.416771,47.0172845 243.496358,50.2894619 L243.496358,50.2894619 L243.5,77.7191011 C243.5,84.4879731 240.786121,90.6229881 236.387082,95.0953969 C231.98061,99.5753634 225.883299,102.387169 219.137158,102.496613 L219.137158,102.496613 L25.2808989,102.5 C18.4378426,102.5 12.2426179,99.7263034 7.75815724,95.2418428 C3.27369658,90.7573821 0.5,84.5621574 0.5,77.7191011 L0.5,77.7191011 L0.5,50.5892857 C0.5,47.2509216 1.85313939,44.2286002 4.04086981,42.0408698 C6.22860022,39.8531394 9.25092165,38.5 12.5892857,38.5 C16.0880725,38.5 19.3255529,39.7756067 21.8220444,41.9156303 C24.3185358,44.0556539 26.0740384,47.0600943 26.6088695,50.5177619 L26.6088695,50.5177619 L29.2179369,67.3853058 C29.8552915,71.5057851 31.6706663,75.2223326 34.3113907,78.1841451 C36.9902977,81.1887827 40.5186593,83.4166044 44.5282248,84.5015369 L44.5282248,84.5015369 L199.471775,84.5015369 C203.414006,83.4348242 206.891059,81.2632871 209.552928,78.3348612 C212.180686,75.4439611 214.014055,71.8155315 214.717951,67.7751898 L214.717951,67.7751898 L217.39113,50.5177619 C217.925962,47.0600943 219.681464,44.0556539 222.177956,41.9156303 C224.674447,39.7756067 227.911927,38.5 231.410714,38.5 Z"/>
        </g>
        <g stroke="#CCC" stroke-width=".6" transform="translate(176 22)">
          <line x1="8.7" x2="8.7" y2="18"/>
          <line x1="18" y1="9.3" y2="9.3"/>
        </g>
        <g transform="translate(77 22)">
          <line x1="8.7" x2="8.7" y2="18" stroke="#CCC" stroke-width=".6"/>
          <line x1="18" y1="9.3" y2="9.3" stroke="#CCC" stroke-width=".6"/>
          <circle cx="8.7" cy="9.3" r="2.7" fill="#F67103"/>
        </g>
      </g>
      <path fill="#B2B2B2" d="M205.436564,107.831962 C204.842025,107.76483 204.268425,107.825187 203.750661,107.985935 C203.203076,107.109521 202.166915,106.454212 200.915654,106.311941 C199.760839,106.180756 198.681531,106.518264 197.93915,107.145242 C197.296388,106.19061 196.147283,105.483566 194.768485,105.32713 C193.550219,105.188554 192.405556,105.509434 191.567363,106.125941 C190.897951,105.338216 189.860521,104.769747 188.642255,104.631788 C187.72221,104.527702 186.844678,104.686602 186.108007,105.035197 C185.537579,104.538172 184.771721,104.192657 183.902438,104.094114 C183.498887,104.047922 183.106123,104.061472 182.732394,104.122445 C182.404985,103.980174 182.051561,103.884095 181.678467,103.841598 C179.706398,103.617414 177.8974,104.985926 177.669609,106.873018 C177.442453,108.760111 178.878358,110.496926 180.849792,110.720495 C181.789507,110.827044 182.696862,110.572065 183.411959,110.068265 C183.901803,110.098444 184.373247,110.045477 184.807889,109.922915 C185.472859,110.760528 186.546456,111.367181 187.81358,111.5113 C189.031847,111.64926 190.175875,111.328996 191.014702,110.711872 C191.683479,111.499598 192.721544,112.068066 193.939176,112.206642 C195.420765,112.37478 196.794487,111.865438 197.637756,110.966851 C198.222143,111.653571 199.130767,112.149364 200.198019,112.270694 C200.80398,112.339058 201.39027,112.278701 201.917551,112.11549 C202.456253,112.993752 203.480358,113.649676 204.718295,113.7901 C206.679577,114.012437 208.4302,112.859487 208.627534,111.213824 C208.826137,109.568777 207.397212,108.054299 205.436564,107.831962"/>
      <path fill="#DFDFDF" d="M177.645967,108.817543 C177.645967,108.817543 179.236825,111.758698 180.479419,113.634792 C181.577389,115.291921 181.449628,112.438088 182.833603,112.91108 C183.962055,113.298075 184.018477,116.894804 184.000967,118.208599 C183.99967,118.301875 184.124189,118.327013 184.15921,118.241014 C184.613184,117.133616 185.949168,114.364458 187.864942,114.592685 C189.669168,114.808344 190.911762,116.540886 191.412431,117.377058 C191.508415,117.539133 191.74513,117.510687 191.80285,117.330751 C192.141385,116.270321 193.075276,113.884189 194.594795,114.00591 C196.54559,114.160707 197.922431,116.024233 198.058624,116.812775 C198.195465,117.600655 199.426385,112.805236 202.498498,114.407458 C204.763184,115.588286 205.416908,118.968695 205.604984,120.664192 C205.626385,120.85339 205.886448,120.873897 205.935737,120.689992 C206.503205,118.575747 207.876155,113.650669 208.645967,112.514825"/>
    </g>
  </g>
</svg>
