<?xml version="1.0" encoding="UTF-8"?>
<svg id="babySVG" alt="לתינוק ולילד" xmlns="http://www.w3.org/2000/svg" width="130" height="100" viewBox="0 0 130 100">
  <title>לתינוק ולילד</title>
  <g fill="none" fill-rule="evenodd" transform="translate(37 12)">
    <path class="baby1" fill="#E5E5E5" d="M2,67 L54,67 C55.1045695,67 56,67.8954305 56,69 C56,70.1045695 55.1045695,71 54,71 L2,71 C0.8954305,71 1.3527075e-16,70.1045695 0,69 C-1.3527075e-16,67.8954305 0.8954305,67 2,67 Z"/>
    <polygon class="baby1" fill="#E5E5E5" fill-rule="nonzero" points="35.5 65 32 67.5 24.5 67.5 19 65.5 19 61 15.5 54.5 14 52.5 15.5 48.5 39 48.5 40 50.5 40 53.5 36.5 58.5"/>
    <path class="baby" fill="#7F7F7F" fill-rule="nonzero" d="M36.1223168,63.5900645 C35.4380559,63.3131211 34.6603168,63.6486875 34.3858913,64.3396309 C34.1566025,64.916832 30.5751677,66.3046875 29.9392484,66.3046875 L25.0607516,66.3046875 C24.4248323,66.3046875 20.8433975,64.916832 20.6141087,64.3396309 C20.3396832,63.6486875 19.5623447,63.3137949 18.8776832,63.5900645 C18.1931553,63.8671426 17.8606398,64.6516133 18.1350652,65.3424219 C18.7764596,66.9569141 23.3172484,69 25.0607516,69 L29.9392484,69 C31.6827516,69 36.2235404,66.9569141 36.8648012,65.3424219 C37.1393602,64.6516133 36.8068447,63.8671426 36.1223168,63.5900645 Z"/>
    <path class="baby" fill="#7F7F7F" fill-rule="nonzero" d="M48.8051646,57.6476133 C48.4424689,55.7603555 47.2902826,54.126457 45.6433292,53.1615352 C45.9428602,52.9146445 46.2238292,52.6416094 46.4802267,52.3409473 C47.7449876,50.8581211 48.3050559,48.8979551 48.0164752,46.9633945 C47.547882,43.8201211 46.2222267,40.8831738 44.1829317,38.4699258 C42.6560311,36.663123 40.7792547,35.2071152 38.6787981,34.1839746 C41.2493168,31.4166973 42.8261615,27.6985137 42.8261615,23.61525 C42.826028,16.5489492 38.1057764,10.5741152 31.6802143,8.73335156 C32.5554379,7.67881055 33.0329783,6.3613418 33.0329783,4.96921289 C33.0331118,2.2291582 30.824087,0 28.1090776,0 C27.0127112,0 25.9861863,0.359689453 25.2184627,1.01262891 C24.3699472,1.73416406 23.9026894,2.74827539 23.9025559,3.86804297 C23.9025559,4.61221875 24.5004161,5.21569922 25.2379596,5.21569922 C25.9753696,5.21569922 26.5733634,4.61235352 26.5733634,3.86804297 C26.5733634,3.54743555 26.6964876,3.28019531 26.9395311,3.07346484 C27.2263758,2.82953906 27.6415528,2.69517773 28.1088106,2.69517773 C29.3514037,2.69517773 30.3623043,3.71508398 30.3623043,4.96894336 C30.3623043,5.81823633 30.0345963,6.61658789 29.4395404,7.21710352 C28.8444845,7.81748438 28.0535248,8.14819922 27.2122205,8.14819922 C27.179236,8.14819922 27.1471863,8.15075977 27.1151366,8.15318555 C18.8415093,8.36018555 12.173972,15.2166562 12.1738385,23.6151152 C12.1738385,27.6983789 13.7506832,31.4165625 16.3212019,34.1838398 C14.2208789,35.2069805 12.3441025,36.6628535 10.8172019,38.469791 C8.77790683,40.8830391 7.45225155,43.8199863 6.98352484,46.963125 C6.69507764,48.8978203 7.25501242,50.8579863 8.51977329,52.3408125 C8.77617081,52.6414746 9.05713975,52.9146445 9.35667081,53.1614004 C7.70971739,54.1263223 6.55739752,55.7602207 6.1948354,57.6474785 C5.83120497,59.5395879 6.29779503,61.4954414 7.47468634,63.0133066 L10.3344534,66.701168 C11.4898447,68.1911367 13.2449658,68.9923184 15.0251925,68.9923184 C16.0358261,68.9923184 17.0547391,68.7341074 17.9764348,68.1970664 C20.5218478,66.7139707 21.6126056,63.5211035 20.5137019,60.7702676 L18.7788789,56.427041 C18.6629658,56.1368906 18.5259534,55.8585996 18.3730497,55.5912246 L39.1677019,55.5912246 C39.9052453,55.5912246 40.5031056,54.9877441 40.5031056,54.2435684 C40.5031056,53.4993926 39.9052453,52.8959121 39.1677019,52.8959121 L15.8344472,52.8959121 L15.8344472,50.054918 C15.8344472,49.6890293 16.1293043,49.3914668 16.4918665,49.3914668 L38.5082671,49.3914668 C38.8706957,49.3914668 39.1656863,49.6890293 39.1656863,50.054918 L39.1656863,53.082293 C37.8406988,53.8152832 36.794677,54.9909785 36.2209876,56.427041 L34.4861646,60.7701328 C33.3872609,63.5211035 34.4780186,66.7139707 37.0234317,68.1970664 C37.9452609,68.7341074 38.9637733,68.9923184 39.9746739,68.9923184 C41.7547671,68.9923184 43.5101553,68.191002 44.6655466,66.701168 L47.5251801,63.0133066 C48.7023385,61.4954414 49.168795,59.5397227 48.8051646,57.6476133 Z M14.8445124,23.61525 C14.8445124,16.5730723 20.5219814,10.8436465 27.5,10.8436465 C34.4780186,10.8436465 40.1554876,16.5730723 40.1554876,23.61525 C40.1554876,30.6574277 34.4782857,36.3868535 27.5,36.3868535 C20.5218478,36.3868535 14.8445124,30.6574277 14.8445124,23.61525 Z M16.3021056,57.4348184 L18.0369286,61.7781797 C18.6411988,63.2911934 18.0410683,65.0473242 16.6411646,65.8630605 C15.2413944,66.6787969 13.4341925,66.3253066 12.4378478,65.0403164 L9.57808075,61.3524551 C8.87792857,60.4496602 8.60043168,59.2863633 8.81676708,58.1608008 C9.03310248,57.0352383 9.72150311,56.0608828 10.7054286,55.4875898 C11.6892205,54.9142969 12.8695839,54.8001504 13.9436491,55.1735859 C15.0177143,55.547291 15.8773137,56.3716523 16.3021056,57.4348184 Z M38.5170807,44.0009766 C37.7795373,44.0009766 37.181677,44.604457 37.181677,45.3486328 L37.181677,46.6962891 L17.8271366,46.6962891 L17.8271366,45.3486328 C17.8271366,44.604457 17.2292764,44.0009766 16.4917329,44.0009766 C15.7541894,44.0009766 15.1563292,44.604457 15.1563292,45.3486328 L15.1563292,46.9794316 C13.9842453,47.4997617 13.1635062,48.6821953 13.1635062,50.0550527 L13.1635062,51.9580781 C12.152205,51.8560605 11.2138168,51.3679395 10.5438447,50.5825254 C9.78707143,49.6950938 9.45201863,48.5220938 9.6245528,47.3643223 C10.3890714,42.2360859 13.7772578,37.9989199 18.5338323,36.1510137 C21.056677,37.9937988 24.1545466,39.0820313 27.5,39.0820313 C30.8454534,39.0820313 33.943323,37.9937988 36.4661677,36.1510137 C41.2227422,37.9989199 44.6109286,42.2360859 45.3754472,47.3643223 C45.5479814,48.5220938 45.2129286,49.6950938 44.4560217,50.5825254 C43.7861832,51.3679395 42.8476615,51.8560605 41.8363602,51.9580781 L41.8363602,50.0550527 C41.8363602,48.6856992 41.0197609,47.5058262 39.8524845,46.9834746 L39.8524845,45.3486328 C39.8524845,44.604457 39.2546242,44.0009766 38.5170807,44.0009766 Z M45.4219193,61.3523203 L42.5622857,65.0401816 C41.565941,66.3249023 39.7590062,66.6785273 38.3589689,65.8629258 C36.9589317,65.0471895 36.3589348,63.2910586 36.9633385,61.7777754 L38.6981615,57.4345488 C39.1229534,56.371248 39.9825528,55.5470215 41.056618,55.1733164 C41.4725963,55.0287129 41.9044658,54.9571523 42.3347329,54.9571523 C43.0153882,54.9571523 43.6920373,55.1362559 44.2948385,55.4874551 C45.278764,56.060748 45.9670311,57.0351035 46.1835,58.160666 C46.3995683,59.2862285 46.1220714,60.4495254 45.4219193,61.3523203 Z"/>
    <path class="baby" fill="#7F7F7F" fill-rule="nonzero" d="M31.1817081 28.2174961C30.6088199 27.7487812 29.7679161 27.8378613 29.3034627 28.4158711 28.8597081 28.9684102 28.2022888 29.2852441 27.5 29.2852441 26.7977112 29.2852441 26.1401584 28.9682754 25.6965373 28.4158711 25.2322174 27.8375918 24.3913137 27.7490508 23.8182919 28.2174961 23.2452702 28.6860762 23.1572671 29.5346953 23.6217205 30.1129746 24.5749317 31.2998555 25.9885901 31.9804219 27.5 31.9804219 29.0114099 31.9804219 30.4252019 31.2997207 31.3782795 30.1129746 31.8427329 29.5346953 31.7547298 28.6860762 31.1817081 28.2174961zM24.1255683 22.6621875C22.9142236 21.4397285 20.9431677 21.4397285 19.7315559 22.6621875 19.2100807 23.1884473 19.2099472 24.0416484 19.7315559 24.568043 20.2530311 25.0944375 21.0986087 25.0944375 21.6200839 24.5681777 21.7900807 24.3966211 22.0669099 24.3966211 22.2370404 24.5681777 22.4978447 24.8312402 22.8395745 24.9629063 23.1813043 24.9629063 23.5230342 24.9629063 23.8648975 24.8312402 24.1255683 24.5681777 24.6470435 24.041918 24.6470435 23.188582 24.1255683 22.6621875zM35.2684441 22.6620527C34.0569658 21.4397285 32.0857764 21.4397285 30.8744317 22.6620527 30.3529565 23.1883125 30.3529565 24.0416484 30.8744317 24.568043 31.1351025 24.8312402 31.4769658 24.9627715 31.8186957 24.9627715 32.1604255 24.9627715 32.5022888 24.8311055 32.7629596 24.568043 32.9329565 24.3966211 33.2097857 24.3963516 33.3799161 24.568043 33.9013913 25.0944375 34.7469689 25.0943027 35.2684441 24.5679082 35.7899193 24.0416484 35.7899193 23.1884473 35.2684441 22.6620527z"/>
  </g>
</svg>
