<?xml version="1.0" encoding="UTF-8"?>
<svg id="businessSVG" alt="יד2 לעסקים" xmlns="http://www.w3.org/2000/svg" width="130" height="100" viewBox="0 0 130 100">
  <title>יד2 לעסקים</title>
  <g fill="none" fill-rule="evenodd" transform="translate(27 24)">
    <path class="business1" fill="#E5E5E5" d="M2,54.7434579 L74,54.7434579 C75.1045695,54.7434579 76,55.6388884 76,56.7434579 C76,57.8480274 75.1045695,58.7434579 74,58.7434579 L2,58.7434579 C0.8954305,58.7434579 1.3527075e-16,57.8480274 0,56.7434579 C-1.3527075e-16,55.6388884 0.8954305,54.7434579 2,54.7434579 Z"/>
    <path class="business1" fill="#E5E5E5" fill-rule="nonzero" d="M21.172641 18.8775701L21.1220603 19.170157C20.6079537 22.1440345 18.0383407 24.3495327 15.026835 24.3495302 12.0209374 24.3630058 9.45772684 22.1521032 8.94222541 19.170157L8.89164471 18.8775701 21.172641 18.8775701zM36.172641 18.8775701L36.1220603 19.170157C35.6079537 22.1440345 33.0383407 24.3495327 30.026835 24.3495302 27.0209374 24.3630058 24.4577268 22.1521032 23.9422254 19.170157L23.8916447 18.8775701 36.172641 18.8775701zM51.172641 18.8775701L51.1220603 19.170157C50.6079537 22.1440345 48.0383407 24.3495327 45.026835 24.3495302 42.0209374 24.3630058 39.4577268 22.1521032 38.9422254 19.170157L38.8916447 18.8775701 51.172641 18.8775701zM66.172641 18.8775701L66.1220603 19.170157C65.6079537 22.1440345 63.0383407 24.3495327 60.026835 24.3495302 57.0209374 24.3630058 54.4577268 22.1521032 53.9422254 19.170157L53.8916447 18.8775701 66.172641 18.8775701z"/>
    <path class="business" fill="#7F7F7F" fill-rule="nonzero" d="M50.7042857,30.446729 L42.1542857,30.446729 C39.9533456,30.446729 38.1614286,32.270279 38.1614286,34.514486 L38.1614286,41.1873832 C38.1614286,43.4315901 39.9533456,45.2551402 42.1542857,45.2551402 L50.7042857,45.2551402 C52.9052258,45.2551402 54.6971429,43.4315901 54.6971429,41.1873832 L54.6971429,34.514486 C54.6971429,32.270279 52.9052258,30.446729 50.7042857,30.446729 Z M52.1114286,41.1873832 C52.1114286,41.974618 51.4773609,42.6149533 50.7042857,42.6149533 L42.1542857,42.6149533 C41.3763465,42.6149533 40.7471429,41.9697167 40.7471429,41.1873832 L40.7471429,34.514486 C40.7471429,33.7272512 41.3812105,33.0869159 42.1542857,33.0869159 L50.7042857,33.0869159 C51.4822249,33.0869159 52.1114286,33.7321524 52.1114286,34.514486 L52.1114286,41.1873832 Z"/>
    <path class="business" fill="#7F7F7F" fill-rule="nonzero" d="M68.6728571,18.067757 C68.6728571,17.8293313 68.6166061,17.6139847 68.4989126,17.4177598 L59.1388046,0.669902866 C58.9103686,0.260315301 58.477014,0 58.02,0 L16.89,0 C16.4250329,0 15.9970245,0.254079044 15.7711587,0.669968502 L6.42514538,17.4155859 C6.310425,17.6257279 6.25,17.8465389 6.25,18.067757 C6.25,21.6383655 8.33643997,24.817903 11.5024178,26.2396987 L11.65,54.0883178 C11.65,54.8147677 12.2333456,55.4084112 12.9428571,55.4084112 L61.9671429,55.4084112 C62.6766544,55.4084112 63.26,54.8147677 63.26,54.0883178 L63.26,26.6640187 C63.26,26.6166257 63.2415257,26.5122578 63.2045772,26.350915 L63.3950691,26.2657127 C66.5741512,24.8437888 68.6728571,21.6509072 68.6728571,18.067757 Z M57.2667138,2.65327103 L64.8617136,16.2504673 L10.0615085,16.2504673 L17.6431603,2.65327103 L57.2667138,2.65327103 Z M51.0277746,19.170157 C50.5132303,22.1465663 47.9545257,24.3495327 44.9442857,24.3495327 C41.9340457,24.3495327 39.3753411,22.1465663 38.8607968,19.170157 L38.8102161,18.8775701 L51.0783553,18.8775701 L51.0277746,19.170157 Z M36.0749174,19.170157 C35.5603732,22.1465663 33.0016686,24.3495327 29.9914286,24.3495327 C26.9833888,24.3495327 24.4236077,22.1490617 23.8952729,19.1712439 L23.8431683,18.8775701 L36.1254981,18.8775701 L36.0749174,19.170157 Z M21.172641,18.8775701 L21.1220603,19.170157 C20.6079537,22.1440345 18.0383407,24.3495327 15.026835,24.3495302 C12.0209374,24.3630058 9.45772684,22.1521032 8.94222541,19.170157 L8.89164471,18.8775701 L21.172641,18.8775701 Z M22.7985714,52.7682243 L22.7985714,35.5742991 C22.7985714,34.2029831 23.8908561,33.0869159 25.2471429,33.0869159 L29.7342857,33.0869159 C31.0861376,33.0869159 32.1828571,34.1984956 32.1828571,35.5742991 L32.1828571,52.7682243 L22.7985714,52.7682243 Z M34.7557143,52.7682243 L34.7557143,35.5742991 C34.7557143,32.7497802 32.4964111,30.446729 29.7214286,30.446729 L25.2342857,30.446729 C22.4630951,30.446729 20.2,32.7459107 20.2,35.5742991 L20.2,52.7813084 L14.2357143,52.7813084 L14.2357143,26.9708876 L14.5038388,26.9903775 C14.5824619,26.9960926 14.665488,26.9994873 14.7602566,27.0012095 C14.8332381,27.0025357 14.8922284,27.0028037 15.0257143,27.0028037 C17.9741783,27.0028037 20.680721,25.5045358 22.3001214,23.0587124 L22.5085714,22.7438848 L22.7170215,23.0587124 C24.3364219,25.5045358 27.0429646,27.0028037 29.9914286,27.0028037 C32.9353819,27.0028037 35.6306788,25.5088843 37.26634,23.0579536 L37.4751086,22.7451276 L37.6827358,23.0587124 C39.3011932,25.5031117 42.0069051,27.0028037 44.9442857,27.0028037 C47.8898685,27.0028037 50.5845906,25.5073218 52.2058356,23.0587124 L52.4142857,22.7438848 L52.6227358,23.0587124 C54.2421362,25.5045358 56.9486788,27.0028037 59.8971429,27.0028037 C59.9679894,27.0028037 60.0242168,27.0012289 60.1512983,26.9964391 C60.284574,26.9914158 60.3451323,26.9897196 60.4242857,26.9897196 L60.6742857,26.9897196 L60.6742857,52.7682243 L34.7557143,52.7682243 Z M59.8971429,24.3626168 C56.8869029,24.3626168 54.3281982,22.1596504 53.813654,19.1832411 L53.7630733,18.8906542 L66.0456456,18.8906542 L65.9932635,19.1845249 C65.4638628,22.1545364 62.8999428,24.3626168 59.8971429,24.3626168 Z"/>
  </g>
</svg>
