<?xml version="1.0" encoding="UTF-8"?>
<svg width="101px" height="80px" alt="מסחרי" viewBox="0 0 101 80" version="1.1" xmlns="http://www.w3.org/2000/svg" xmlns:xlink="http://www.w3.org/1999/xlink">
    <!-- Generator: sketchtool 51 (57462) - http://www.bohemiancoding.com/sketch -->
    <title>מסחרי</title>
    <desc>Created with sketchtool.</desc>
    <defs></defs>
    <g id="Symbols" stroke="none" stroke-width="1" fill="none" fill-rule="evenodd">
        <g id="Business-real-estate" transform="translate(-5.000000, -15.000000)">
            <g id="Group" transform="translate(5.000000, 15.000000)">
                <g id="Business_real-estate" transform="translate(14.000000, 0.000000)">
                    <rect id="Rectangle-5-Copy" fill-opacity="0.1" fill="#000000" x="1.81818182" y="76.3636364" width="65.4545455" height="3.63636364" rx="1.81818182"></rect>
                    <g id="skyline" fill="#7F7F7F" fill-rule="nonzero">
                        <path class="Business-real-estate" d="M68.7021459,74.668093 L66.5417597,74.668093 L66.5417597,6.51173651 C66.5417597,5.79228516 65.9613305,5.20941939 65.2455579,5.20941939 L41.0491416,5.20941939 C40.3332189,5.20941939 39.7529399,5.79228516 39.7529399,6.51173651 L39.7529399,12.1552113 L37.1605365,12.1552113 L37.1605365,6.51173651 C37.1605365,5.79228516 36.5801073,5.20941939 35.8643348,5.20941939 L30.2472103,5.20941939 L30.2472103,1.30231712 C30.2472103,0.582865767 29.6667811,0 28.9510086,0 C28.2352361,0 27.6548069,0.582865767 27.6548069,1.30231712 L27.6548069,5.20941939 L22.0378326,5.20941939 C21.3219099,5.20941939 20.7416309,5.79228516 20.7416309,6.51173651 L20.7416309,12.1552113 L16.8528755,12.1552113 C16.1369528,12.1552113 15.5566738,12.7380771 15.5566738,13.4575284 L15.5566738,24.3104226 L4.75474249,24.3104226 C4.03881974,24.3104226 3.45854077,24.8932884 3.45854077,25.6127397 L3.45854077,74.6679421 L1.29785408,74.6679421 C0.58193133,74.6679421 0.00165236052,75.2508079 0.00165236052,75.9702592 C0.00165236052,76.6897106 0.582081545,77.2727273 1.29785408,77.2727273 L68.7021459,77.2727273 C69.4180687,77.2727273 69.9983476,76.6898615 69.9983476,75.9704102 C69.9983476,75.2509588 69.4179185,74.668093 68.7021459,74.668093 Z M23.3338841,7.81405362 L34.5678326,7.81405362 L34.5678326,12.1552113 L23.3338841,12.1552113 L23.3338841,7.81405362 Z M19.0131116,74.668093 L18.148927,74.668093 L18.148927,72.4975142 C18.148927,71.7780629 17.5684979,71.1951971 16.8527253,71.1951971 C16.1369528,71.1951971 15.5565236,71.7780629 15.5565236,72.4975142 L15.5565236,74.668093 L14.6923391,74.668093 L14.6923391,70.3269354 L19.0131116,70.3269354 L19.0131116,74.668093 Z M27.6546567,41.2409979 L27.6546567,43.4814542 L27.6546567,74.668093 L21.605515,74.668093 L21.605515,69.0246183 C21.605515,68.3051669 21.0250858,67.7223011 20.3093133,67.7223011 L13.3961373,67.7223011 C12.6802146,67.7223011 12.0999356,68.3051669 12.0999356,69.0246183 L12.0999356,74.668093 L6.05079399,74.668093 L6.05079399,26.9152077 L27.6546567,26.9152077 L27.6546567,41.2409979 Z M28.9508584,24.3105735 L18.148927,24.3105735 L18.148927,14.7599964 L39.7527897,14.7599964 L39.7527897,39.9386808 L30.2472103,39.9386808 L30.2472103,35.5975231 L34.1359657,35.5975231 C34.8518884,35.5975231 35.4321674,35.0146573 35.4321674,34.295206 C35.4321674,33.5757546 34.8517382,32.9928888 34.1359657,32.9928888 L30.2472103,32.9928888 L30.2472103,28.6517312 L34.1359657,28.6517312 C34.8518884,28.6517312 35.4321674,28.0688654 35.4321674,27.3494141 C35.4321674,26.6299627 34.8517382,26.0470969 34.1359657,26.0470969 L30.2472103,26.0470969 L30.2472103,25.6130415 C30.2472103,24.8934393 29.6667811,24.3105735 28.9508584,24.3105735 Z M51.851073,74.668093 L30.2472103,74.668093 L30.2472103,43.4814542 L30.2472103,42.5434659 L51.851073,42.5434659 L51.851073,74.668093 Z M63.9493562,74.668093 L54.4434764,74.668093 L54.4434764,41.2409979 L54.4434764,39.5044744 C54.4434764,38.7850231 53.8630472,38.2021573 53.1472747,38.2021573 C52.4315021,38.2021573 51.851073,38.7850231 51.851073,39.5044744 L51.851073,39.9385298 L49.2586695,39.9385298 L49.2586695,39.5044744 C49.2586695,38.7850231 48.6782403,38.2021573 47.9624678,38.2021573 C47.2466953,38.2021573 46.6662661,38.7850231 46.6662661,39.5044744 L46.6662661,39.9385298 L42.3454936,39.9385298 L42.3454936,13.4576793 L42.3454936,7.81405362 L63.9493562,7.81405362 L63.9493562,74.668093 Z" id="Shape"></path>
                        <path class="Business-real-estate" d="M35.8641845,72.0636097 C36.5801073,72.0636097 37.1603863,71.4804421 37.1603863,70.7612926 L37.1603863,46.45087 C37.1603863,45.7314187 36.5799571,45.1485529 35.8641845,45.1485529 C35.148412,45.1485529 34.5679828,45.7314187 34.5679828,46.45087 L34.5679828,70.7614435 C34.5679828,71.480593 35.1482618,72.0636097 35.8641845,72.0636097 Z" id="Shape"></path>
                        <path class="Business-real-estate" d="M41.0491416,72.0636097 C41.7650644,72.0636097 42.3453433,71.4804421 42.3453433,70.7612926 L42.3453433,46.45087 C42.3453433,45.7314187 41.7649142,45.1485529 41.0491416,45.1485529 C40.3333691,45.1485529 39.7529399,45.7314187 39.7529399,46.45087 L39.7529399,70.7614435 C39.7527897,71.480593 40.3332189,72.0636097 41.0491416,72.0636097 Z" id="Shape"></path>
                        <path class="Business-real-estate" d="M46.2339485,72.0636097 C46.9498712,72.0636097 47.5301502,71.4804421 47.5301502,70.7612926 L47.5301502,46.45087 C47.5301502,45.7314187 46.949721,45.1485529 46.2339485,45.1485529 C45.518176,45.1485529 44.9377468,45.7314187 44.9377468,46.45087 L44.9377468,70.7614435 C44.9377468,71.480593 45.518176,72.0636097 46.2339485,72.0636097 Z" id="Shape"></path>
                        <path class="Business-real-estate" d="M47.9623176,16.496369 C48.6782403,16.496369 49.2585193,15.9135032 49.2585193,15.1940518 L49.2585193,13.4576793 C49.2585193,12.738228 48.6780901,12.1553622 47.9623176,12.1553622 C47.2465451,12.1553622 46.6661159,12.738228 46.6661159,13.4576793 L46.6661159,15.1942028 C46.6661159,15.9135032 47.2463948,16.496369 47.9623176,16.496369 Z" id="Shape"></path>
                        <path class="Business-real-estate" d="M53.1472747,16.496369 C53.8631974,16.496369 54.4434764,15.9135032 54.4434764,15.1940518 L54.4434764,13.4576793 C54.4434764,12.738228 53.8630472,12.1553622 53.1472747,12.1553622 C52.4315021,12.1553622 51.851073,12.738228 51.851073,13.4576793 L51.851073,15.1942028 C51.851073,15.9135032 52.4313519,16.496369 53.1472747,16.496369 Z" id="Shape"></path>
                        <path class="Business-real-estate" d="M58.3322318,16.496369 C59.0481545,16.496369 59.6284335,15.9135032 59.6284335,15.1940518 L59.6284335,13.4576793 C59.6284335,12.738228 59.0480043,12.1553622 58.3322318,12.1553622 C57.6164592,12.1553622 57.03603,12.738228 57.03603,13.4576793 L57.03603,15.1942028 C57.03603,15.9135032 57.616309,16.496369 58.3322318,16.496369 Z" id="Shape"></path>
                        <path class="Business-real-estate" d="M47.9623176,25.1786843 C48.6782403,25.1786843 49.2585193,24.5958185 49.2585193,23.8763672 L49.2585193,22.1398437 C49.2585193,21.4203924 48.6780901,20.8375266 47.9623176,20.8375266 C47.2465451,20.8375266 46.6661159,21.4203924 46.6661159,22.1398437 L46.6661159,23.8763672 C46.6661159,24.5958185 47.2463948,25.1786843 47.9623176,25.1786843 Z" id="Shape"></path>
                        <path class="Business-real-estate" d="M53.1472747,25.1786843 C53.8631974,25.1786843 54.4434764,24.5958185 54.4434764,23.8763672 L54.4434764,22.1398437 C54.4434764,21.4203924 53.8630472,20.8375266 53.1472747,20.8375266 C52.4315021,20.8375266 51.851073,21.4203924 51.851073,22.1398437 L51.851073,23.8763672 C51.851073,24.5958185 52.4313519,25.1786843 53.1472747,25.1786843 Z" id="Shape"></path>
                        <path class="Business-real-estate" d="M58.3322318,25.1786843 C59.0481545,25.1786843 59.6284335,24.5958185 59.6284335,23.8763672 L59.6284335,22.1398437 C59.6284335,21.4203924 59.0480043,20.8375266 58.3322318,20.8375266 C57.6164592,20.8375266 57.03603,21.4203924 57.03603,22.1398437 L57.03603,23.8763672 C57.03603,24.5958185 57.616309,25.1786843 58.3322318,25.1786843 Z" id="Shape"></path>
                        <path class="Business-real-estate" d="M47.9623176,33.8611506 C48.6782403,33.8611506 49.2585193,33.2782848 49.2585193,32.5588335 L49.2585193,30.82231 C49.2585193,30.1028587 48.6780901,29.5199929 47.9623176,29.5199929 C47.2465451,29.5199929 46.6661159,30.1028587 46.6661159,30.82231 L46.6661159,32.5588335 C46.6661159,33.2781339 47.2463948,33.8611506 47.9623176,33.8611506 Z" id="Shape"></path>
                        <path class="Business-real-estate" d="M53.1472747,33.8611506 C53.8631974,33.8611506 54.4434764,33.2782848 54.4434764,32.5588335 L54.4434764,30.82231 C54.4434764,30.1028587 53.8630472,29.5199929 53.1472747,29.5199929 C52.4315021,29.5199929 51.851073,30.1028587 51.851073,30.82231 L51.851073,32.5588335 C51.851073,33.2781339 52.4313519,33.8611506 53.1472747,33.8611506 Z" id="Shape"></path>
                        <path class="Business-real-estate" d="M58.3322318,33.8611506 C59.0481545,33.8611506 59.6284335,33.2782848 59.6284335,32.5588335 L59.6284335,30.82231 C59.6284335,30.1028587 59.0480043,29.5199929 58.3322318,29.5199929 C57.6164592,29.5199929 57.03603,30.1028587 57.03603,30.82231 L57.03603,32.5588335 C57.03603,33.2781339 57.616309,33.8611506 58.3322318,33.8611506 Z" id="Shape"></path>
                        <path class="Business-real-estate" d="M11.6677682,37.3340465 C12.383691,37.3340465 12.96397,36.7511808 12.96397,36.0317294 L12.96397,34.295206 C12.96397,33.5757546 12.3835408,32.9928888 11.6677682,32.9928888 C10.9519957,32.9928888 10.3715665,33.5757546 10.3715665,34.295206 L10.3715665,36.0317294 C10.3715665,36.7510298 10.9519957,37.3340465 11.6677682,37.3340465 Z" id="Shape"></path>
                        <path class="Business-real-estate" d="M16.8527253,37.3340465 C17.5686481,37.3340465 18.148927,36.7511808 18.148927,36.0317294 L18.148927,34.295206 C18.148927,33.5757546 17.5684979,32.9928888 16.8527253,32.9928888 C16.1369528,32.9928888 15.5565236,33.5757546 15.5565236,34.295206 L15.5565236,36.0317294 C15.5565236,36.7510298 16.1368026,37.3340465 16.8527253,37.3340465 Z" id="Shape"></path>
                        <path class="Business-real-estate" d="M22.0376824,37.3340465 C22.7536052,37.3340465 23.3338841,36.7511808 23.3338841,36.0317294 L23.3338841,34.295206 C23.3338841,33.5757546 22.7534549,32.9928888 22.0376824,32.9928888 C21.3219099,32.9928888 20.7414807,33.5757546 20.7414807,34.295206 L20.7414807,36.0317294 C20.7414807,36.7510298 21.3217597,37.3340465 22.0376824,37.3340465 Z" id="Shape"></path>
                        <path class="Business-real-estate" d="M11.6677682,46.0163619 C12.383691,46.0163619 12.96397,45.4334961 12.96397,44.7140447 L12.96397,42.9775213 C12.96397,42.25807 12.3835408,41.6752042 11.6677682,41.6752042 C10.9519957,41.6752042 10.3715665,42.25807 10.3715665,42.9775213 L10.3715665,44.7140447 C10.3715665,45.4333452 10.9519957,46.0163619 11.6677682,46.0163619 Z" id="Shape"></path>
                        <path class="Business-real-estate" d="M16.8527253,46.0163619 C17.5686481,46.0163619 18.148927,45.4334961 18.148927,44.7140447 L18.148927,42.9775213 C18.148927,42.25807 17.5684979,41.6752042 16.8527253,41.6752042 C16.1369528,41.6752042 15.5565236,42.25807 15.5565236,42.9775213 L15.5565236,44.7140447 C15.5565236,45.4333452 16.1368026,46.0163619 16.8527253,46.0163619 Z" id="Shape"></path>
                        <path class="Business-real-estate" d="M22.0376824,46.0163619 C22.7536052,46.0163619 23.3338841,45.4334961 23.3338841,44.7140447 L23.3338841,42.9775213 C23.3338841,42.25807 22.7534549,41.6752042 22.0376824,41.6752042 C21.3219099,41.6752042 20.7414807,42.25807 20.7414807,42.9775213 L20.7414807,44.7140447 C20.7414807,45.4333452 21.3217597,46.0163619 22.0376824,46.0163619 Z" id="Shape"></path>
                        <path class="Business-real-estate" d="M11.6677682,54.6986772 C12.383691,54.6986772 12.96397,54.1158114 12.96397,53.3963601 L12.96397,51.6598366 C12.96397,50.9403853 12.3835408,50.3575195 11.6677682,50.3575195 C10.9519957,50.3575195 10.3715665,50.9403853 10.3715665,51.6598366 L10.3715665,53.3963601 C10.3715665,54.1158114 10.9519957,54.6986772 11.6677682,54.6986772 Z" id="Shape"></path>
                        <path class="Business-real-estate" d="M16.8527253,54.6986772 C17.5686481,54.6986772 18.148927,54.1158114 18.148927,53.3963601 L18.148927,51.6598366 C18.148927,50.9403853 17.5684979,50.3575195 16.8527253,50.3575195 C16.1369528,50.3575195 15.5565236,50.9403853 15.5565236,51.6598366 L15.5565236,53.3963601 C15.5565236,54.1158114 16.1368026,54.6986772 16.8527253,54.6986772 Z" id="Shape"></path>
                        <path class="Business-real-estate" d="M22.0376824,54.6986772 C22.7536052,54.6986772 23.3338841,54.1158114 23.3338841,53.3963601 L23.3338841,51.6598366 C23.3338841,50.9403853 22.7534549,50.3575195 22.0376824,50.3575195 C21.3219099,50.3575195 20.7414807,50.9403853 20.7414807,51.6598366 L20.7414807,53.3963601 C20.7414807,54.1158114 21.3217597,54.6986772 22.0376824,54.6986772 Z" id="Shape"></path>
                        <path class="Business-real-estate" d="M11.6677682,63.3809925 C12.383691,63.3809925 12.96397,62.7981268 12.96397,62.0786754 L12.96397,60.342152 C12.96397,59.6227006 12.3835408,59.0398349 11.6677682,59.0398349 C10.9519957,59.0398349 10.3715665,59.6227006 10.3715665,60.342152 L10.3715665,62.0786754 C10.3715665,62.7981268 10.9519957,63.3809925 11.6677682,63.3809925 Z" id="Shape"></path>
                        <path class="Business-real-estate" d="M16.8527253,63.3809925 C17.5686481,63.3809925 18.148927,62.7981268 18.148927,62.0786754 L18.148927,60.342152 C18.148927,59.6227006 17.5684979,59.0398349 16.8527253,59.0398349 C16.1369528,59.0398349 15.5565236,59.6227006 15.5565236,60.342152 L15.5565236,62.0786754 C15.5565236,62.7981268 16.1368026,63.3809925 16.8527253,63.3809925 Z" id="Shape"></path>
                        <path class="Business-real-estate" d="M22.0376824,63.3809925 C22.7536052,63.3809925 23.3338841,62.7981268 23.3338841,62.0786754 L23.3338841,60.342152 C23.3338841,59.6227006 22.7534549,59.0398349 22.0376824,59.0398349 C21.3219099,59.0398349 20.7414807,59.6227006 20.7414807,60.342152 L20.7414807,62.0786754 C20.7414807,62.7981268 21.3217597,63.3809925 22.0376824,63.3809925 Z" id="Shape"></path>
                        <path class="Business-real-estate" d="M58.3322318,42.5434659 C59.0481545,42.5434659 59.6284335,41.9606001 59.6284335,41.2411488 L59.6284335,39.5046254 C59.6284335,38.785174 59.0480043,38.2023082 58.3322318,38.2023082 C57.6164592,38.2023082 57.03603,38.785174 57.03603,39.5046254 L57.03603,41.2411488 C57.03603,41.9604492 57.616309,42.5434659 58.3322318,42.5434659 Z" id="Shape"></path>
                        <path class="Business-real-estate" d="M58.3322318,51.2257812 C59.0481545,51.2257812 59.6284335,50.6429155 59.6284335,49.9234641 L59.6284335,48.1869407 C59.6284335,47.4674893 59.0480043,46.8846236 58.3322318,46.8846236 C57.6164592,46.8846236 57.03603,47.4674893 57.03603,48.1869407 L57.03603,49.9234641 C57.03603,50.6427646 57.616309,51.2257812 58.3322318,51.2257812 Z" id="Shape"></path>
                        <path class="Business-real-estate" d="M58.3322318,59.9080966 C59.0481545,59.9080966 59.6284335,59.3252308 59.6284335,58.6057795 L59.6284335,56.869256 C59.6284335,56.1498047 59.0480043,55.5669389 58.3322318,55.5669389 C57.6164592,55.5669389 57.03603,56.1498047 57.03603,56.869256 L57.03603,58.6057795 C57.03603,59.3250799 57.616309,59.9080966 58.3322318,59.9080966 Z" id="Shape"></path>
                        <path class="Business-real-estate" d="M58.3322318,68.5904119 C59.0481545,68.5904119 59.6284335,68.0075462 59.6284335,67.2880948 L59.6284335,65.5515714 C59.6284335,64.83212 59.0480043,64.2492543 58.3322318,64.2492543 C57.6164592,64.2492543 57.03603,64.83212 57.03603,65.5515714 L57.03603,67.2880948 C57.03603,68.0073952 57.616309,68.5904119 58.3322318,68.5904119 Z" id="Shape"></path>
                        <path class="Business-real-estate" d="M35.4320172,20.4034712 C35.4320172,19.6840199 34.851588,19.1011541 34.1358155,19.1011541 L23.7659013,19.1011541 C23.0499785,19.1011541 22.4696996,19.6840199 22.4696996,20.4034712 C22.4696996,21.1229226 23.0501288,21.7057884 23.7659013,21.7057884 L34.1358155,21.7057884 C34.8517382,21.7057884 35.4320172,21.1229226 35.4320172,20.4034712 Z" id="Shape"></path>
                    </g>
                </g>
                <path d="M11.669413,20.507125 C12.9094828,20.507125 13.9147414,19.5018393 13.9147414,18.2617695 C13.9147414,17.1965308 13.1726671,16.3051721 12.177437,16.0748722 C12.1570812,13.8209559 10.32395,12 8.06522325,12 C6.51449055,12 5.16446169,12.8583928 4.46375119,14.12583 C4.25054583,14.0335634 4.01554433,13.9821984 3.76847614,13.9821984 C2.87842188,13.9821984 2.14384855,14.6458935 2.03138918,15.5052647 C0.873231552,15.7349123 0,16.7562869 0,17.9818712 C0,19.3765523 1.13059991,20.507125 2.52522661,20.507125 C2.91369792,20.507125 11.4032664,20.507125 11.669413,20.507125 Z" id="Shape-Copy-4" fill-opacity="0.1" fill="#000000" fill-rule="nonzero"></path>
                <path d="M98.669413,38.507125 C99.9094828,38.507125 100.914741,37.5018393 100.914741,36.2617695 C100.914741,35.1965308 100.172667,34.3051721 99.177437,34.0748722 C99.1570812,31.8209559 97.32395,30 95.0652233,30 C93.5144906,30 92.1644617,30.8583928 91.4637512,32.12583 C91.2505458,32.0335634 91.0155443,31.9821984 90.7684761,31.9821984 C89.8784219,31.9821984 89.1438485,32.6458935 89.0313892,33.5052647 C87.8732316,33.7349123 87,34.7562869 87,35.9818712 C87,37.3765523 88.1305999,38.507125 89.5252266,38.507125 C89.9136979,38.507125 98.4032664,38.507125 98.669413,38.507125 Z" id="Shape-Copy-5" fill-opacity="0.1" fill="#000000" fill-rule="nonzero"></path>
            </g>
        </g>
    </g>
</svg>