<?xml version="1.0" encoding="UTF-8"?>
<svg id="vehicleSVG" alt="כלי רכב" xmlns="http://www.w3.org/2000/svg" width="130" height="100" viewBox="0 0 130 100">
  <title>כלי רכב</title>
  <g fill="none" fill-rule="evenodd" transform="translate(0 32)">
    <path class="vehicle1" fill="#E5E5E5" d="M2,54.5566753 L128,54.5566753 C129.104569,54.5566753 130,55.4521058 130,56.5566753 C130,57.6612448 129.104569,58.5566753 128,58.5566753 L2,58.5566753 C0.8954305,58.5566753 1.3527075e-16,57.6612448 0,56.5566753 C-1.3527075e-16,55.4521058 0.8954305,54.5566753 2,54.5566753 Z"/>
    <g fill-rule="nonzero" transform="translate(5.072)">
      <circle class="vehicle1" cx="19.902" cy="42.996" r="9.5" fill="#E5E5E5"/>
      <circle class="vehicle1" cx="97.902" cy="42.996" r="9.5" fill="#E5E5E5"/>
      <circle cx="19.902" cy="43.996" r="2.5" fill="#FFF"/>
      <circle cx="97.902" cy="43.996" r="2.5" fill="#FFF"/>
      <path class="vehicle" fill="#7F7F7F" d="M101.518294,18.2809414 C100.788461,17.8772034 100.06834,17.4351137 99.3782819,16.9665266 L88.2214979,9.39103465 C84.8354966,7.0917966 80.8857014,5.87663117 76.7994671,5.87663117 L56.3218138,5.87663117 C50.8862203,5.87663117 45.7718367,8.00038147 41.9205551,11.8564631 C39.9410324,13.8388934 37.6858566,15.4970783 35.2176971,16.785228 C33.7580304,17.547147 32.8512887,19.0465793 32.8512887,20.6984884 C32.8512887,23.1311436 34.8201738,25.1100875 37.240464,25.1100875 L57.0968382,25.1100875 C58.0283239,25.1100875 58.0283239,21.7193389 57.0968382,21.7193389 L37.240464,21.7193389 C36.6803701,21.7193389 36.2245711,21.2612113 36.2245711,20.698256 C36.2245711,20.3168316 36.4343173,19.9705048 36.7721774,19.7943198 C39.5451279,18.3471851 42.0785007,16.4844583 44.3013011,14.258437 C47.5157129,11.0396897 51.7846368,9.26714728 56.3215825,9.26714728 L60.9061663,9.26714728 L60.9061663,21.7193389 L55.3024521,21.7193389 C54.3709665,21.7193389 54.3709665,25.1100875 55.3024521,25.1100875 L101.552519,25.1100875 C102.93911,25.1100875 104.067161,23.976274 104.067161,22.5825992 C104.067161,20.7979702 103.090349,19.1495476 101.518294,18.2809414 Z M64.2801424,9.26737971 L76.7996983,9.26737971 C80.2104436,9.26737971 83.5071814,10.2817221 86.33332,12.200698 L97.4901041,19.7761899 C98.2648004,20.3021883 99.0730284,20.7986675 99.8930503,21.251914 C100.10534,21.3692932 100.283174,21.5306024 100.416838,21.7195714 L64.2801424,21.7195714 L64.2801424,9.26737971 Z" transform="matrix(-1 0 0 1 136.918 0)"/>
      <path class="vehicle" fill="#7F7F7F" d="M73.6692312,27.6873167 L68.4591091,27.6873167 C67.5276234,27.6873167 66.7723522,28.4464464 66.7723522,29.382691 C66.7723522,30.3189355 67.5276234,31.0780652 68.4591091,31.0780652 L73.6692312,31.0780652 C74.6007169,31.0780652 75.355988,30.3189355 75.355988,29.382691 C75.355988,28.4464464 74.6007169,27.6873167 73.6692312,27.6873167 Z" transform="matrix(-1 0 0 1 142.128 0)"/>
      <path class="vehicle" fill="#7F7F7F" d="M116.946546,26.2643552 L116.41374,25.3755272 C114.405773,22.0263844 111.065791,19.6681081 107.250353,18.9052594 L102.895635,18.0347937 L94.0943902,16.2759649 L91.8558645,15.8285293 C88.7663291,15.2109519 85.7542634,13.3368358 83.7571655,11.9805829 L72.6006127,4.40532336 C68.3559704,1.52337304 63.4050824,-2.48689958e-14 58.2828363,-2.48689958e-14 L37.8054142,-2.48689958e-14 C30.9915549,-2.48689958e-14 24.5805378,2.66206766 19.7536012,7.49553462 C16.6992163,10.5541349 12.8544097,12.6402308 8.63474264,13.5285939 L6.21306491,14.0383219 C2.61292368,14.796057 7.81597009e-14,18.0296801 7.81597009e-14,21.7267768 L7.81597009e-14,38.1459211 C7.81597009e-14,40.1044108 1.15048193,41.8841586 2.93135857,42.6795481 L9.64971052,45.6807371 C10.0560214,47.8161091 11.0795456,49.8552534 12.7209769,51.5050706 C14.9023832,53.6976214 17.7678347,54.794013 20.6335176,54.794013 C23.4992004,54.794013 26.3644207,53.6976214 28.5460582,51.5050706 C29.949068,50.094893 30.8981289,48.3997511 31.3987909,46.6037329 L87.4165074,46.6037329 C87.9171694,48.3997511 88.8664615,50.094893 90.2694714,51.5050706 C92.3831206,53.6292858 95.1928402,54.799359 98.182012,54.799359 C101.170952,54.799359 103.981135,53.6295182 106.094784,51.5050706 C107.497794,50.094893 108.446855,48.3997511 108.947517,46.6037329 L112.147359,46.6037329 C115.59603,46.6037329 118.401819,43.7836101 118.401819,40.3173204 L118.401819,31.5238738 C118.401819,29.6704444 117.89815,27.85188 116.946546,26.2643552 Z M26.1604559,49.1077454 C24.684139,50.5916046 22.7212665,51.4088429 20.6332863,51.4088429 C18.5453061,51.4088429 16.5824337,50.5916046 15.1061168,49.1077454 C12.7378584,46.7273878 12.2110649,43.187649 13.5231924,40.2901256 C13.53383,40.2668822 13.5440051,40.2434064 13.5546427,40.220163 C13.5946494,40.1341624 13.6369687,40.0490915 13.6802129,39.9644855 C13.7005632,39.9245068 13.7209134,39.8847606 13.7421886,39.8452468 C13.7812703,39.7717976 13.8219708,39.6988133 13.8635963,39.6262939 C13.8922716,39.5763205 13.9216407,39.5268121 13.9514723,39.4775361 C13.9900915,39.4136167 14.0291732,39.3499297 14.0698736,39.2869401 C14.1066428,39.2299937 14.1445682,39.1737447 14.1829562,39.1177281 C14.2208816,39.0621763 14.2585758,39.0063921 14.2978888,38.9517701 C14.342983,38.8892454 14.3899273,38.8278828 14.4371028,38.7665202 C14.473872,38.7186387 14.5097162,38.6702924 14.5476416,38.6231083 C14.6031422,38.5540754 14.6611867,38.4866695 14.7189998,38.4192636 C14.752069,38.380912 14.7837506,38.3416306 14.8175135,38.3037439 C14.9035394,38.2077486 14.9921092,38.1136128 15.0832227,38.0213365 C15.1234607,37.9797308 15.1417297,37.9634604 15.1593049,37.9462603 C15.2365433,37.8700219 15.3142441,37.7947132 15.3935638,37.7224262 C15.4141453,37.7035991 15.435883,37.6861665 15.4566958,37.6675718 C15.5357842,37.5971442 15.6153351,37.5271816 15.696736,37.460473 C18.579069,35.1166076 22.702535,35.1193968 25.5580427,37.4514081 C25.6554001,37.5306681 25.7407323,37.6055119 25.825602,37.6812854 C25.8408647,37.6947666 25.8565899,37.7075504 25.8716213,37.721264 C25.9696724,37.8102863 26.0658735,37.9020978 26.1602246,37.9969309 C26.2619758,38.0992019 26.3600269,38.2044945 26.455303,38.3111818 C26.4971597,38.3581335 26.5367039,38.4062473 26.5771731,38.4538963 C26.6266612,38.5120048 26.6763805,38.5703458 26.7240186,38.6296165 C26.7774379,38.6963251 26.8290073,38.7641958 26.8798829,38.8320666 C26.9085582,38.8699533 26.9370023,38.9080725 26.9647526,38.9464242 C27.026497,39.0319599 27.0866227,39.1184254 27.1446671,39.206053 C27.154611,39.2209288 27.1643236,39.236037 27.1740362,39.2509128 C29.1581839,42.2969616 28.8205551,46.4338236 26.1604559,49.1077454 Z M103.70895,49.1077454 C102.232402,50.5916046 100.26953,51.4088429 98.1815495,51.4088429 C96.0935693,51.4088429 94.1309281,50.5916046 92.6546112,49.1077454 C89.9940494,46.4338236 89.6564206,42.2962643 91.6407996,39.2504479 C91.6502809,39.2358046 91.6597623,39.2211612 91.6694749,39.2067503 C91.7275193,39.1188902 91.7878762,39.0321923 91.849852,38.9461917 C91.877371,38.9080725 91.9055838,38.8704182 91.9340279,38.8329963 C91.9851348,38.7646607 92.0369353,38.6965575 92.0908172,38.629384 C92.138224,38.5705782 92.1872496,38.5129346 92.2365064,38.4552909 C92.2774381,38.4071771 92.3174448,38.3583659 92.359764,38.3111818 C92.4550401,38.2044945 92.5530913,38.0994343 92.6548424,37.9971633 C94.1311593,36.5133041 96.0938006,35.6960658 98.1817807,35.6960658 C100.269761,35.6960658 102.232633,36.5133041 103.70895,37.9971633 C103.810701,38.0994343 103.908753,38.204727 104.004029,38.3114142 C104.046117,38.3583659 104.085661,38.4067122 104.126361,38.4545936 C104.175849,38.5124697 104.225337,38.5705782 104.272744,38.6296165 C104.326395,38.6965575 104.377964,38.7644283 104.429071,38.8325314 C104.457515,38.8704182 104.485959,38.908305 104.513709,38.9466566 C104.575454,39.0324248 104.635811,39.1186578 104.693624,39.2062855 C104.703568,39.2211612 104.713281,39.236037 104.722993,39.2509128 C106.706678,42.2967292 106.369049,46.434056 103.70895,49.1077454 Z M112.146897,43.2134492 L109.370015,43.2134492 C109.303877,40.7542965 108.440379,38.4083392 106.886362,36.4849471 C106.759173,36.3275892 106.659503,36.2120695 106.558214,36.097247 C106.374368,35.8896834 106.263367,35.7732339 106.150516,35.6584115 C104.64113,34.1387574 102.858866,33.1292961 100.91565,32.6411845 C100.032264,32.41921 99.1158102,32.3050848 98.1815495,32.3050848 C97.4343722,32.3050848 96.698295,32.3783016 95.9814118,32.5210161 C93.8309934,32.9496246 91.8542458,34.0060375 90.2690088,35.5991408 C90.1006569,35.7730015 89.9891931,35.8896834 89.8816607,36.0089221 C89.7054461,36.2104424 89.60462,36.3271244 89.5077251,36.4461306 C87.924107,38.4060149 87.0596846,40.7533668 86.9933151,43.2134492 L31.8215207,43.2134492 C31.7551512,40.7503451 30.8888788,38.400204 29.3297734,36.4749524 C29.206747,36.3227081 29.1010645,36.2002153 28.9935321,36.0788847 C28.8089924,35.8715535 28.679491,35.7339526 28.5455957,35.5993732 C28.0003019,35.0512936 27.4119952,34.5715497 26.7920068,34.1603737 C24.931348,32.9270785 22.7823172,32.3104308 20.6332863,32.3104308 C17.7678347,32.3104308 14.9021519,33.4068224 12.7207457,35.5993732 C12.5961005,35.7246552 12.4756179,35.8531912 12.357679,35.9833543 C12.3227599,36.0219384 12.2892282,36.0612198 12.2547716,36.1000363 C12.1715207,36.1946369 12.0896572,36.2901673 12.009875,36.3868599 C11.9744934,36.4298602 11.9391117,36.473093 11.9044238,36.5167906 C11.8218666,36.6202238 11.7413907,36.7248191 11.6627648,36.8305766 C11.3778616,37.2199037 11.1817593,37.5197437 11.0004572,37.827254 C10.8968561,38.0046012 10.8119863,38.1580077 10.7308166,38.3130412 C10.1355723,39.451271 9.7401303,40.667831 9.55882823,41.9297157 L4.30176177,39.5812017 C3.73796781,39.3292431 3.37374489,38.7658229 3.37374489,38.1459211 L3.37374489,21.7267768 C3.37374489,19.6253402 4.85908065,17.7874838 6.90543534,17.356551 L9.32711307,16.846823 C14.1880437,15.8234157 18.6169945,13.4202796 22.1352723,9.8972761 C26.3255703,5.70114343 31.8908965,3.39028368 37.806108,3.39028368 L58.28353,3.39028368 C62.7302872,3.39028368 67.0281177,4.71283367 70.7128974,7.21452181 L81.8694501,14.7897813 C84.108207,16.3101327 87.5110898,18.4164505 91.1984132,19.1537314 L106.592902,22.2306939 C109.479398,22.8078278 112.005833,24.5917594 113.524931,27.1252911 L114.057738,28.014119 C114.692989,29.0733212 115.028536,30.287092 115.028536,31.5238738 L115.028536,40.3173204 C115.028536,41.9141426 113.735603,43.2134492 112.146897,43.2134492 Z" transform="matrix(-1 0 0 1 118.402 0)"/>
      <path class="vehicle" fill="#7F7F7F" d="M101.391914,39.9128851 C100.424353,38.9406133 99.1385886,38.4053176 97.7707291,38.4053176 C96.4028697,38.4053176 95.1168737,38.9408457 94.1497752,39.9128851 C93.1826766,40.8849245 92.6498705,42.1774905 92.6498705,43.5523381 C92.6498705,44.9271858 93.1826766,46.2197518 94.1497752,47.1917912 C95.1168737,48.1638305 96.4028697,48.6993587 97.7709604,48.6993587 C99.1388198,48.6993587 100.424816,48.164063 101.391914,47.1917912 C103.38855,45.1849552 103.38855,41.9197211 101.391914,39.9128851 Z M99.006312,44.7942335 C98.6763145,45.1259169 98.237397,45.3086101 97.7707291,45.3086101 C97.30383,45.3086101 96.8651438,45.1259169 96.5351462,44.7940011 C96.2051487,44.4623176 96.0231529,44.0213901 96.0231529,43.5521057 C96.0231529,43.0828213 96.2049175,42.6418938 96.5351462,42.3102103 C96.8651438,41.9785269 97.30383,41.7956013 97.7707291,41.7956013 C98.237397,41.7956013 98.6763145,41.9782945 99.006312,42.3102103 C99.6875823,42.9951936 99.6875823,44.1094827 99.006312,44.7942335 Z" transform="matrix(-1 0 0 1 195.54 0)"/>
      <path class="vehicle" fill="#7F7F7F" d="M23.839084,39.9131175 C22.8719854,38.9408457 21.5859894,38.4053176 20.2178987,38.4053176 C18.8500393,38.4053176 17.5642746,38.9406133 16.5967135,39.9128851 C14.6003094,41.9197211 14.6003094,45.1849552 16.5967135,47.1917912 C17.5640433,48.164063 18.8500393,48.6993587 20.2178987,48.6993587 C21.5859894,48.6993587 22.8717541,48.164063 23.8388527,47.1920236 C24.8061825,46.2199842 25.3387574,44.9274182 25.3387574,43.5525706 C25.3387574,42.1777229 24.8061825,40.8851569 23.839084,39.9131175 Z M21.4534816,44.7944659 C21.1234841,45.1261494 20.6847978,45.3088426 20.2178987,45.3088426 C19.7512309,45.3088426 19.3123134,45.1261494 18.9823158,44.7944659 C18.3010455,44.1097151 18.3010455,42.995426 18.9823158,42.3106752 C19.3123134,41.9789918 19.7512309,41.7960661 20.2178987,41.7960661 C20.6847978,41.7960661 21.1234841,41.9787593 21.4537129,42.3106752 C21.7837104,42.6423587 21.965475,43.0832861 21.965475,43.5525706 C21.965475,44.0213901 21.7839417,44.46255 21.4534816,44.7944659 Z" transform="matrix(-1 0 0 1 40.438 0)"/>
    </g>
  </g>
</svg>
