<?xml version="1.0" encoding="UTF-8"?>
<svg id="drushimSVG" alt="דרושים" xmlns="http://www.w3.org/2000/svg" width="130" height="100" viewBox="0 0 130 100">
  <title>דרושים</title>
  <g fill="none" fill-rule="evenodd" transform="translate(17 26)">
    <path class="drushim1" fill="#E5E5E5" d="M2,53 L94,53 C95.1045695,53 96,53.8954305 96,55 C96,56.1045695 95.1045695,57 94,57 L2,57 C0.8954305,57 1.3527075e-16,56.1045695 0,55 C-1.3527075e-16,53.8954305 0.8954305,53 2,53 Z" transform="matrix(-1 0 0 1 96 0)"/>
    <g fill-rule="nonzero" transform="translate(8)">
      <rect class="drushim1" width="9.9" height="9" x="24.3" y="27" fill="#E5E5E5"/>
      <path class="drushim" fill="#7F7F7F" d="M54.18,10.08 L42.84,10.08 L42.84,3.78 C42.84,1.69596 41.14404,0 39.06,0 L18.9,0 C16.81596,0 15.12,1.69596 15.12,3.78 L15.12,10.08 L3.78,10.08 C1.69596,10.08 0,11.77596 0,13.86 L0,50.4 C0,52.48404 1.69596,54.18 3.78,54.18 L54.18,54.18 C56.26404,54.18 57.96,52.48404 57.96,50.4 L57.96,13.86 C57.96,11.77596 56.26404,10.08 54.18,10.08 Z M17.64,3.78 C17.64,3.08448 18.20448,2.52 18.9,2.52 L39.06,2.52 C39.75426,2.52 40.32,3.08448 40.32,3.78 L40.32,10.08 L17.64,10.08 L17.64,3.78 Z M55.44,50.4 C55.44,51.09552 54.87426,51.66 54.18,51.66 L3.78,51.66 C3.08574,51.66 2.52,51.09552 2.52,50.4 L2.52,28.53144 C4.60026,31.10688 7.77924,32.76 11.34,32.76 L22.68,32.76 L22.68,36.54 C22.68,37.23678 23.24448,37.8 23.94,37.8 L34.02,37.8 C34.71552,37.8 35.28,37.23678 35.28,36.54 L35.28,32.76 L46.62,32.76 C50.18076,32.76 53.35974,31.10688 55.44,28.53144 L55.44,50.4 Z M25.2,35.28 L25.2,27.72 L32.76,27.72 L32.76,35.28 L25.2,35.28 Z M55.44,21.42 C55.44,26.28234 51.4836,30.24 46.62,30.24 L35.28,30.24 L35.28,26.46 C35.28,25.76322 34.71552,25.2 34.02,25.2 L23.94,25.2 C23.24448,25.2 22.68,25.76322 22.68,26.46 L22.68,30.24 L11.34,30.24 C6.4764,30.24 2.52,26.28234 2.52,21.42 L2.52,13.86 C2.52,13.16448 3.08574,12.6 3.78,12.6 L54.18,12.6 C54.87426,12.6 55.44,13.16448 55.44,13.86 L55.44,21.42 Z"/>
    </g>
    <g fill-rule="nonzero" transform="translate(51 16)">
      <circle class="drushim1" cx="15.12" cy="14.175" r="13.23" fill="#E5E5E5"/>
      <path fill="#FFF" d="M14.69664,22.0450365 C10.6447304,22.0450365 7.34832,18.7486261 7.34832,14.6967165 C7.34832,10.644807 10.6447304,7.34839655 14.69664,7.34839655 C18.7485496,7.34839655 22.04496,10.644807 22.04496,14.6967165 C22.04496,18.7486261 18.7485496,22.0450365 14.69664,22.0450365 Z"/>
      <path class="drushim" fill="#7F7F7F" d="M37.9352427,31.8739504 L27.6716299,21.6096486 C28.7956932,19.5054265 29.39328,17.1445491 29.39328,14.6967165 C29.39328,10.8298162 27.9036378,7.17869628 25.198614,4.41595759 C22.4978768,1.65758197 18.8874788,0.09078237 15.0328256,0.004209975 C14.9210699,0.00168399 14.8093142,7.6545e-05 14.69664,7.6545e-05 C6.5928974,7.6545e-05 0,6.59297394 0,14.6967165 C0,22.8004592 6.5928974,29.3933565 14.69664,29.3933565 C14.8083192,29.3933565 14.9209169,29.3917491 15.0316775,29.3892231 C17.362932,29.3371725 19.6043992,28.7428771 21.6096486,27.6718595 L31.8731849,37.9346304 C32.6822656,38.7447827 33.7587944,39.19104 34.9044435,39.19104 C36.0500925,39.19104 37.1266214,38.7447827 37.9347835,37.9354724 C38.7449357,37.1258559 39.1911165,36.0494801 39.1911165,34.90452 C39.1911165,33.7595599 38.7450888,32.6832606 37.9352427,31.8739504 Z M14.9769478,26.9403955 C14.8842518,26.9424622 14.7901014,26.9439165 14.69664,26.9439165 C7.94353392,26.9439165 2.44944,21.4498226 2.44944,14.6967165 C2.44944,7.94361047 7.94353392,2.44951655 14.69664,2.44951655 C14.7907138,2.44951655 14.8840987,2.4509709 14.9776367,2.45303762 C21.5758157,2.60115219 26.94384,8.09363867 26.94384,14.6967165 C26.94384,21.3005599 21.5755095,26.7930464 14.9769478,26.9403955 Z M36.2025701,36.2038714 C35.856204,36.5506968 35.39525,36.7416765 34.90452,36.7416765 C34.41379,36.7416765 33.9527595,36.5506968 33.6058575,36.203259 L23.7090483,26.3072152 C24.2305494,25.9009909 24.7285512,25.458025 25.1984609,24.9780113 C25.5945047,24.573471 25.9637578,24.1494117 26.3068325,23.7088952 L36.2034121,33.6061637 C36.5505437,33.9530657 36.7416765,34.4141727 36.7416765,34.90452 C36.7416765,35.3948673 36.5506202,35.8560509 36.2025701,36.2038714 L36.2025701,36.2038714 Z"/>
      <path class="drushim" fill="#7F7F7F" d="M14.69664,4.89895654 C9.2940939,4.89895654 4.89888,9.29417045 4.89888,14.6967165 C4.89888,20.0992626 9.2940939,24.4944765 14.69664,24.4944765 C20.0991861,24.4944765 24.4944,20.0992626 24.4944,14.6967165 C24.4944,9.29417045 20.0991861,4.89895654 14.69664,4.89895654 Z M14.69664,22.0450365 C10.6447304,22.0450365 7.34832,18.7486261 7.34832,14.6967165 C7.34832,10.644807 10.6447304,7.34839654 14.69664,7.34839654 C18.7485496,7.34839654 22.04496,10.644807 22.04496,14.6967165 C22.04496,18.7486261 18.7485496,22.0450365 14.69664,22.0450365 Z"/>
    </g>
  </g>
</svg>
