<?xml version="1.0" encoding="UTF-8"?>
<svg id="fashionSVG" alt="אופנה" xmlns="http://www.w3.org/2000/svg" xmlns:xlink="http://www.w3.org/1999/xlink" width="130" height="100" viewBox="0 0 130 100">
  <title>אופנה</title>
  <defs>
    <path id="fashion_default-a" d="M6.44358713,3 L47.5564129,3 C47.8095134,3 48.0226956,3.18912972 48.0528513,3.44042739 L50.9328513,27.4404274 C50.9657523,27.7146028 50.7701608,27.9635374 50.4959855,27.9964384 C50.4762166,27.9988107 50.4563236,28 50.4364129,28 L3.56358713,28 C3.28744476,28 3.06358713,27.7761424 3.06358713,27.5 C3.06358713,27.4800893 3.06477644,27.4601963 3.06714871,27.4404274 L5.94714871,3.44042739 C5.97730443,3.18912972 6.19048659,3 6.44358713,3 Z"/>
  </defs>
  <g fill="none" fill-rule="evenodd" transform="translate(15 30)">
    <path fill="#000" fill-opacity=".1" d="M2,49 L99,49 C100.104569,49 101,49.8954305 101,51 C101,52.1045695 100.104569,53 99,53 L2,53 C0.8954305,53 1.3527075e-16,52.1045695 0,51 C-1.3527075e-16,49.8954305 0.8954305,49 2,49 Z"/>
    <g transform="translate(8)">
      <g transform="translate(0 20)">
        <path class="fashionClass" fill="#7F7F7F" fill-rule="nonzero" d="M47.5564129,0.5 L6.44358713,0.5 C4.92498387,0.5 3.64589094,1.63477833 3.46495662,3.14256434 L0.584956617,27.1425643 L0.570771854,27.2938107 C0.566584197,27.3495196 0.565727893,27.392514 0.563587132,27.5 C0.563587132,29.1568542 1.90673288,30.5 3.56358713,30.5 L50.4364129,30.5 L50.5882719,30.4960634 C50.644083,30.4935838 50.6868731,30.4893114 50.7938485,30.4786305 C52.4389007,30.2812243 53.6124496,28.7876165 53.4150434,27.1425643 L50.5350434,3.14256434 C50.3541091,1.63477833 49.0750161,0.5 47.5564129,0.5 Z M47.5564129,3 C47.8095134,3 48.0226956,3.18912972 48.0528513,3.44042739 L50.9328513,27.4404274 C50.9657523,27.7146028 50.7701608,27.9635374 50.4959855,27.9964384 L50.4364129,28 L3.56358713,28 C3.28744476,28 3.06358713,27.7761424 3.06358713,27.5 L3.06714871,27.4404274 L5.94714871,3.44042739 C5.97730443,3.18912972 6.19048659,3 6.44358713,3 L47.5564129,3 Z"/>
        <mask id="fashion_default-b" fill="#fff">
          <use xlink:href="#fashion_default-a"/>
        </mask>
        <path class="fashionClass1" fill="#E5E5E5" fill-rule="nonzero" d="M5,3 L50,3 L45.947156,9.36875492 C44.1115767,12.2532366 40.9295447,14 37.5105411,14 L16.936331,14 C13.2768888,14 9.90970695,12.0011294 8.15737526,8.78852131 L5,3 L5,3 Z" mask="url(#fashion_default-b)"/>
        <path class="fashionClass" fill="#7F7F7F" fill-rule="nonzero" d="M54.5541829,0.5 L0.788644526,0.5 L5.96263633,9.98565163 C8.15305094,14.0014118 12.3620282,16.5 16.936331,16.5 L37.5105411,16.5 C41.7842956,16.5 45.7618356,14.3165458 48.0563097,10.7109437 L54.5541829,0.5 Z M50,3 L45.947156,9.36875492 C44.1115767,12.2532366 40.9295447,14 37.5105411,14 L16.936331,14 C13.2768888,14 9.90970695,12.0011294 8.15737526,8.78852131 L5,3 L50,3 Z" mask="url(#fashion_default-b)"/>
        <circle cx="27" cy="15" r="2" fill="#FFF" fill-rule="nonzero" mask="url(#fashion_default-b)"/>
        <path class="fashionClass" fill="#7F7F7F" fill-rule="nonzero" d="M27,10.5 C24.5147186,10.5 22.5,12.5147186 22.5,15 C22.5,17.4852814 24.5147186,19.5 27,19.5 C29.4852814,19.5 31.5,17.4852814 31.5,15 C31.5,12.5147186 29.4852814,10.5 27,10.5 Z M27,13 C28.1045695,13 29,13.8954305 29,15 C29,16.1045695 28.1045695,17 27,17 C25.8954305,17 25,16.1045695 25,15 C25,13.8954305 25.8954305,13 27,13 Z" mask="url(#fashion_default-b)"/>
      </g>
      <path class="fashionClass" fill="#7F7F7F" fill-rule="nonzero" d="M9.27651172,22.2439211 C12.3866311,7.3844616 18.1015216,-0.116332151 26.5542965,0.251179802 C34.8419098,0.611510812 40.3292685,7.91505646 43.1257532,21.7514872 L43.2268632,22.2606121 L40.7731368,22.7393879 L40.5684018,21.7268344 C37.9524807,9.23784988 33.2099746,3.04291894 26.4457035,2.7488202 C19.7329635,2.45696194 14.8560663,8.63588152 11.9386208,21.7588303 L11.7234883,22.7560789 L9.27651172,22.2439211 Z"/>
    </g>
    <g transform="matrix(-1 0 0 1 99 13)">
      <path class="fashionClass2" fill="#FFF" d="M4.98787256,6.14371096 C5.66146631,5.0134375 6.50275535,3.99707029 7.49451314,3.11464846 C12.1643178,6.97726558 16.2920131,11.448086 19.7724819,16.4128515 L25.7504506,24.942461 C26.9471694,27.1270703 29.8250601,28.7069922 32.6199819,28.7069922 C34.3925601,28.7069922 36.3781851,28.0759375 37.6325601,27.1400781 C40.3571694,27.6586328 42.3892006,29.3064063 43.3806069,30.2710938 C44.9433022,31.79125 45.7606851,33.3514844 45.7606851,34.1073438 C45.7606851,34.8790235 44.3038101,35.2917578 43.0810756,35.5023438 C41.1274428,35.8384375 38.4214663,35.9073438 34.9599819,35.9073438 L27.5993178,35.9073438 C25.822521,35.9073438 24.1983022,34.8252344 23.4617788,33.150039 C19.5643569,24.2889063 12.3611928,17.2295313 3.37631006,13.4998047 C3.04970852,11.284961 3.54189602,8.57125 4.98787256,6.14371096 Z"/>
      <path class="fashionClass" fill="#7F7F7F" fill-rule="nonzero" d="M7.82297499,0.93440317 C12.6578848,4.84553309 16.9457398,9.38136165 20.5782844,14.4259267 L21.0927498,15.1500271 L27.101997,23.7236723 L27.1442147,23.7883373 L27.1832359,23.8562284 C27.9809518,25.3508588 30.1247229,26.5066406 32.1389453,26.5066406 C33.5617926,26.5066406 35.2146231,25.9539917 36.0283834,25.2194274 C36.3163123,24.9599357 36.7047601,24.8422985 37.0884379,24.8986322 C40.0029709,25.3272841 42.4844016,26.797242 44.4335211,28.6941016 C46.280533,30.4903251 47.48,32.5923686 47.48,34.1073438 C47.48,35.5866295 46.5246886,36.5665888 44.9733944,37.1597962 C44.415387,37.3731756 43.9287117,37.496311 43.2679492,37.6181405 L42.9733914,37.6705325 C41.1403341,37.9860105 38.8147638,38.0992813 34.9337213,38.107239 L27.1182813,38.1076953 C24.4680496,38.1076953 22.0539694,36.508246 20.966821,34.0356555 C18.9233164,29.3896259 15.8694981,25.2014913 12.0673113,21.8165124 L11.559,21.373 L11.5323913,21.4321341 C10.903034,22.8464003 10.5259639,24.3776899 10.4248383,25.9228179 L10.404118,26.344482 L10.3971875,26.7663672 L10.3971875,36.8076953 C10.3971875,37.4805125 9.88537551,38.0343756 9.23005576,38.1009803 L9.0971875,38.1076953 L5.49683596,38.1076953 C4.82378027,38.1076953 4.27012587,37.5959688 4.2035482,36.9405796 L4.19683596,36.8076953 L4.19683596,25.6979688 C4.19683596,22.9845084 3.4202466,20.0916732 1.91384606,17.3899548 C1.46921848,16.5929567 1.13270031,15.7271455 0.912886014,14.8205021 L0.816977755,14.3876994 C0.220085731,11.4092193 0.861195255,7.96438768 2.61670753,5.01748368 C3.47090987,3.58421164 4.5539018,2.30857267 5.83939311,1.22046035 L6.19486582,0.928467386 C6.67176014,0.548069076 7.34881138,0.550604839 7.82297499,0.93440317 Z M4.463,16.642 L4.68212903,17.0720875 C4.90749074,17.5267613 5.11296051,17.9759188 5.31229635,18.459082 C6.12237485,20.422603 6.64321003,22.5153406 6.77055606,24.8095307 C6.78214801,25.0181857 6.78996398,25.2205729 6.79388663,25.4142621 L6.79683596,25.6979688 L6.796,35.507 L7.796,35.507 L7.79683596,26.7663672 C7.79683596,24.3270076 8.42861377,21.7397274 9.3656366,19.9470968 L9.485,19.728 L9.16971686,19.4966814 C7.75533818,18.4805291 6.26914539,17.5702179 4.72234483,16.7723672 L4.463,16.642 Z M7.025,3.646 L6.96429342,3.70343071 C6.1386961,4.48923978 5.43035124,5.37541787 4.85049008,6.34841036 C3.57554836,8.48881217 3.01915638,10.9539251 3.24827932,13.1045808 L3.263,13.221 L3.54167984,13.3391074 C12.2205724,17.0854026 19.2129156,23.9292256 23.1285681,32.5019602 L23.3469135,32.9890466 C23.9908384,34.4536301 25.3742094,35.420477 26.9082196,35.501782 L27.1182813,35.5073438 L35.3415995,35.5056354 L36.1840173,35.5000554 C39.1714176,35.472172 41.0631001,35.3608754 42.5321484,35.1081473 C43.9572338,34.8627113 44.8796485,34.4595959 44.8796485,34.1073438 C44.8796485,33.3935455 43.9869643,31.8869263 42.620617,30.5577731 C41.2116792,29.1868067 39.4615291,28.0820667 37.4557877,27.6133627 L37.238,27.567 L37.1478388,27.6326752 C35.8970548,28.4741596 34.1151901,29.0336472 32.4666737,29.1002961 L32.1389453,29.1069922 C29.299176,29.1069922 26.3833598,27.5584944 25.0679919,25.3908286 L24.941852,25.1720325 L18.9639117,16.6424637 C15.6768605,11.9536014 11.80925,7.70814863 7.45077596,4.00333599 L7.025,3.646 Z"/>
    </g>
  </g>
</svg>
