<?xml version="1.0" encoding="UTF-8"?>
<svg id="furnitureSVG" alt="ריהוט" xmlns="http://www.w3.org/2000/svg" width="130" height="100" viewBox="0 0 130 100">
  <title>ריהוט</title>
  <g fill="none" fill-rule="evenodd" transform="translate(23 12)">
    <path class="furnitureClass1" fill="#E5E5E5" d="M2,67 L83,67 C84.1045695,67 85,67.8954305 85,69 C85,70.1045695 84.1045695,71 83,71 L2,71 C0.8954305,71 1.3527075e-16,70.1045695 0,69 C-1.3527075e-16,67.8954305 0.8954305,67 2,67 Z" transform="matrix(-1 0 0 1 85 0)"/>
    <g fill="#7F7F7F" fill-rule="nonzero" transform="translate(4)">
      <path class="furnitureClass" d="M46,0.75 L4,0.75 C2.20507456,0.75 0.75,2.20507456 0.75,4 L0.75,65 C0.75,66.7949254 2.20507456,68.25 4,68.25 L46,68.25 C47.7949254,68.25 49.25,66.7949254 49.25,65 L49.25,4 C49.25,2.20507456 47.7949254,0.75 46,0.75 Z M4,3.25 L46,3.25 C46.4142136,3.25 46.75,3.58578644 46.75,4 L46.75,65 C46.75,65.4142136 46.4142136,65.75 46,65.75 L4,65.75 C3.58578644,65.75 3.25,65.4142136 3.25,65 L3.25,4 C3.25,3.58578644 3.58578644,3.25 4,3.25 Z"/>
      <rect class="furnitureClass" width="45" height="2.5" x="3" y="44"/>
      <rect class="furnitureClass" width="45" height="2.5" x="3" y="55"/>
      <polygon class="furnitureClass" points="24 2 26.5 2 26.5 46 24 46"/>
      <circle class="furnitureClass" cx="24.5" cy="50.5" r="1.5"/>
      <circle class="furnitureClass" cx="24.5" cy="61.5" r="1.5"/>
      <rect class="furnitureClass" width="2.5" height="7" x="18" y="22" rx="1.25"/>
      <rect class="furnitureClass" width="2.5" height="7" x="30" y="22" rx="1.25"/>
    </g>
    <g transform="translate(43 28)">
      <path fill="#FFF" d="M36.3883558,19.6862543 C36.0439295,19.8863385 35.831773,20.2549092 35.831773,20.654028 L35.831773,31.352867 C35.831773,32.5873848 34.8268378,33.59232 33.59232,33.59232 L6.718464,33.59232 C5.48394624,33.59232 4.47901099,32.5873848 4.47901099,31.352867 L4.47901099,20.654028 C4.47901099,20.255959 4.2668545,19.8874932 3.92242824,19.6862543 C2.86825925,19.0728795 2.23945301,17.9924665 2.23945301,16.79616 C2.23945301,15.8098055 2.67142925,14.875939 3.42368726,14.2363202 C4.18696776,13.5867288 5.16565901,13.3199847 6.17059426,13.4839572 C7.75940602,13.7419883 8.95791701,15.269599 8.95791701,17.0356103 L8.95791701,22.6011228 C7.65736934,23.0649068 6.718464,24.2961703 6.718464,25.754077 C6.718464,27.6064835 8.2252895,29.113309 10.077696,29.113309 L30.233088,29.113309 C32.0854945,29.113309 33.59232,27.6064835 33.59232,25.754077 C33.59232,24.2961703 32.6534147,23.0649068 31.352867,22.6011228 L31.352867,16.79616 C31.352867,15.7791525 31.8056285,14.8289098 32.5962027,14.1870865 C33.3976945,13.5364452 34.4114477,13.296995 35.45134,13.5146102 C36.662973,13.7683372 37.673367,14.7426195 37.9653052,15.9377712 C38.333771,17.443547 37.7148325,18.9142608 36.3883558,19.6862543 Z"/>
      <path fill="#FFF" d="M19.035613,2.23945301 L21.275066,2.23945301 C26.9455546,2.23945301 31.7471568,6.0627839 33.146277,11.4473179 C32.4404184,11.6530708 31.768362,11.9746123 31.1843805,12.448369 C29.8677715,13.5177595 29.113309,15.1022673 29.113309,16.79616 L29.113309,22.394845 L11.197475,22.394845 L11.197475,17.0356103 C11.197475,14.4185586 9.49980312,12.13785 7.16555678,11.4411243 C8.56593662,6.06068438 13.3677488,2.23945301 19.035613,2.23945301 Z"/>
      <path class="furnitureClass1" fill="#E5E5E5" d="M8.95791701 36.951552C8.95791701 37.5693358 8.45602675 38.071331 7.83813802 38.071331 7.22035426 38.071331 6.718464 37.5693358 6.718464 36.951552L6.718464 35.831773 8.95791701 35.831773 8.95791701 36.951552zM33.59232 36.951552C33.59232 37.5693358 33.0904297 38.071331 32.472541 38.071331 31.8547572 38.071331 31.352762 37.5694407 31.352762 36.951552L31.352762 35.831773 33.59232 35.831773 33.59232 36.951552zM31.352867 25.754077C31.352867 26.3718608 30.8509767 26.873856 30.233088 26.873856L10.077696 26.873856C9.45991224 26.873856 8.95791701 26.3719657 8.95791701 25.754077 8.95791701 25.1362932 9.45980726 24.634298 10.077696 24.634298L30.233088 24.634298C30.8508718 24.634403 31.352867 25.1362932 31.352867 25.754077z"/>
      <path class="furnitureClass"  fill="#7F7F7F" fill-rule="nonzero" d="M40.144607,15.4062778 C39.6514297,13.3909485 37.9508185,11.7496488 35.9135493,11.3231313 C35.7453778,11.2878593 35.5777311,11.2940529 35.4092446,11.2738975 C33.8934961,4.70208499 28.115932,0 21.2768506,0 L19.0371876,0 C12.1993659,0 6.42085704,4.70302978 4.90437374,11.2741075 C3.83277874,11.4099464 2.80894781,11.8197727 1.97291894,12.5303553 C0.71961048,13.5965965 0,15.151501 0,16.79616 C0,18.5468448 0.844216992,20.2002168 2.23966296,21.2521812 L2.23966296,31.352867 C2.23966296,33.0036146 3.14697053,34.432128 4.47932592,35.2089504 L4.47932592,36.951552 C4.47932592,38.8039585 5.9862564,40.310784 7.83887285,40.310784 C9.6914893,40.310784 11.1984198,38.8039585 11.1984198,36.951552 L11.1984198,35.831773 L29.1158284,35.831773 L29.1158284,36.951552 C29.1158284,38.8039585 30.6227589,40.310784 32.4753754,40.310784 C34.3279918,40.310784 35.8349223,38.8039585 35.8349223,36.951552 L35.8349223,35.2089504 C37.1672777,34.432128 38.0745852,33.0036146 38.0745852,31.352867 L38.0745852,21.253336 C39.864636,19.910483 40.6902722,17.640377 40.144607,15.4062778 Z M19.035613,2.23945301 L21.275066,2.23945301 C26.9455546,2.23945301 31.7471568,6.0627839 33.146277,11.4473179 C32.4404184,11.6530708 31.768362,11.9746123 31.1843805,12.448369 C29.8677715,13.5177595 29.113309,15.1022673 29.113309,16.79616 L29.113309,22.394845 L11.197475,22.394845 L11.197475,17.0356103 C11.197475,14.4185586 9.49980312,12.13785 7.16555678,11.4411243 C8.56593662,6.06068438 13.3677488,2.23945301 19.035613,2.23945301 Z M31.352867,25.754077 C31.352867,26.3718608 30.8509767,26.873856 30.233088,26.873856 L10.077696,26.873856 C9.45991224,26.873856 8.95791701,26.3719657 8.95791701,25.754077 C8.95791701,25.1362932 9.45980726,24.634298 10.077696,24.634298 L30.233088,24.634298 C30.8508718,24.634403 31.352867,25.1362932 31.352867,25.754077 Z M8.95791701,36.951552 C8.95791701,37.5693358 8.45602675,38.071331 7.83813802,38.071331 C7.22035426,38.071331 6.718464,37.5693358 6.718464,36.951552 L6.718464,35.831773 L8.95791701,35.831773 L8.95791701,36.951552 Z M33.59232,36.951552 C33.59232,37.5693358 33.0904297,38.071331 32.472541,38.071331 C31.8547572,38.071331 31.352762,37.5694407 31.352762,36.951552 L31.352762,35.831773 L33.59232,35.831773 L33.59232,36.951552 Z M36.3883558,19.6862543 C36.0439295,19.8863385 35.831773,20.2549092 35.831773,20.654028 L35.831773,31.352867 C35.831773,32.5873848 34.8268378,33.59232 33.59232,33.59232 L6.718464,33.59232 C5.48394624,33.59232 4.47901099,32.5873848 4.47901099,31.352867 L4.47901099,20.654028 C4.47901099,20.255959 4.2668545,19.8874932 3.92242824,19.6862543 C2.86825925,19.0728795 2.23945301,17.9924665 2.23945301,16.79616 C2.23945301,15.8098055 2.67142925,14.875939 3.42368726,14.2363202 C4.18696776,13.5867288 5.16565901,13.3199847 6.17059426,13.4839572 C7.75940602,13.7419883 8.95791701,15.269599 8.95791701,17.0356103 L8.95791701,22.6011228 C7.65736934,23.0649068 6.718464,24.2961703 6.718464,25.754077 C6.718464,27.6064835 8.2252895,29.113309 10.077696,29.113309 L30.233088,29.113309 C32.0854945,29.113309 33.59232,27.6064835 33.59232,25.754077 C33.59232,24.2961703 32.6534147,23.0649068 31.352867,22.6011228 L31.352867,16.79616 C31.352867,15.7791525 31.8056285,14.8289098 32.5962027,14.1870865 C33.3976945,13.5364452 34.4114477,13.296995 35.45134,13.5146102 C36.662973,13.7683372 37.673367,14.7426195 37.9653052,15.9377712 C38.333771,17.443547 37.7148325,18.9142608 36.3883558,19.6862543 Z"/>
    </g>
  </g>
</svg>
