<?xml version="1.0" encoding="UTF-8"?>
<svg id="professionSVG" alt="בעלי מקצוע" xmlns="http://www.w3.org/2000/svg" width="130" height="100" viewBox="0 0 130 100">
  <title>בעלי מקצוע</title>
  <g fill="none" fill-rule="evenodd" transform="translate(22.977 12)">
    <path class="professionClass1" fill="#E5E5E5" d="M2.02280374,67 L83.0228037,67 C84.1273732,67 85.0228037,67.8954305 85.0228037,69 C85.0228037,70.1045695 84.1273732,71 83.0228037,71 L2.02280374,71 C0.918234238,71 0.0228037372,70.1045695 0.0228037372,69 C0.0228037372,67.8954305 0.918234238,67 2.02280374,67 Z" transform="matrix(-1 0 0 1 85.046 0)"/>
    <g fill-rule="nonzero" transform="translate(6)">
      <path class="professionClass" fill="#7F7F7F" d="M26.1356317,26.8887027 C25.2117831,26.8887027 24.4602237,27.62305 24.4602237,28.5257407 C24.4602237,29.4282913 25.2117831,30.1626386 26.1356317,30.1626386 C27.0593368,30.1626386 27.8108962,29.4282913 27.8110397,28.5257407 C27.8108962,27.62305 27.0594802,26.8887027 26.1356317,26.8887027 Z" transform="matrix(-1 0 0 1 52.271 0)"/>
      <path class="professionClass" fill="#7F7F7F" d="M37.0677441,26.8887027 C36.1438956,26.8887027 35.3923361,27.62305 35.3923361,28.5257407 C35.3923361,29.4282913 36.1438956,30.1626386 37.0677441,30.1626386 C37.9915927,30.1626386 38.7431521,29.4282913 38.7431521,28.5257407 C38.7431521,27.62305 37.9915927,26.8887027 37.0677441,26.8887027 Z" transform="matrix(-1 0 0 1 74.135 0)"/>
      <path class="professionClass1" fill="#E5E5E5" d="M17.1807993,16.4287637 L17.3226832,16.3577097 C21.7172958,14.1569321 26.606919,13 31.522778,13 C36.4386168,13 41.3282406,14.156923 45.7230212,16.357708 L45.8649078,16.428761 L45.8725255,16.5926771 L46.0161974,19.6843807 C46.0169702,19.7006922 46.0169702,19.7006922 46.018618,19.7213575 C46.0582093,20.2440544 45.8125606,20.6061314 45.4674364,20.8204359 C45.1273152,21.0312902 44.7075694,21.0871674 44.2800797,20.8183594 C40.4542291,18.4084565 36.0429373,17.134596 31.5229296,17.134596 C27.003389,17.134596 22.5920237,18.4085164 18.766583,20.8180582 C18.3377776,21.0874678 17.9173013,21.0316562 17.5767483,20.8200889 C17.2324052,20.6059531 16.9871692,20.2442845 17.0270542,19.723374 C17.0284062,19.7035519 17.0284287,19.7032212 17.0296714,19.6808502 L17.1807993,16.4287637 Z" transform="matrix(-1 0 0 1 63.046 0)"/>
      <rect class="professionClass1" width="20" height="6" x="22" y="61" fill="#E5E5E5"/>
      <path class="professionClass" fill="#7F7F7F" d="M25.4208657,19.2638843 C25.3362754,20.4229753 25.8384713,21.5311541 26.7674679,22.2484339 L26.8646835,22.446315 L26.8646835,24.0228897 C24.8087136,24.6762806 23.5075555,26.3964176 23.5075555,28.3536128 C23.5075555,30.3107405 24.8087884,32.0309246 26.6904073,32.6289505 L26.8646835,34.0830355 C27.059103,36.6142343 28.2976559,38.7939904 30.1756909,40.0059757 C30.1982922,40.0201654 31.5773466,40.7914584 34.312854,42.3198546 L34.312854,44.7399722 C34.312854,45.2053106 34.0290823,45.6211946 33.5924839,45.7990782 L23.9464536,49.7261991 C21.5176654,50.7151412 19.8147434,53.3340123 19.8147434,56.0882241 L19.8147434,66.2402085 L1.2488152,66.2396479 C0.55781961,66.2396479 1.42108547e-14,66.7846563 1.42108547e-14,67.4541374 C1.42108547e-14,68.1236706 0.557729305,68.6686269 1.2488152,68.6686269 L71.9557082,68.6686269 C72.6467038,68.6686269 73.2045234,68.1236184 73.2045234,67.4541374 C73.2045234,66.7847071 72.6468979,66.2400684 71.9557082,66.2400684 L63.3906407,66.2400684 L63.3906407,56.0880839 C63.3906407,53.3337515 61.6875937,50.7147335 59.2587992,49.7259236 L49.6128865,45.7989324 C49.1763948,45.6211963 48.8925301,45.2052521 48.8925301,44.739832 L48.8925301,42.3129174 L52.9380379,40.0464288 C54.8998584,38.7834134 56.1473039,36.6034049 56.3372213,34.1740446 C56.3387779,34.154924 56.3399377,33.658261 56.3407006,32.6840554 C58.3966706,32.0306646 59.6978286,30.3105276 59.6978286,28.3533324 C59.6978286,26.3961373 58.3966706,24.6760002 56.5149819,24.0779963 L56.3407006,22.3595446 C57.4004982,21.5695271 57.9228761,20.4437465 57.8370829,19.2580635 L57.6072626,14.5074026 C57.6072626,14.4874502 57.4438418,12.399024 57.1170003,8.24212378 C56.8816047,5.2755778 54.7282345,2.84460181 51.7546096,2.19213437 L41.942343,0.0383338522 C41.7505761,-0.00956919179 41.5465304,-0.0126848621 41.3541953,0.0295965224 L31.5052845,2.19227517 C28.5299338,2.84529791 26.3764904,5.27653809 26.1427639,8.24282972 L25.6563068,14.4156847 L25.4208657,19.2638843 Z M32.0552399,4.56125706 L41.5744666,2.47104692 L41.6816797,2.47104692 L51.2047871,4.56125412 C53.0994092,4.97716111 54.4762059,6.53158956 54.6265641,8.4282336 L55.0405355,13.6794682 L54.6623006,13.5206834 C50.5553245,11.7965558 46.0981319,10.8978391 41.6290878,10.8978391 C37.1608633,10.8978391 32.7043647,11.7963201 28.597432,13.5199913 L28.2192174,13.6787272 L28.6331891,8.42809714 C28.7826377,6.53139744 30.1592786,4.97727287 32.0552399,4.56125706 Z M28.0583513,16.4385664 L28.1926068,16.3740789 C32.3509423,14.3766901 36.9776741,13.326678 41.6292312,13.326678 C46.2807692,13.326678 50.9075016,14.3766818 55.0659961,16.3740774 L55.2002541,16.4385639 L55.2074623,16.5873314 L55.3434097,19.3933097 C55.3441409,19.4081137 55.3441409,19.4081137 55.3457001,19.4268692 C55.3831627,19.9012601 55.1507213,20.2298752 54.8241529,20.4243743 C54.5023183,20.6157422 54.1051402,20.6664554 53.7006346,20.4224897 C50.0804815,18.2353023 45.9063634,17.0791679 41.6293747,17.0791679 C37.3528279,17.0791679 33.1786403,18.2353567 29.558875,20.4222164 C29.1531245,20.666728 28.7552551,20.6160744 28.433012,20.4240594 C28.1071826,20.2297133 27.8751318,19.9014691 27.9128723,19.4286993 C27.9141516,19.4107092 27.9141729,19.4104091 27.9153488,19.3901055 L28.0583513,16.4385664 Z M31.5342005,37.9661632 C30.3064686,37.1547437 29.5079319,35.6994024 29.3626009,34.0237439 L29.3626009,31.6335759 C29.3626009,30.9641306 28.8048184,30.4190864 28.1137857,30.4190864 C26.9523435,30.4190864 26.0054729,29.4938515 26.0054729,28.3533324 C26.0054729,27.2128587 26.9524404,26.2875785 28.1137857,26.2875785 C28.8047812,26.2875785 29.3626009,25.74257 29.3626009,25.0730889 L29.3626009,22.9960713 L29.5727892,22.9621669 C30.0340106,22.8877695 30.4754034,22.7274929 30.8758459,22.4858973 C37.4095812,18.5387948 45.8494572,18.5389147 52.3836084,22.4863639 C52.7689685,22.7187816 53.192788,22.875859 53.6363803,22.9536205 L53.8432137,22.9898782 L53.8432137,25.0729488 C53.8432137,25.7423941 54.4009961,26.2874383 55.0920289,26.2874383 C56.253471,26.2874383 57.2003417,27.2126732 57.2003417,28.3531922 C57.2003417,29.493666 56.2533741,30.4189462 55.0920289,30.4189462 C54.4010333,30.4189462 53.8432137,30.9639547 53.8432137,31.6334357 L53.8422534,34.0452148 C53.6996683,35.667282 52.8729722,37.1559972 51.6469358,37.9662852 L43.6005354,42.4744643 C42.3271173,43.2936443 40.8794462,43.2936443 39.6727075,42.5149007 C39.6578235,42.5052571 36.9449879,40.9890113 31.5342005,37.9661632 Z M46.3950432,50.0001079 C46.3950432,52.5756745 44.2473327,54.667966 41.6101517,54.667966 C38.9651251,54.667966 36.8107713,52.5758727 36.8107713,50.0001079 L36.8107713,43.7144164 L37.182708,43.9222215 L38.333477,44.5656179 C39.3322411,45.1994876 40.4592128,45.5280665 41.602979,45.5280665 C42.7469149,45.5280665 43.8741824,45.1992664 44.8849691,44.5580319 L46.3950432,43.7120244 L46.3950432,50.0001079 Z M22.3126608,56.0880839 C22.3126608,54.3387475 23.4214386,52.5731195 24.9112903,51.9664149 L25.8284442,51.59305 L25.9298889,51.8060713 C26.2561454,52.4911695 26.424134,53.2331078 26.424134,53.9957758 L26.424134,66.2400684 L22.3126608,66.2400684 L22.3126608,56.0880839 Z M33.3047373,66.2400684 L33.3047373,62.3717985 L49.9535817,62.3717985 L49.9535817,66.2400684 L33.3047373,66.2400684 Z M54.2839067,53.9956357 L54.2839067,66.2400684 L52.4512121,66.2400684 L52.4512121,61.157309 C52.4512121,60.4878637 51.8934296,59.9428195 51.2023969,59.9428195 L32.0559221,59.9428195 C31.3649265,59.9428195 30.8071069,60.4878279 30.8071069,61.157309 L30.8071069,66.2400684 L28.9217644,66.2400684 L28.9217644,53.9956357 C28.9217644,52.9145976 28.6925172,51.8643654 28.2460235,50.8903554 L28.1372452,50.6530596 L34.3129975,48.1388258 L34.3129975,50.0003883 C34.3129975,53.9117999 37.5852362,57.0972253 41.6100083,57.0972253 C45.6267512,57.0972253 48.8925301,53.9119443 48.8925301,50.0003883 L48.8925301,48.1388258 L55.0682538,50.653048 L54.9595165,50.8903285 C54.5131223,51.8644255 54.2839067,52.9146738 54.2839067,53.9956357 Z M56.7813936,66.2400684 L56.7813936,53.9956357 C56.7813936,53.2329846 56.949374,52.4913257 57.2757835,51.8059284 L57.3772223,51.5929262 L57.5957395,51.6818643 L58.2945309,51.9662774 C59.784371,52.5728274 60.8931538,54.3384632 60.8931538,56.0879438 L60.8931538,66.2400684 L56.7813936,66.2400684 Z" transform="matrix(-1 0 0 1 73.205 0)"/>
    </g>
    <path class="professionClass" fill="#7F7F7F" fill-rule="nonzero" d="M14.4249784,0.841756461 C18.5025246,2.28311521 21.2415929,6.15775975 21.2415929,10.4839849 C21.2415929,13.2143698 20.1777424,15.7824787 18.24685,17.7133711 C17.4378085,18.5223322 16.4876625,19.1963759 15.4562742,19.6955911 L15.2157653,19.8052358 L15.216184,38.0471857 C15.2162149,39.3838462 7.41097343,39.4457513 6.84822537,38.2110603 L6.82450827,38.1411323 L6.81626681,38.0685355 L6.8153367,19.8080642 L6.68244219,19.7474056 C3.30208293,18.1649738 1.04585635,14.8456576 0.811543025,11.1266667 L0.796138342,10.7975173 L0.791349008,10.4844349 C0.791349008,7.75409103 1.85536227,5.1857825 3.78612733,3.25501743 C4.86081691,2.18032785 6.18207915,1.34616161 7.60836414,0.842013141 C7.97183148,0.71353688 8.37494963,0.769454318 8.68974122,0.991999608 C8.96514263,1.18666888 9.14285691,1.48783214 9.18297747,1.81833934 L9.19163155,1.96155692 L9.19121549,9.29621477 L12.8413007,9.29621477 L12.8416751,1.96146305 C12.8416386,1.67244434 12.9468848,1.39692589 13.1323149,1.18317886 L13.2315957,1.08167644 L13.3435432,0.99181013 C13.6582999,0.769204479 14.0614912,0.713248929 14.4249784,0.841756461 Z M15.2157653,3.85149256 L15.2167089,10.484098 C15.2167518,10.7540887 15.12484,11.0145678 14.958299,11.22376 L14.8688896,11.3238888 C14.6779849,11.5147935 14.4288016,11.6339781 14.1631752,11.6641033 L14.0291855,11.671664 L8.00394973,11.6717331 C7.39493029,11.6717445 6.89297593,11.2132924 6.8244301,10.6227226 L6.81645402,10.4842405 L6.81604381,3.85361388 L6.57431895,4.01310005 C6.2761714,4.21799893 5.99234283,4.4429735 5.72595904,4.68575835 L5.46550593,4.93439604 C3.98265844,6.41724354 3.16644449,8.38748072 3.1662337,10.4844542 C3.1662337,13.8056558 5.26943707,16.7808756 8.39940232,17.8872737 C8.83071931,18.0397925 9.13208228,18.4243868 9.18330383,18.8711403 L9.19104587,19.0068612 L9.19107902,38.0471127 C9.191092,38.2602922 12.585099,38.26786 12.8275318,38.0699676 L12.8411667,38.0471341 L12.8414872,19.0067166 C12.8414406,18.5033922 13.1586067,18.0547535 13.633177,17.8870791 C14.7268905,17.5003973 15.7419411,16.8593488 16.5675346,16.0338409 C18.0503911,14.5511558 18.8665756,12.5809671 18.8665756,10.4839187 C18.8665756,7.8327181 17.5218408,5.37390017 15.3424681,3.93221623 L15.2157653,3.85149256 Z" transform="translate(57.023 29)"/>
  </g>
</svg>
