<?xml version="1.0" encoding="UTF-8"?>
<svg id="mobileSVG" alt="סלולר ודיגיטל" xmlns="http://www.w3.org/2000/svg" xmlns:xlink="http://www.w3.org/1999/xlink" width="130" height="100" viewBox="0 0 130 100">
  <title>סלולר ודיגיטל</title>
  <defs>
    <path id="mobile_default-a" d="M4.5,3 L66.14,3 C66.9684271,3 67.64,3.67157288 67.64,4.5 L67.64,45.02 C67.64,45.8484271 66.9684271,46.52 66.14,46.52 L4.5,46.52 C3.67157288,46.52 3,45.8484271 3,45.02 L3,4.5 C3,3.67157288 3.67157288,3 4.5,3 Z"/>
  </defs>
  <g fill="none" fill-rule="evenodd" transform="translate(17 21)">
    <path fill="#000" fill-opacity=".1" d="M2,58 L94,58 C95.1045695,58 96,58.8954305 96,60 C96,61.1045695 95.1045695,62 94,62 L2,62 C0.8954305,62 1.3527075e-16,61.1045695 0,60 C-1.3527075e-16,58.8954305 0.8954305,58 2,58 Z"/>
    <g transform="translate(4)">
      <path class="mobileClass" fill="#7F7F7F" fill-rule="nonzero" d="M43.4126825,43.35 L27.1723885,43.35 L23.0404966,56.09 L46.8750549,56.09 L43.4126825,43.35 Z M41.501,45.849 L43.604,53.589 L26.48,53.589 L28.99,45.849 L41.501,45.849 Z"/>
      <path class="mobileClass" fill="#7F7F7F" fill-rule="nonzero" d="M66.14,0.5 L4.5,0.5 C2.290861,0.5 0.5,2.290861 0.5,4.5 L0.5,45.02 C0.5,47.229139 2.290861,49.02 4.5,49.02 L66.14,49.02 C68.349139,49.02 70.14,47.229139 70.14,45.02 L70.14,4.5 C70.14,2.290861 68.349139,0.5 66.14,0.5 Z M66.14,3 C66.9684271,3 67.64,3.67157288 67.64,4.5 L67.64,45.02 C67.64,45.8484271 66.9684271,46.52 66.14,46.52 L4.5,46.52 C3.67157288,46.52 3,45.8484271 3,45.02 L3,4.5 C3,3.67157288 3.67157288,3 4.5,3 L66.14,3 Z"/>
      <mask id="mobile_default-b" fill="#fff">
        <use xlink:href="#mobile_default-a"/>
      </mask>
      <path class="mobileClass1" fill="#E5E5E5" fill-rule="nonzero" d="M2,39 L62,39 L62,47 L4,47 C2.8954305,47 2,46.1045695 2,45 L2,39 L2,39 Z" mask="url(#mobile_default-b)"/>
      <circle class="mobileClass" cx="34.5" cy="42.5" r="1.5" fill="#7F7F7F" fill-rule="nonzero" mask="url(#mobile_default-b)"/>
      <rect class="mobileClass" width="64.64" height="2.5" x="1" y="36.84" fill="#7F7F7F" fill-rule="nonzero" mask="url(#mobile_default-b)"/>
      <path class="mobileClass" fill="#7F7F7F" fill-rule="nonzero" d="M50.552,53.59 L19.448,53.59 C17.803296,53.59 16.47,54.923296 16.47,56.568 L16.47,59.32 C16.47,60.0103559 17.0296441,60.57 17.72,60.57 L52.28,60.57 C52.9703559,60.57 53.53,60.0103559 53.53,59.32 L53.53,56.568 C53.53,54.923296 52.196704,53.59 50.552,53.59 Z M50.552,56.09 L50.6379211,56.0977012 C50.8609073,56.1381744 51.03,56.3333403 51.03,56.568 L51.03,58.07 L18.97,58.07 L18.97,56.568 C18.97,56.3040079 19.1840079,56.09 19.448,56.09 L50.552,56.09 Z"/>
    </g>
    <g fill-rule="nonzero" transform="translate(65.028 20)">
      <path fill="#FFF" d="M4,2 L21,2 C22.1045695,2 23,2.8954305 23,4 L23,37 C23,38.1045695 22.1045695,39 21,39 L4,39 C2.8954305,39 2,38.1045695 2,37 L2,4 C2,2.8954305 2.8954305,2 4,2 Z"/>
      <path class="mobileClass" fill="#7F7F7F" d="M21,0.75 L4,0.75 C2.20507456,0.75 0.75,2.20507456 0.75,4 L0.75,37 C0.75,38.7949254 2.20507456,40.25 4,40.25 L21,40.25 C22.7949254,40.25 24.25,38.7949254 24.25,37 L24.25,4 C24.25,2.20507456 22.7949254,0.75 21,0.75 Z M4,3.25 L21,3.25 C21.4142136,3.25 21.75,3.58578644 21.75,4 L21.75,37 C21.75,37.4142136 21.4142136,37.75 21,37.75 L4,37.75 C3.58578644,37.75 3.25,37.4142136 3.25,37 L3.25,4 C3.25,3.58578644 3.58578644,3.25 4,3.25 Z"/>
      <path class="mobileClass1" fill="#E5E5E5" d="M2.972 31L21.972 31 21.972 37C21.972 37.5522847 21.5242847 38 20.972 38L3.972 38C3.41971525 38 2.972 37.5522847 2.972 37L2.972 31 2.972 31zM3.972 3L20.972 3C21.5242847 3 21.972 3.44771525 21.972 4L21.972 7C21.972 7.55228475 21.5242847 8 20.972 8L3.972 8C3.41971525 8 2.972 7.55228475 2.972 7L2.972 4C2.972 3.44771525 3.41971525 3 3.972 3z"/>
      <rect class="mobileClass" width="21" height="2.5" x="2" y="6" fill="#7F7F7F"/>
      <rect class="mobileClass" width="21" height="2.5" x="2" y="30" fill="#7F7F7F"/>
      <path class="mobileClass" fill="#7F7F7F" d="M11.25,34 L13.75,34 C14.4403559,34 15,34.5596441 15,35.25 C15,35.9403559 14.4403559,36.5 13.75,36.5 L11.25,36.5 C10.5596441,36.5 10,35.9403559 10,35.25 C10,34.5596441 10.5596441,34 11.25,34 Z"/>
    </g>
  </g>
</svg>
