<?xml version="1.0" encoding="UTF-8"?>
<svg id="realestateSVG" alt="נדלן" xmlns="http://www.w3.org/2000/svg" width="130" height="100" viewBox="0 0 130 100">
  <title>נדל"ן</title>
  <g fill="none" fill-rule="evenodd">
    <path class="realestate_part1" fill="#E5E5E5" d="M6.20472441,87 L123.795276,87 C125.012911,87 126,87.9870887 126,89.2047244 C126,90.4223601 125.012911,91.4094488 123.795276,91.4094488 L6.20472441,91.4094488 C4.98708874,91.4094488 4,90.4223601 4,89.2047244 C4,87.9870887 4.98708874,87 6.20472441,87 Z"/>
    <polygon class="realestate_part1" fill="#E5E5E5" fill-rule="nonzero" points="57.326 30.544 57.326 39.117 85.766 17.462 114.376 39.117 114.376 30.544 85.766 9.405"/>
    <rect class="realestate_part1" width="10" height="3" x="71" y="39" fill="#E5E5E5" fill-rule="nonzero"/>
    <rect class="realestate_part1" width="10" height="3" x="91" y="38" fill="#E5E5E5" fill-rule="nonzero"/>
    <rect class="realestate_part1" width="10" height="3" x="91" y="63" fill="#E5E5E5" fill-rule="nonzero"/>
    <rect class="realestate_part1" width="18" height="5" x="31" y="73" fill="#E5E5E5" fill-rule="nonzero"/>
    <polygon class="realestate_part1" fill="#E5E5E5" fill-rule="nonzero" points="17.326 57.544 17.326 66.117 40.332 48.462 60.5 64.117 60.5 55.544 40.332 40.405"/>
    <path class="realestate_part" fill="#7F7F7F" fill-rule="nonzero" d="M113.351313,40.8602791 C113.645587,41.088261 114.003341,41.2053618 114.364149,41.2053618 C114.60716,41.2053618 114.851261,41.1521731 115.07813,41.0440801 C115.642028,40.7751344 116,40.2130078 116,39.5968346 L116,31.0180233 C116,30.5251705 115.770296,30.0595556 115.376549,29.7545788 L88.7415616,9.12275194 C86.8736069,7.67572093 84.2644039,7.6759354 82.3964492,9.12275194 L72.3714903,16.888292 L72.3714903,13.8604005 C72.3714903,12.9720646 71.6389676,12.2518734 70.7354212,12.2518734 L63.7548596,12.2518734 C62.8513132,12.2518734 62.1187905,12.9720646 62.1187905,13.8604005 L62.1187905,24.8303411 L55.7616803,29.7545788 C55.367933,30.0595556 55.1382289,30.5251705 55.1382289,31.0180233 L55.1382289,39.5968346 C55.1382289,40.2130078 55.4962009,40.7751344 56.0600994,41.0440801 C56.6237797,41.3130258 57.294568,41.2418217 57.7869158,40.8604935 L58.6285097,40.2085039 L58.6285097,51.8832791 L43.3679114,40.0623204 C41.4999568,38.6152894 38.8907538,38.6152894 37.0227991,40.0623204 L15.6234514,56.6382997 C15.2297041,56.943062 15,57.4088915 15,57.9017442 L15,66.4805556 C15,67.0967287 15.3579719,67.6588553 15.9218704,67.927801 C16.1487387,68.0361085 16.3928402,68.0890827 16.635851,68.0890827 C16.9964406,68.0890827 17.3544125,67.9719819 17.6486868,67.744 L18.4902808,67.0920103 L18.4902808,83.7454134 L16.6360691,83.7454134 C15.7325227,83.7454134 15,84.4656047 15,85.3539406 C15,86.2422765 15.7325227,86.9624677 16.6360691,86.9624677 L114.363931,86.9624677 C115.267477,86.9624677 116,86.2422765 116,85.3539406 C116,84.4656047 115.267477,83.7454134 114.363931,83.7454134 L112.509719,83.7454134 L112.509719,40.2082894 L113.351313,40.8602791 Z M65.3909287,15.4689276 L69.0993521,15.4689276 L69.0993521,19.4231163 L65.3909287,22.2957313 L65.3909287,15.4689276 Z M58.4103672,31.7984806 L84.4216847,11.6498553 C85.0972721,11.1265478 86.0411749,11.1265478 86.7167624,11.6498553 L112.727862,31.7984806 L112.727862,36.281553 L86.5817322,16.0284806 C86.2848402,15.798354 85.9270864,15.6833979 85.5691145,15.6833979 C85.2111425,15.6833979 84.8536069,15.798354 84.5564968,16.0284806 L58.4103672,36.281553 L58.4103672,31.7984806 Z M39.0480346,42.5889948 C39.723622,42.0656873 40.6675248,42.0656873 41.3431123,42.5889948 L58.6285097,55.9785891 L58.6285097,60.461876 L41.2080821,46.9676202 C40.6140799,46.5073669 39.7768488,46.5073669 39.1830648,46.9676202 L18.2721382,63.1654884 L18.2721382,58.6822016 L39.0480346,42.5889948 Z M21.762419,64.5574005 L40.1954644,50.2790413 L58.6285097,64.557615 L58.6285097,83.7456279 L51.4298056,83.7456279 L51.4298056,64.7650078 C51.4298056,63.8766718 50.6972829,63.1564806 49.7937365,63.1564806 L30.5971922,63.1564806 C29.6936458,63.1564806 28.9611231,63.8766718 28.9611231,64.7650078 L28.9611231,83.7456279 L21.762419,83.7456279 L21.762419,64.5574005 Z M32.2332613,73.2363695 L48.1576674,73.2363695 L48.1576674,76.8823643 L32.2332613,76.8823643 L32.2332613,73.2363695 Z M48.1576674,70.0193152 L32.2332613,70.0193152 L32.2332613,66.3733204 L48.1576674,66.3733204 L48.1576674,70.0193152 Z M32.2332613,80.0994186 L48.1576674,80.0994186 L48.1576674,83.7454134 L32.2332613,83.7454134 L32.2332613,80.0994186 Z M79.5701944,71.7404393 C79.5339827,71.7380801 79.4975529,71.7350775 79.4611231,71.7350775 C79.0313823,71.7350775 78.6081857,71.9066537 78.3049676,72.2069121 C77.999568,72.5050258 77.825054,72.9210982 77.825054,73.3436047 C77.825054,73.7661111 77.999568,74.1821835 78.3049676,74.4802972 C78.6081857,74.7805556 79.0313823,74.9521318 79.4611231,74.9521318 C79.4975529,74.9521318 79.5339827,74.9491292 79.5701944,74.94677 L79.5701944,83.7454134 L72.3714903,83.7454134 L72.3714903,62.9417959 L79.5701944,62.9417959 L79.5701944,71.7404393 Z M109.237581,83.7454134 L82.8423326,83.7454134 L82.8423326,61.3332687 C82.8423326,60.4449328 82.1098099,59.7247416 81.2062635,59.7247416 L70.7354212,59.7247416 C69.8318747,59.7247416 69.0993521,60.4449328 69.0993521,61.3332687 L69.0993521,83.7454134 L61.9006479,83.7454134 L61.9006479,37.6736796 L85.5691145,19.3396873 L109.237581,37.6736796 L109.237581,83.7454134 Z"/>
    <path class="realestate_part" fill="#7F7F7F" fill-rule="nonzero" d="M89.9319654 76.6678941L100.402808 76.6678941C101.306354 76.6678941 102.038877 75.9477028 102.038877 75.0593669L102.038877 61.3332687C102.038877 60.4449328 101.306354 59.7247416 100.402808 59.7247416L89.9319654 59.7247416C89.028419 59.7247416 88.2958963 60.4449328 88.2958963 61.3332687L88.2958963 75.0593669C88.2958963 75.9477028 89.028419 76.6678941 89.9319654 76.6678941zM91.5680346 73.4508398L91.5680346 68.0890827 98.7667387 68.0890827 98.7667387 73.4508398 91.5680346 73.4508398zM98.7667387 62.9417959L98.7667387 64.8720284 91.5680346 64.8720284 91.5680346 62.9417959 98.7667387 62.9417959zM89.9319654 52.6472222L100.402808 52.6472222C101.306354 52.6472222 102.038877 51.927031 102.038877 51.0386951L102.038877 37.3125969C102.038877 36.424261 101.306354 35.7040698 100.402808 35.7040698L89.9319654 35.7040698C89.028419 35.7040698 88.2958963 36.424261 88.2958963 37.3125969L88.2958963 51.0386951C88.2958963 51.927031 89.028419 52.6472222 89.9319654 52.6472222zM91.5680346 49.430168L91.5680346 44.0684109 98.7667387 44.0684109 98.7667387 49.430168 91.5680346 49.430168zM98.7667387 38.921124L98.7667387 40.8513566 91.5680346 40.8513566 91.5680346 38.921124 98.7667387 38.921124zM81.2062635 35.7040698L70.7354212 35.7040698C69.8318747 35.7040698 69.0993521 36.424261 69.0993521 37.3125969L69.0993521 51.0386951C69.0993521 51.927031 69.8318747 52.6472222 70.7354212 52.6472222L81.2062635 52.6472222C82.1098099 52.6472222 82.8423326 51.927031 82.8423326 51.0386951L82.8423326 37.3125969C82.8423326 36.424261 82.1098099 35.7040698 81.2062635 35.7040698zM79.5701944 38.921124L79.5701944 40.8513566 72.3714903 40.8513566 72.3714903 38.921124 79.5701944 38.921124zM72.3714903 49.430168L72.3714903 44.0684109 79.5701944 44.0684109 79.5701944 49.430168 72.3714903 49.430168z"/>
  </g>
</svg>
