<?xml version="1.0" encoding="UTF-8"?>
<svg width="66px" height="81px" alt="שותפים" viewBox="0 0 66 81" version="1.1" xmlns="http://www.w3.org/2000/svg" xmlns:xlink="http://www.w3.org/1999/xlink">
    <!-- Generator: sketchtool 51 (57462) - http://www.bohemiancoding.com/sketch -->
    <title>שותפים</title>
    <desc>Created with sketchtool.</desc>
    <defs></defs>
    <g id="Symbols" stroke="none" stroke-width="1" fill="none" fill-rule="evenodd">
        <g id="roommates" transform="translate(-22.000000, -14.000000)">
            <g id="Group" transform="translate(22.000000, 15.000000)">
                <path d="M40.1190933,47.9893244 L39.754469,67.4699676 C39.7530455,67.7071584 41.6302202,69.7039755 45.3859931,73.4604188 L39.754469,78.8207218 C39.1980139,79.3475998 38.3011476,79.3526049 37.7512135,78.8319012 L30.6021486,72.0628281 C30.3381171,71.8128305 30.1910805,71.4725408 30.1932157,71.1167546 L30.3242989,49.9281012 L40.1190933,47.9893244 Z" id="Combined-Shape1" fill="#E5E5E5" fill-rule="nonzero"></path>
                <path d="M34.3266801,48.5431938 L34.3471834,45.2289858 C32.2069609,44.3284446 30.2782284,43.0724529 28.6033178,41.4865682 C21.0693385,34.3530399 21.1420193,22.6769783 28.7653343,15.4588627 C29.3234333,14.9304282 29.906766,14.4403116 30.5116027,13.9885338 L33.2612718,15.0539725 C27.1697831,22.3057324 27.602145,32.8575263 34.6033178,39.4865682 C36.2782284,41.0724529 38.2069609,42.3284446 40.3471834,43.2289858 L40.3290444,46.1610256 L34.3266801,48.5431938 Z" id="Combined-Shape-Copy-2" fill="#E5E5E5" fill-rule="nonzero"></path>
                <path class="roommates" d="M39.3152082,48.3976129 C37.8998037,49.0767565 36.3639454,49.5826464 34.7276547,49.8840278 C32.4592217,50.301841 30.1575884,50.3047413 27.872177,49.8943499 L14.4464547,70.8508459 C14.2544704,71.1503963 13.9458201,71.3557054 13.5882262,71.4215691 L3.90581445,73.2049317 C3.16100532,73.342115 2.41155593,72.849449 2.23183176,72.1045047 L0.306447907,64.1239216 C0.220237075,63.7665836 0.279251556,63.3978012 0.470701189,63.0983493 L2.50670385,59.9144464 C2.69855915,59.6143612 3.0075856,59.4087594 3.36560727,59.3428169 L6.66736271,58.7346805 L5.87164783,55.4364973 C5.69192366,54.691553 6.1499954,53.9764788 6.89480453,53.8392955 L8.21653329,53.5958519 L7.89757127,52.2737763 C7.71787291,51.528939 8.17591885,50.8137578 8.92072798,50.6765746 L11.8225428,50.1421015 L11.1223282,47.2397602 C11.0360399,46.8821013 11.0954048,46.5129193 11.2872563,46.2132816 L14.5423566,41.1318978 C13.2405759,39.1845344 12.3050005,37.0537683 11.7574159,34.784068 C9.29523352,24.578492 15.5935171,14.746538 25.7972418,12.867157 C28.6039959,12.350162 31.4183989,12.4879427 34.075111,13.1718148 C33.9710177,13.266207 33.8677511,13.3618896 33.7653343,13.4588627 C33.0847571,14.1032654 32.4643597,14.7831986 31.9041819,15.4922582 C30.1238174,15.2161357 28.2838396,15.2263275 26.4476696,15.5645239 C17.7313691,17.170166 12.3512278,25.5691458 14.4545037,34.2870794 C14.9871478,36.4948525 15.948113,38.5479968 17.310939,40.3896114 C17.663279,40.8658294 17.6789242,41.4723155 17.3988516,41.9229222 C17.3959013,41.9278222 17.3936738,41.9324774 17.3904838,41.9373099 L13.9542155,47.3015064 L14.8450436,50.9939273 C15.0247678,51.7388715 14.566696,52.4539458 13.8218869,52.591129 L10.920072,53.1256021 L11.2390341,54.4476776 C11.4187324,55.1925149 10.9606865,55.9076961 10.2158774,56.0448793 L8.8941486,56.288323 L9.68988929,59.5866132 C9.86958765,60.3314505 9.41154171,61.0466317 8.66673259,61.1838149 L4.57568265,61.9373282 L3.13833898,64.1852203 L4.60361348,70.258682 L6.50931965,69.907678 L19.0149932,50.3855127 C19.3746517,49.8240667 20.1430937,49.6825306 20.7314226,50.0693708 C21.3197516,50.456211 21.5053407,51.2245391 21.1456527,51.7863256 L9.94217861,69.2753942 L12.3786081,68.8266385 L25.9854171,47.5874564 C25.9885001,47.5826437 25.9914946,47.5788526 25.9945481,47.5743804 C26.2863534,47.1316664 26.8393954,46.8986586 27.4126802,47.0305591 C29.6278099,47.5403575 31.8700204,47.5925267 34.0766444,47.1860979 C36.008352,46.8303048 37.7762059,46.1408698 39.3350671,45.1882575 L39.3152078,48.3976175 Z" id="Combined-Shape" fill="#7F7F7F" fill-rule="nonzero"></path>
                <path class="roommates" d="M32.9081915,13.4177668 C40.5315065,6.19965122 52.8629408,6.13090921 60.3966822,13.2643636 C67.9306615,20.397892 67.8579807,32.0739535 60.2346657,39.2920691 C58.5392553,40.897364 56.5941173,42.174824 54.441742,43.0990197 L54.4041788,49.1334814 C54.4018847,49.4892686 54.2506013,49.8312231 53.9834389,50.0841851 L51.8154611,52.1369291 L53.9580329,54.1656176 C54.5079671,54.6863213 54.5026011,55.5355924 53.9462259,56.0623948 L52.9586679,56.9974614 L53.934574,57.9214955 C54.4845082,58.4421992 54.4792221,59.2913947 53.922767,59.8182727 L51.459105,62.1509846 L53.8969753,64.4592756 C54.1613227,64.7095722 54.3085153,65.0503122 54.3059806,65.4064767 L54.2794383,69.1856089 C54.2769083,69.5410214 54.1255487,69.8824499 53.858626,70.1351849 L47.8973261,75.7796259 C47.3408711,76.3065039 46.4440048,76.311509 45.8940706,75.7908053 L38.7450058,69.0217322 C38.4809742,68.7717346 38.3339376,68.431445 38.3360729,68.0756587 L38.4900405,43.1878899 C36.3498181,42.2873488 34.4210856,41.031357 32.7461749,39.4454723 C25.2121956,32.311944 25.2848765,20.6358824 32.9081915,13.4177668 Z M58.243377,37.4063201 C64.7554595,31.240372 64.8177056,21.2661598 58.3820963,15.1723176 C51.9460903,9.07840241 41.4122009,9.13711298 34.8999586,15.3032124 C28.3877163,21.4693118 28.3256291,31.4435231 34.7615561,37.5373635 C36.3908297,39.0800369 38.2997191,40.2574795 40.4351392,41.0363727 C40.9877744,41.2379849 41.3246893,41.7346099 41.3282986,42.2648297 C41.3284237,42.2702435 41.3288703,42.2750538 41.3288347,42.2807693 L41.1727774,67.5042455 L42.9717292,69.2075783 L43.1009347,48.4381619 C43.1052458,47.7711079 43.6793554,47.2278128 44.3834578,47.2238083 C45.0875603,47.2198038 45.6549439,47.7570294 45.6507935,48.4237817 L45.5064005,71.6075251 L46.9134897,72.9398238 L51.4502166,68.644236 L51.4690486,65.9761615 L48.4483981,63.1160666 C47.898464,62.595363 47.9038299,61.7460919 48.4602051,61.2192895 L50.923947,58.886502 L49.9480409,57.9624679 C49.3981068,57.4417642 49.4034727,56.5924931 49.959848,56.0656907 L50.947406,55.130624 L48.8048341,53.1019356 C48.2549,52.5812319 48.260186,51.7320364 48.8166411,51.2051584 L51.5747889,48.5936135 L51.6144427,42.2232939 C51.6143993,42.2175037 51.6150666,42.2123863 51.615261,42.20667 C51.6257903,41.6762209 51.9692275,41.1760998 52.5240916,40.9686079 C54.6700688,40.1663482 56.5942246,38.9678156 58.243377,37.4063201 Z M42.8908955,14.9021667 C44.9719497,12.9317261 48.3378982,12.9130172 50.3944861,14.8602919 C52.451074,16.8075667 52.4312349,19.9946818 50.3502606,21.9650468 C48.2692863,23.9354118 44.9032579,23.9541964 42.8466701,22.0069216 C40.7900822,20.0596468 40.8099213,16.8725317 42.8908955,14.9021667 Z M48.3588121,20.0794491 C49.3286339,19.1611759 49.3378802,17.6757607 48.3794236,16.7682486 C47.420967,15.8607364 45.8521658,15.8694913 44.8823441,16.7877645 C43.9125223,17.7060376 43.9032759,19.1914528 44.8617326,20.098965 C45.8201892,21.0064771 47.3889904,20.9977222 48.3588121,20.0794491 Z" id="Combined-Shape-Copy" fill="#7F7F7F" fill-rule="nonzero"></path>
                <path d="M46.7518849,17.9582917 C46.7518849,-7.2069485 23.3910236,-2.28893354 24.6782262,14.5557778" id="Path" stroke="#7F7F7F" stroke-width="2.59312665" stroke-linecap="round" stroke-linejoin="round"></path>
            </g>
        </g>
    </g>
</svg>