<?xml version="1.0" encoding="UTF-8"?>
<svg id="petsSVG" alt="חיות מחמד" xmlns="http://www.w3.org/2000/svg" width="130" height="100" viewBox="0 0 130 100">
  <title>חיות מחמד</title>
  <g fill="none" fill-rule="evenodd" transform="translate(29 21)">
    <path class="pets1" fill="#E5E5E5" d="M2,58 L70,58 C71.1045695,58 72,58.8954305 72,60 C72,61.1045695 71.1045695,62 70,62 L2,62 C0.8954305,62 1.3527075e-16,61.1045695 0,60 C-1.3527075e-16,58.8954305 0.8954305,58 2,58 Z"/>
    <path class="pets" fill="#7F7F7F" fill-rule="nonzero" d="M66.73008,34.6067369 C61.6391273,34.612453 57.5157961,38.7357842 57.5100816,43.8239292 L57.51008,49.5867369 C57.5087133,50.8022935 56.5625481,51.7990499 55.3648616,51.8812592 L50.0094982,52.0257428 L42.5031546,58.8067369 L55.21008,58.8067369 C60.3010327,58.8010208 64.4243639,54.6776896 64.4300784,49.5895447 L64.43008,43.8267369 C64.4299427,43.2162835 64.67216,42.6313328 65.103418,42.2000749 C65.4915501,41.8119428 66.0041733,41.5769335 66.547427,41.533913 L66.7295173,41.5267369 C68.6409852,41.5267369 70.19008,39.9776422 70.19008,38.0667369 C70.19008,36.1558317 68.6409852,34.6067369 66.73008,34.6067369 Z"/>
    <path class="pets1" fill="#E5E5E5" fill-rule="nonzero" d="M66.73008,37.1067369 C67.2602734,37.1067369 67.69008,37.5365436 67.69008,38.0667369 C67.69008,38.5969303 67.2602734,39.0267369 66.73008,39.0267369 C65.456953,39.0264504 64.2358877,39.5320712 63.335651,40.4323079 C62.4354143,41.3325447 61.9297934,42.55361 61.93008,43.8267369 L61.93008,49.5867369 C61.9259137,53.2963633 58.9197064,56.3025706 55.21008,56.3067369 L49,56.3067369 L51,54.5 L55.21008,54.3867369 C57.8598131,54.383761 60.0071041,52.2364701 60.01008,49.5867369 L60.01008,43.8267369 C60.0142463,40.1171105 63.0204536,37.1109032 66.73008,37.1067369 Z"/>
    <ellipse class="pets" cx="7.192" cy="12.735" fill="#7F7F7F" fill-rule="nonzero" rx="1.459" ry="1.473"/>
    <path class="pets" fill="#7F7F7F" fill-rule="nonzero" d="M20.8135319,18.5214141 C20.4480426,17.8691484 19.6274468,17.6416289 18.9830213,18.0122344 C18.8531915,18.0860977 18.6414043,18.1643438 18.3728085,18.1071094 C18.0684681,18.0422695 17.8178723,17.8164258 17.722383,17.5181367 L17.7208511,17.5196836 C17.5910213,17.1220078 17.2852766,16.7905898 16.8629787,16.6504688 C16.1572766,16.4184375 15.3993617,16.8070898 15.1697021,17.5181367 C15.0726809,17.8164258 14.823617,18.0423984 14.5177447,18.1071094 C14.2506809,18.1643438 14.0388936,18.0859688 13.9075319,18.0122344 C13.2629787,17.6416289 12.4440426,17.8691484 12.0770213,18.5214141 C11.7115319,19.1722617 11.9367234,19.9993242 12.5812766,20.3698008 C13.1198723,20.6786602 13.725617,20.838375 14.337234,20.838375 C14.5804255,20.838375 14.8265532,20.8127227 15.0697447,20.7615469 C15.574,20.6545547 16.0409787,20.4376055 16.4437447,20.1378984 C16.8480426,20.4377344 17.3165532,20.6545547 17.8222128,20.7615469 C18.0638723,20.8127227 18.3101277,20.838375 18.5547234,20.838375 C19.1649362,20.838375 19.7706809,20.6786602 20.3091489,20.3698008 C20.9538298,19.9993242 21.1805532,19.1722617 20.8135319,18.5214141 Z"/>
    <path class="pets" fill="#7F7F7F" fill-rule="nonzero" d="M55,43 C54.9205276,39.7221518 54.5,33 46,27.5 C41.6666667,24.8333333 37.3624535,22.208919 33.0873604,19.6267571 C33.7613187,17.7305717 34.119925,15.7388569 34.119925,13.7538257 L34.119925,2.79708945 C34.119925,1.25513526 32.8635919,0 31.3201662,0 C30.609759,0 29.9317636,0.266652865 29.4128283,0.750062012 C29.4007172,0.760894064 29.3898748,0.771610882 29.3777636,0.783710515 L24.6019216,5.55511437 C22.4559358,4.35252608 20.0444269,3.72092524 17.5600202,3.72092524 C15.0757288,3.72092524 12.6628357,4.35252608 10.5181187,5.55511437 L5.74216137,0.78382575 C5.73005019,0.771726117 5.71920781,0.760894064 5.70709663,0.750177246 C5.1881614,0.266652865 4.510166,0 3.79975879,0 C2.25633307,0 1,1.25513526 1,2.79708945 L1,13.7538257 C1,18.1480667 2.75369887,22.582755 5.80963795,25.9212166 C7.02144802,27.2450317 8.37617001,28.3412585 9.83066506,29.1936488 C9.75926677,30.0663204 9.73492907,30.9524745 9.75926677,31.8385134 C9.86572981,35.8085758 10.9360121,39.7126088 12.8529235,43.1656136 L12.8529235,50.8135035 L12.8017105,50.8135035 C10.5424564,50.8135035 8.70386394,52.6490755 8.70386394,54.9060604 L8.70386394,56.4129832 C8.70386394,57.8391266 9.86584516,59 11.2919654,59 L18.2691586,59 C20.0256257,59 21.5245284,57.874158 22.0812967,56.3066217 L23.4912687,56.3066217 L23.4912687,56.336237 C23.4912687,57.8040953 24.6869305,59 26.1561897,59 L41.571761,59 C45.5536863,59 49.3361809,57.0809982 51.6870186,53.8690642 C51.9404306,53.5256651 52.1790785,53.1619847 52.3988099,52.7849371 C52.402847,52.7795211 52.4054999,52.7742203 52.4096523,52.7688042 C52.4177264,52.7540542 52.4271847,52.7391889 52.4366429,52.7230561 C54.2519358,49.6998764 55.0794724,46.2778482 55,43 Z M7.79783233,24.1031604 C7.51881381,23.797443 7.25329061,23.4810088 6.99987858,23.1551253 L7.97442487,23.072963 C8.71585978,23.0096992 9.26709149,22.3578171 9.20376732,21.6172043 C9.14171194,20.8752087 8.48932304,20.3257702 7.74661934,20.389034 L5.37017513,20.5896574 C5.12622136,20.1102815 4.90914288,19.6186907 4.7164021,19.1190334 L7.68467931,19.5122139 C7.74396642,19.5202803 7.80325353,19.5229307 7.86265598,19.5229307 C8.52854019,19.5229307 9.10814667,19.0313399 9.19719267,18.3539909 C9.29558159,17.6160285 8.77664637,16.9385643 8.03797973,16.841652 L3.92525368,16.2962467 C3.77565177,15.4545732 3.69606402,14.6034504 3.69606402,13.7537105 L3.69606402,2.79708945 C3.69606402,2.74050926 3.74323995,2.69337831 3.79987413,2.69337831 C3.80933239,2.69337831 3.83493888,2.69337831 3.86192951,2.71354436 L9.36305817,8.21081096 C9.81866923,8.66460481 10.5304606,8.73466745 11.065544,8.37778589 C12.9904143,7.09303534 15.2361731,6.41430354 17.5601355,6.41430354 C19.8827138,6.41430354 22.1297414,7.09303534 24.054727,8.37778589 C24.5899258,8.73466745 25.3016018,8.66460481 25.7572128,8.21081096 L31.2583415,2.71354436 C31.2853321,2.69337831 31.3109386,2.69337831 31.3203969,2.69337831 C31.377031,2.69337831 31.424207,2.74050926 31.424207,2.79708945 L31.424207,13.7538257 C31.424207,14.6035656 31.3460034,15.4546884 31.1950173,16.2963619 L27.0810225,16.8417673 C26.3436246,16.9386796 25.8246894,17.6161438 25.9218095,18.3541062 C26.0121243,19.0314551 26.590462,19.5230459 27.2563462,19.5230459 C27.3156333,19.5230459 27.3749204,19.5190127 27.4355917,19.5122139 L30.4038689,19.1190334 C30.2125123,19.6186907 29.9940496,20.1101662 29.7500959,20.5896574 L27.3722675,20.389034 C26.6295638,20.3257702 25.9784437,20.8752087 25.9151195,21.6172043 C25.8530642,22.3579323 26.4031424,23.0096992 27.144462,23.072963 L28.1203924,23.1551253 C27.8669804,23.4810088 27.6014572,23.797443 27.3224387,24.1031604 C24.6494436,27.0214766 21.1824164,28.6280774 17.5603662,28.6280774 C13.9383159,28.6280774 10.4709428,27.0214766 7.79783233,24.1031604 Z M50.131251,51.3266432 L49.4923574,52.3042936 C47.6443067,54.8105309 44.6854877,56.3067369 41.5716457,56.3067369 L26.1869867,56.3067369 L26.1869867,54.736435 C26.1869867,53.8705622 26.8905886,53.1661331 27.757403,53.1661331 L31.7461337,53.1661331 C32.22193,53.1661331 32.6613929,52.9156131 32.9053466,52.5062998 C33.1480316,52.0982541 33.1573745,51.5919133 32.929569,51.1744183 C32.1491476,49.7442417 31.7365601,48.1201252 31.7365601,46.4798759 C31.7365601,41.0607384 36.1484899,36.6530149 41.571415,36.6530149 C42.3155028,36.6530149 42.919447,36.0496466 42.919447,35.3062682 C42.919447,34.561507 42.3155028,33.9595214 41.571415,33.9595214 C34.6616984,33.9595214 29.0406114,39.5752492 29.0406114,46.4797607 C29.0406114,47.8398747 29.2629957,49.1906547 29.6930003,50.4727548 L27.7572877,50.4727548 C25.7933157,50.4727548 24.1366216,51.8060192 23.6419087,53.6132434 L22.3127932,53.6132434 L22.3127932,45.0038359 C22.3127932,44.2590747 21.7088491,43.6570892 20.9647612,43.6570892 C20.2192893,43.6570892 19.6167292,44.2590747 19.6167292,45.0038359 L19.6167292,54.9599902 C19.6167292,55.7019857 19.0115162,56.3067369 18.2686972,56.3067369 L11.3993512,56.3067369 L11.3993512,54.9061756 C11.3993512,54.1345647 12.0289019,53.5069971 12.8012492,53.5069971 L14.2004942,53.5069971 C14.944582,53.5069971 15.5485262,52.9036287 15.5485262,52.1602503 L15.5485262,43.1778285 C15.6213086,42.857361 15.5795539,42.5098135 15.4015772,42.2028285 C13.5710588,39.0448243 12.5519895,35.4356766 12.4548694,31.7659156 C12.4427582,31.3188053 12.4454112,30.8716951 12.4602906,30.4273504 C14.0940311,31.0158535 15.8100123,31.3215709 17.5596741,31.3215709 C21.9486504,31.3215709 26.1206636,29.4038367 29.3100563,25.9213319 C30.3655745,24.7685249 31.2646854,23.48654 31.9898568,22.1196272 L44.7700353,30.1836293 C52.1127554,34.8134098 54.4635931,44.0976311 50.131251,51.3266432 Z"/>
    <ellipse class="pets" cx="25.7" cy="12.735" fill="#7F7F7F" fill-rule="nonzero" rx="1.459" ry="1.473"/>
  </g>
</svg>
