<?xml version="1.0" encoding="UTF-8"?>
<svg width="110px" class="rent-house" height="72px" alt="השכרה" viewBox="0 0 110 72" version="1.1" xmlns="http://www.w3.org/2000/svg" xmlns:xlink="http://www.w3.org/1999/xlink">
    <!-- Generator: sketchtool 51 (57462) - http://www.bohemiancoding.com/sketch -->
    <title>השכרה</title>
    <desc>Created with sketchtool.</desc>
    <defs></defs>
    <g id="Symbols" stroke="none" stroke-width="1" fill="none" fill-rule="evenodd">
        <g id="rent-house" transform="translate(0.000000, -19.000000)">
            <g transform="translate(0.000000, 19.000000)">
                <path d="M62.0666123,53.4069165 C62.0682476,53.4253997 62.0699181,53.4438802 62.0716253,53.462358 C62.0732029,53.4801696 62.0746228,53.4978235 62.0763582,53.5154774 C62.1752768,54.5556391 62.3699586,55.5838214 62.6567752,56.584577 C62.6637168,56.6083783 62.6711318,56.6318643 62.6780734,56.6556655 C62.7130972,56.7759327 62.7496987,56.8957271 62.7874045,57.0152062 C62.811227,57.0902353 62.8356806,57.1651067 62.8606074,57.2398206 C62.8800125,57.2984568 62.8998909,57.3567777 62.919927,57.4152563 C65.210042,64.0493411 71.5212681,68.8283475 78.9292757,68.8283475 C87.7580913,68.8283475 95.0301494,62.0408986 95.7922795,53.414486 C95.8359399,53.9086527 95.8582358,54.4088585 95.8582358,54.9141737 C95.8585513,64.2406365 88.2640657,71.8283475 78.9292757,71.8283475 C71.5212681,71.8283475 65.210042,67.0493411 62.919927,60.4152563 C62.8998909,60.3567777 62.8800125,60.2984568 62.8606074,60.2398206 C62.8356806,60.1651067 62.811227,60.0902353 62.7874045,60.0152062 C62.7496987,59.8957271 62.7130972,59.7759327 62.6780734,59.6556655 C62.6711318,59.6318643 62.6637168,59.6083783 62.6567752,59.584577 C62.3699586,58.5838214 62.1752768,57.5556391 62.0763582,56.5154774 C62.0746228,56.4978235 62.0732029,56.4801696 62.0716253,56.462358 C62.058373,56.3189201 62.0473295,56.1753245 62.0378636,56.0315713 C62.0353393,55.9934262 62.0328151,55.9552812 62.0306064,55.9169785 C62.0230337,55.7889877 62.0171964,55.6609969 62.0124634,55.5326909 C62.0108858,55.4909205 62.0088348,55.4494653 62.0077305,55.4076949 C62.0029975,55.2432929 62,55.0787333 62,54.9141737 C62,54.4062919 62.0225172,53.9035557 62.0666123,53.4069165 Z" id="Combined-Shape" fill-opacity="0.1" fill="#000000"></path>
                <rect id="Rectangle-5-Copy" fill-opacity="0.1" fill="#000000" x="24" y="64" width="46" height="4" rx="2"></rect>
                <path d="M107.669413,12.507125 C108.909483,12.507125 109.914741,11.5018393 109.914741,10.2617695 C109.914741,9.19653082 109.172667,8.30517206 108.177437,8.07487222 C108.157081,5.82095589 106.32395,4 104.065223,4 C102.514491,4 101.164462,4.85839278 100.463751,6.12583005 C100.250546,6.03356335 100.015544,5.98219839 99.7684761,5.98219839 C98.8784219,5.98219839 98.1438485,6.64589351 98.0313892,7.50526467 C96.8732316,7.73491226 96,8.75628689 96,9.98187122 C96,11.3765523 97.1305999,12.507125 98.5252266,12.507125 C98.9136979,12.507125 107.403266,12.507125 107.669413,12.507125 Z" id="Shape-Copy-4" fill-opacity="0.1" fill="#000000" fill-rule="nonzero"></path>
                <g id="house-3" transform="translate(21.000000, 0.000000)" fill="#7F7F7F" fill-rule="nonzero">
                    <path class="rent-house" d="M64.5208828,35.0912076 L64.5208828,27.6795127 L67.8253984,29.8757627 C69.06975,30.7028602 70.6774766,30.7025636 71.9219766,29.8757627 C72.9551016,29.1891102 73.5718594,28.0391525 73.5718594,26.7994703 C73.5718594,25.5597881 72.9551016,24.4098305 71.9219766,23.723178 L63.3762813,18.0435381 C62.8793125,17.713411 62.2085234,17.8479237 61.87825,18.3444492 C61.5476797,18.8408263 61.6826094,19.5108686 62.1792813,19.8411441 L70.7249766,25.5207839 C71.1607891,25.8104237 71.4107578,26.2765466 71.4107578,26.7994703 C71.4107578,27.3223941 71.1607891,27.7885169 70.7249766,28.0781568 C70.2075234,28.4217797 69.5391094,28.4217797 69.02225,28.0781568 L37.8349375,7.35044492 C37.6774453,7.25582627 37.6406328,7.23728814 37.6036719,7.21963983 C36.8496094,6.94809322 36.2362656,7.01868644 35.7370703,7.35044492 L4.54946094,28.0781568 C4.03215625,28.4217797 3.36374219,28.4217797 2.84673438,28.0781568 C2.41092188,27.7885169 2.16095312,27.3223941 2.16095312,26.7994703 C2.16095312,26.2765466 2.41092188,25.8104237 2.84673438,25.5207839 L36.7859297,2.96417373 L62.1792813,19.8411441 C62.6761016,20.1714195 63.3468906,20.0366102 63.6773125,19.5402331 C64.0078828,19.0438559 63.8729531,18.3738136 63.3762813,18.0435381 L37.8349375,1.06824153 C37.1976953,0.644682203 36.3741641,0.644682203 35.7370703,1.06824153 L25.55025,7.83851695 L25.55025,6.08480932 L25.8595937,6.08480932 C26.6333984,6.08480932 27.2629219,5.45584746 27.2629219,4.68273305 L27.2629219,1.41408898 C27.2629219,0.640974576 26.6333984,0.0120127119 25.8595937,0.0120127119 L14.4515781,0.0120127119 C13.6777734,0.0120127119 13.04825,0.640974576 13.04825,1.41408898 L13.04825,4.68288136 C13.04825,5.45599576 13.6777734,6.08495763 14.4515781,6.08495763 L14.7607734,6.08495763 L14.7607734,15.0093644 L1.64988281,23.7230297 C0.616757813,24.4095339 0,25.5596398 0,26.799322 C0,28.0390042 0.616757813,29.1891102 1.64988281,29.8757627 C2.27198438,30.2892373 2.98507812,30.4959746 3.69802344,30.4959746 C4.41111719,30.4959746 5.12421094,30.2892373 5.7463125,29.8757627 L9.05082813,27.6795127 L9.05082812,54.0927609 C9.05082812,54.6889474 9.53458594,55.1722737 10.1313047,55.1722737 C10.7280234,55.1722737 11.2117812,54.6889474 11.2117812,54.0927609 L11.2117812,26.2433263 L36.7859297,9.24637712 L62.3599297,26.2433263 L62.3599297,34.3934322 C62.2668594,34.3698517 62.1731953,34.3492373 62.0798281,34.3271398 C61.8472266,34.2730085 61.7415391,34.2500212 61.6357031,34.2279237 C61.3535234,34.1709746 61.2555547,34.1516949 61.1571406,34.1338983 C60.8449766,34.0806568 60.7557656,34.0647881 60.6662578,34.0511441 C60.5115859,34.0274153 60.3561719,34.0057627 60.2001641,33.9860381 C59.8871094,33.9501483 59.7855781,33.9387288 59.6836016,33.9287924 C59.3622344,33.9004661 59.2601094,33.8926059 59.1578359,33.8856356 C58.8348359,33.8657627 58.7230625,33.8610169 58.6109922,33.8567161 C58.2651328,33.8451483 58.1014063,33.8424788 57.9372344,33.8421822 C49.1831328,33.8417373 41.8792656,40.0491949 40.1896016,48.277161 C39.9482422,49.4526271 39.8214766,50.669322 39.8214766,51.9149364 C39.8214766,52.0668008 39.8234063,52.2186653 39.8272656,52.3703814 C39.8694219,54.0650636 40.1464063,55.7023517 40.6266016,57.2513983 C40.6506484,57.3286653 40.6729141,57.3958475 40.6947344,57.463178 C40.857125,57.9678602 41.0404453,58.465572 41.2467734,58.9539407 L35.92425,58.9539407 L35.92425,33.8211229 C35.92425,32.5675 34.9034453,31.5477542 33.6488516,31.5477542 L17.8050781,31.5477542 C16.5503359,31.5477542 15.5296797,32.5676483 15.5296797,33.8211229 L15.5296797,58.9537924 L11.2117812,58.9537924 L11.2117812,53.5255297 C11.2117812,52.9293432 10.7280234,52.4460169 10.1313047,52.4460169 C9.53458594,52.4460169 9.05082813,52.9293432 9.05082813,53.5255297 L9.05082813,58.9537924 L4.60378906,58.9537924 C2.95064063,58.9537924 1.6055,60.2975847 1.6055,61.9494068 C1.6055,63.6010805 2.95049219,64.9450212 4.60378906,64.9450212 L45.3884766,64.9450212 C48.6410391,68.0663983 53.0552734,69.9879873 57.9106641,69.9879873 C67.8852187,69.9881356 76,61.8804449 76,51.9149364 C76,44.2788559 71.2356016,37.7340042 64.5208828,35.0912076 Z M23.3892969,9.27470339 L16.9217266,13.5730297 L16.9217266,6.08480932 L23.3892969,6.08480932 L23.3892969,9.27470339 Z M15.2092031,2.17088983 L25.1019687,2.17088983 L25.1019687,3.9257839 L15.2092031,3.9257839 L15.2092031,2.17088983 Z M17.6904844,33.8211229 C17.6904844,33.7579449 17.7418438,33.7067797 17.8049297,33.7067797 L33.6484063,33.7067797 C33.7116406,33.7067797 33.7628516,33.7580932 33.7628516,33.8211229 L33.7628516,58.9537924 L17.6904844,58.9537924 L17.6904844,33.8211229 Z M4.60378906,62.7861441 C4.14214844,62.7861441 3.76645312,62.4107839 3.76645312,61.9495551 C3.76645312,61.488178 4.14214844,61.1129661 4.60378906,61.1129661 L42.3364531,61.1129661 C42.6791953,61.6910593 43.054,62.2495763 43.4589375,62.7861441 L4.60378906,62.7861441 Z M57.9106641,67.8291102 C50.9406328,67.8291102 45.0025391,63.3326483 42.8478203,57.0907839 C42.8289687,57.0357627 42.8102656,56.9808898 42.7920078,56.9257203 C42.7685547,56.8554237 42.7455469,56.7849788 42.7231328,56.7143856 C42.6876562,56.6019703 42.6532187,56.4892585 42.6202656,56.3761017 C42.6137344,56.3537076 42.6067578,56.3316102 42.6002266,56.3092161 C42.3303672,55.3676271 42.1471953,54.4002331 42.054125,53.4215678 C42.0524922,53.4049576 42.0511562,53.3883475 42.0496719,53.371589 C42.0372031,53.2366314 42.0268125,53.1015254 42.0179063,52.9662712 C42.0155312,52.9303814 42.0131563,52.8944915 42.0110781,52.8584534 C42.0039531,52.7380297 41.9984609,52.6176059 41.9940078,52.4968856 C41.9925234,52.4575847 41.9905937,52.4185805 41.9895547,52.3792797 C41.9851016,52.2245975 41.9822813,52.0697669 41.9822813,51.9149364 C41.9822813,50.818072 42.0939063,49.7467161 42.3064688,48.7116949 C43.7942578,41.4665466 50.2256094,36.0007627 57.9106641,36.0007627 C57.9136328,36.0007627 57.91675,36.000911 57.9197188,36.000911 C58.1126875,36.0010593 58.3050625,36.0058051 58.4971406,36.0127754 C58.5421172,36.0144068 58.5870938,36.0158898 58.6319219,36.0179661 C58.8177656,36.0262712 59.0031641,36.0375424 59.1879688,36.0522246 C59.2333906,36.0557839 59.2785156,36.0603814 59.3236406,36.0642373 C59.4812813,36.0780297 59.638625,36.0943432 59.7955234,36.1128814 C59.8387187,36.1179237 59.8822109,36.1222246 59.9254063,36.1277119 C60.097,36.1493644 60.268,36.1748729 60.4385547,36.202161 C60.5060937,36.2129873 60.5734844,36.2241102 60.6407266,36.235678 C60.8011875,36.263411 60.9613516,36.293072 61.1207734,36.3256992 C61.1957344,36.3411229 61.2699531,36.3580297 61.3444688,36.3744915 C61.4477813,36.3971822 61.5506484,36.4210593 61.6535156,36.4458263 C61.7764219,36.4754873 61.8988828,36.5066314 62.02075,36.5391102 C62.1172344,36.5647669 62.2137187,36.5910169 62.3097578,36.6186017 C62.4123281,36.6481144 62.5146016,36.6783686 62.6162813,36.7099576 C62.6646719,36.7249364 62.7129141,36.7409534 62.7611562,36.7563771 C69.1792969,38.8112924 73.83875,44.8292161 73.83875,51.9149364 C73.8390469,60.69 66.6935625,67.8291102 57.9106641,67.8291102 Z" id="Shape"></path>
                    <path class="rent-house" d="M30.4768906,43.5755932 C29.88225,43.5755932 29.4004219,44.0569915 29.4004219,44.6511017 L29.4004219,46.8738983 C29.4004219,47.4680085 29.88225,47.9494068 30.4768906,47.9494068 C31.0715313,47.9494068 31.5533594,47.4680085 31.5533594,46.8738983 L31.5533594,44.6511017 C31.5533594,44.0569915 31.0715313,43.5755932 30.4768906,43.5755932 Z" id="Shape"></path>
                </g>
                <path d="M19.8997468,14.507125 C22.0144269,14.507125 23.7286853,12.7928202 23.7286853,10.6781401 C23.7286853,8.86159804 22.4632327,7.34157182 20.7660756,6.94884354 C20.7313631,3.10525997 17.6053405,0 13.7535539,0 C11.1091031,0 8.80691083,1.46380962 7.61199541,3.62515917 C7.2484182,3.4678176 6.84767221,3.38022538 6.42634901,3.38022538 C4.90854736,3.38022538 3.65588597,4.51201879 3.46410999,5.97749683 C1.48911404,6.36911283 0,8.11085395 0,10.2008321 C0,12.5791693 1.92800203,14.507125 4.30624659,14.507125 C4.96870329,14.507125 19.4458894,14.507125 19.8997468,14.507125 Z" id="Shape-Copy-3" fill-opacity="0.1" fill="#000000" fill-rule="nonzero"></path>
                <text id="shekel" font-family="Rubik-Medium, Rubik" font-size="18" font-weight="400" fill="#7F7F7F">
                    <tspan x="86" y="58">₪</tspan>
                </text>
            </g>
        </g>
    </g>
</svg>