<?xml version="1.0" encoding="UTF-8"?>
<svg id="subCategoryRealEstateSale" alt="מכירה" width="80px" height="78px" viewBox="0 0 80 78" version="1.1" xmlns="http://www.w3.org/2000/svg" xmlns:xlink="http://www.w3.org/1999/xlink">
    <!-- Generator: sketchtool 51 (57462) - http://www.bohemiancoding.com/sketch -->
    <title>מכירה</title>
    <desc>Created with sketchtool.</desc>
    <defs></defs>
    <g id="Symbols" stroke="none" stroke-width="1" fill="none" fill-rule="evenodd">
        <g id="sell-house" transform="translate(-19.000000, -16.000000)">
            <g id="sell-house" transform="translate(19.000000, 16.000000)">
                <rect id="Rectangle-5" fill-opacity="0.1" fill="#000000" x="4" y="74" width="64" height="4" rx="2"></rect>
                <g id="house-4" fill="#7F7F7F" fill-rule="nonzero">
                    <path class="sell-house" d="M66.8980705,68.8597953 C66.1841286,66.4684211 64.5096473,64.6517544 62.328029,63.9826023 L62.328029,36.1647661 L63.9237967,37.7843567 C64.5568465,38.4270468 65.4006224,38.7826023 66.2995851,38.7859649 C67.2062448,38.7859649 68.0476971,38.4366959 68.6823444,37.8017544 C69.9965145,36.4871345 70.0042116,34.3400585 68.6993361,33.0160819 L61.1720124,25.376462 C60.7482365,24.9464912 60.0585477,24.9437135 59.631722,25.3700292 C59.2046058,25.7964912 59.2017012,26.4907895 59.625332,26.920614 L67.1528008,34.5603801 C67.6124481,35.0267544 67.6096888,35.7830409 67.1467012,36.2461988 C66.923195,36.4697368 66.6267842,36.5928363 66.3117842,36.5928363 C65.9906846,36.5916667 65.6934025,36.4663743 65.4704772,36.2400585 L36.7062863,7.04707602 C36.333195,6.66842105 35.8575726,6.43216374 35.3424481,6.35862573 C35.229751,6.34254386 35.1158921,6.33143275 35,6.33143275 C34.9192531,6.33143275 34.8392324,6.33538012 34.7599378,6.34327485 C34.205166,6.39824561 33.6914938,6.64327485 33.2937137,7.04707602 L4.52937759,36.2402047 C4.30630705,36.4666667 4.00917012,36.5918129 3.69242739,36.5929825 C3.37307054,36.5929825 3.07651452,36.469883 2.8530083,36.246345 C2.39002075,35.7831871 2.38726141,35.0269006 2.84690871,34.5603801 L34.5550207,2.37953216 C34.673527,2.25921053 34.8315353,2.19298246 34.9998548,2.19298246 C35.1681743,2.19298246 35.3261826,2.25921053 35.4446888,2.37953216 L59.625332,26.920614 C60.0491079,27.3505848 60.7386515,27.3533626 61.1656224,26.9270468 C61.5927386,26.5005848 61.5956432,25.8062865 61.1720124,25.376462 L36.9916598,0.835380117 C36.4608506,0.296637427 35.7535892,0 35,0 C34.2464108,0 33.5391494,0.296637427 33.0084855,0.835380117 L19.4222407,14.6241228 L19.4222407,13.2641813 L19.6826349,13.2641813 C20.4810996,13.2641813 21.1307054,12.6100877 21.1307054,11.8062865 L21.1307054,8.84283626 C21.1307054,8.03903509 20.4810996,7.38494152 19.6826349,7.38494152 L8.73024896,7.38494152 C7.93178423,7.38494152 7.28217842,8.03903509 7.28217842,8.84283626 L7.28217842,11.8064327 C7.28217842,12.6102339 7.93178423,13.2643275 8.73024896,13.2643275 L8.99064315,13.2643275 L8.99064315,25.2109649 L1.30037344,33.0160819 C-0.00435684647,34.3403509 0.00319502075,36.4869883 1.31736515,37.8020468 C1.95215768,38.4369883 2.79346473,38.7861111 3.68778008,38.7861111 C4.59908714,38.7828947 5.44286307,38.4273392 6.07591286,37.7846491 L7.6716805,36.1650585 L7.6716805,57.3391779 C7.6716805,57.9448797 8.15935685,58.4356691 8.76089212,58.4356691 C9.36242739,58.4356691 9.85010373,57.9448797 9.85010373,57.3391779 L9.85010373,33.9540936 L34.840249,8.59152047 C35.0425519,8.5245614 35.105,8.53625731 35.1594606,8.59152047 L60.1494606,33.9540936 L60.1494606,63.4935673 C60.0547718,63.3923977 60.0098963,63.3460526 59.9650207,63.2997076 C59.9144813,63.2475146 59.8637967,63.195614 59.8120954,63.1450292 C59.6185062,62.9625731 59.5653527,62.9140351 59.5113278,62.8666667 C59.3085892,62.694883 59.2532573,62.6497076 59.1970539,62.6055556 C58.9857469,62.4445906 58.9282365,62.402924 58.8701452,62.3618421 C58.6511411,62.2124269 58.5913071,62.1739766 58.5311826,62.1361111 C58.3052075,61.998538 58.2433402,61.9634503 58.1811826,61.9289474 C57.9486722,61.8035088 57.8847718,61.7719298 57.8207261,61.7406433 C57.5825519,61.6277778 57.5166183,61.5997076 57.4505394,61.5714912 C57.2071369,61.471345 57.1390249,61.4466374 57.0709129,61.4219298 C56.8232988,61.3349415 56.7527178,61.3137427 56.6822822,61.2923977 C56.4317635,61.2190058 56.3585685,61.201462 56.2855187,61.1834795 C56.033112,61.1238304 55.956722,61.1099415 55.8804772,61.095614 C55.6270539,61.0497076 55.5458714,61.0397661 55.4649793,61.0290936 C55.2105394,60.997076 55.1194813,60.9907895 55.0285685,60.9842105 C54.7527801,60.9654971 54.6148133,60.9615497 54.4762656,60.9615497 C53.7947095,60.9615497 53.1292739,61.0517544 52.4934647,61.222807 C50.2223859,61.8334795 48.3268672,63.473538 47.4056846,65.7090643 C47.3021369,65.7504386 47.2014938,65.7950292 47.1025934,65.8413743 C46.9486515,65.9171053 46.880249,65.9517544 46.813444,65.9881579 C46.6545643,66.077924 46.5937137,66.1143275 46.5340249,66.1517544 C46.3787759,66.2517544 46.3169087,66.2951754 46.2559129,66.3393275 C46.1038589,66.4513158 46.0232573,66.5154971 45.9455602,66.5823099 C45.8530498,66.6637427 45.78639,66.7252924 45.7217635,66.7885965 C45.6054357,66.9074561 45.5576556,66.9578947 45.5113278,67.0096491 C45.3965975,67.1425439 45.3539004,67.1951754 45.3123651,67.248538 C45.203444,67.3919591 45.1595851,67.455117 45.116888,67.519152 C45.0203112,67.6653509 44.9675934,67.752924 44.9177801,67.8425439 C44.851556,67.9668129 44.813361,68.0410819 44.7774896,68.1168129 C44.7063278,68.2745614 44.6785892,68.3393275 44.6523029,68.405117 C44.5869502,68.5767544 44.5635685,68.6442982 44.5413485,68.7125731 C44.5160788,68.7908382 43.928195,68.8401559 42.7776971,68.8605263 L42.7776971,47.7114035 C42.7776971,46.1961988 41.5531328,44.9634503 40.0479876,44.9634503 L29.9524481,44.9634503 C28.4473029,44.9634503 27.2227386,46.1961988 27.2227386,47.7114035 L27.2227386,68.8597953 L25.5070124,68.8597953 C25.4361411,68.6418129 25.4136307,68.5767544 25.3898133,68.5127193 C25.321556,68.3383041 25.2949793,68.276462 25.2675311,68.2153509 C25.1878008,68.0426901 25.1522199,67.9733918 25.1154772,67.905117 C25.0321162,67.751462 24.9804149,67.6654971 24.9260996,67.5814327 C24.836639,67.449269 24.7956846,67.3900585 24.7529876,67.3324561 C24.6446473,67.1926901 24.6041286,67.1425439 24.5623029,67.0935673 C24.4424896,66.9573099 24.3970332,66.9093567 24.3507054,66.8619883 C24.2159336,66.7270468 24.1534855,66.6697368 24.0895851,66.6135965 C23.9763071,66.5146199 23.8968672,66.4513158 23.8153942,66.3899123 C23.6793154,66.2919591 23.6206432,66.250731 23.5602282,66.2109649 C23.404834,66.1127193 23.3464523,66.0777778 23.2870539,66.0438596 C23.1200415,65.9511696 23.0546888,65.9179825 22.9884647,65.8855263 C22.7971992,65.7937135 22.6972822,65.7495614 22.5944606,65.7083333 C21.4153527,62.8469298 18.6398963,60.9606725 15.5237344,60.9606725 C15.3851867,60.9606725 15.2472199,60.9647661 15.1096888,60.9722222 C14.8797925,60.9900585 14.7891701,60.996345 14.6991286,61.0062865 C14.4532573,61.0391813 14.3726556,61.0491228 14.2926349,61.0622807 C14.0424066,61.1095029 13.9665975,61.1232456 13.8913693,61.1397661 C13.6399793,61.2013158 13.5676556,61.2185673 13.4960581,61.2384503 C13.2458299,61.3138889 13.1762656,61.3346491 13.1074274,61.3578947 C12.8598133,61.4467836 12.7927178,61.4710526 12.7262033,61.4973684 C12.4822199,61.5997076 12.4173029,61.6274854 12.353112,61.6568713 C12.1140664,61.7722222 12.0511826,61.8033626 11.9890249,61.8359649 C11.7556432,61.9638889 11.6946473,61.9983918 11.6345228,62.0342105 C11.4076763,62.1744152 11.3490041,62.2121345 11.2907676,62.2510234 C11.0710373,62.4032164 11.0143983,62.4442982 10.9583402,62.4862573 C10.7464523,62.65 10.6918465,62.6944444 10.6378216,62.7394737 C10.4346473,62.9141813 10.3822199,62.9621345 10.330083,63.0105263 C10.1362033,63.1957602 10.0860996,63.2469298 10.0361411,63.298538 C9.88452282,63.4586257 9.86709544,63.4755848 9.85068465,63.4937135 L9.85068465,56.5643275 C9.85068465,55.9586257 9.3630083,55.4678363 8.76147303,55.4678363 C8.15993776,55.4678363 7.67226141,55.9586257 7.67226141,56.5643275 L7.67226141,63.9782164 C5.48715768,64.644152 3.81529046,66.4662281 3.26400415,68.8600877 C1.46056017,68.8600877 0.125041494,70.204386 0.125041494,71.8570175 C0.125041494,73.5096491 1.46056017,74.8539474 3.10207469,74.8539474 L66.8982158,74.8539474 C68.5398755,74.8539474 69.875249,73.5096491 69.875249,71.8570175 C69.875249,70.204386 68.5395851,68.8597953 66.8980705,68.8597953 Z M17.243527,16.8349415 L11.1690664,23.0001462 L11.1690664,13.2643275 L17.243527,13.2643275 L17.243527,16.8349415 Z M9.46060166,9.57807018 L18.9519917,9.57807018 L18.9519917,11.071345 L9.46060166,11.071345 L9.46060166,9.57807018 Z M46.8587552,68.8561404 C46.8989834,68.7891813 46.9424066,68.725 46.9882988,68.6627193 C47.0016598,68.6444444 47.0161826,68.627193 47.0301245,68.6093567 C47.0642531,68.5654971 47.0995436,68.5225146 47.1364315,68.4811404 C47.1542946,68.4611111 47.1727386,68.4413743 47.1911826,68.4219298 C47.228361,68.3827485 47.2671369,68.3450292 47.3070747,68.3080409 C47.3253734,68.2910819 47.3433817,68.2738304 47.3622614,68.2573099 C47.416722,68.2097953 47.473361,68.1640351 47.5326141,68.1204678 C47.5376971,68.1166667 47.5423444,68.1125731 47.5474274,68.1087719 C47.6121992,68.0618421 47.6803112,68.0176901 47.7507469,67.9754386 C47.771805,67.9628655 47.7938797,67.9510234 47.8153734,67.9388889 C47.8667842,67.9097953 47.9192116,67.8815789 47.9733817,67.8546784 C47.9995228,67.8416667 48.0260996,67.8290936 48.0529668,67.8166667 C48.1078631,67.7912281 48.1643568,67.7672515 48.2218672,67.744152 C48.2471369,67.7340643 48.271971,67.723538 48.2978216,67.7137427 C48.3813278,67.6824561 48.4668672,67.6527778 48.5558921,67.6263158 C48.896888,67.5245614 49.1670124,67.2615497 49.2794191,66.9219298 C50.0258921,64.6681287 52.1142739,63.1539474 54.4762656,63.1539474 C56.2439834,63.1539474 57.9126556,64.020614 58.9401452,65.472076 C59.1713485,65.7983918 59.5604149,65.9722222 59.9563071,65.9245614 C60.0454772,65.9138889 60.1346473,65.9064327 60.2238174,65.9016082 C60.248361,65.9002924 60.2726141,65.9002924 60.2971577,65.8994152 C60.3598963,65.897076 60.4226349,65.895614 60.4852282,65.8960526 C60.5425934,65.8964912 60.600249,65.8994152 60.6579046,65.9023392 C60.6949378,65.9042398 60.731971,65.9049708 60.7690041,65.9078947 C60.8607884,65.9150585 60.9527178,65.9248538 61.0449378,65.9383041 C61.0472614,65.9385965 61.0495851,65.9387427 61.0519087,65.9391813 C62.4629461,66.146345 63.8957676,67.0852339 64.4813278,68.8599415 L46.856722,68.8599415 C46.8574481,68.8586257 46.858029,68.8574561 46.8587552,68.8561404 Z M29.9521577,47.1564327 L40.0476971,47.1564327 C40.3516598,47.1564327 40.5989834,47.4054094 40.5989834,47.7114035 L40.5989834,68.8597953 L29.4010166,68.8597953 L29.4010166,47.7114035 L29.4008714,47.7114035 C29.4008714,47.4054094 29.648195,47.1564327 29.9521577,47.1564327 Z M8.94838174,65.9388889 C8.94881743,65.9388889 8.94910788,65.9388889 8.94954357,65.9387427 C9.04350622,65.925 9.13732365,65.9150585 9.23085062,65.9077485 C9.26773859,65.9049708 9.30477178,65.9040936 9.34165975,65.902193 C9.39946058,65.899269 9.45711618,65.896345 9.51448133,65.8959064 C9.57707469,65.8954678 9.63981328,65.8969298 9.70255187,65.899269 C9.72709544,65.9001462 9.75134855,65.9001462 9.77589212,65.901462 C9.86506224,65.9064327 9.95423237,65.9137427 10.0432573,65.9244152 C10.4387137,65.9711988 10.828361,65.798538 11.0594191,65.4719298 C12.0869087,64.0203216 13.7555809,63.1538012 15.5232988,63.1538012 C17.8851452,63.1538012 19.9736722,64.6679825 20.7202905,66.9217836 C20.7484647,67.0067251 20.7863693,67.0868421 20.8328423,67.1608187 C20.9722614,67.3828947 21.1880705,67.5498538 21.4438174,67.6261696 C21.5329876,67.6527778 21.6186722,67.6824561 21.7023237,67.7137427 C21.7277386,67.7232456 21.7521369,67.7336257 21.7771162,67.7437135 C21.8352075,67.7669591 21.8921369,67.7910819 21.9473237,67.8166667 C21.9739004,67.8289474 22.0000415,67.8413743 22.0260373,67.8542398 C22.0804979,67.8812865 22.133361,67.9096491 22.1850622,67.9390351 C22.2062656,67.9511696 22.2280498,67.9627193 22.2488174,67.9751462 C22.3192531,68.0175439 22.3876556,68.0616959 22.4525726,68.1087719 C22.4572199,68.1121345 22.4612863,68.1157895 22.4659336,68.119152 C22.5257676,68.1630117 22.5828423,68.2092105 22.6377386,68.2571637 C22.6566183,68.273538 22.6743361,68.2907895 22.6926349,68.3076023 C22.7325726,68.3445906 22.7714938,68.3824561 22.8086722,68.4216374 C22.8272614,68.4410819 22.8455602,68.4608187 22.8634232,68.480848 C22.9003112,68.5222222 22.9354564,68.5650585 22.9695851,68.6087719 C22.983527,68.6267544 22.998195,68.644152 23.0117012,68.6624269 C23.0574481,68.7247076 23.1008714,68.7887427 23.1409544,68.8555556 C23.1416805,68.8568713 23.1422614,68.8581871 23.1431328,68.8593567 L5.51823651,68.8593567 C6.10394191,67.0849415 7.53719917,66.1459064 8.94838174,65.9388889 Z M66.8980705,72.6608187 L3.10192946,72.6608187 C2.66159751,72.6608187 2.3033195,72.3001462 2.3033195,71.8568713 C2.3033195,71.4135965 2.66159751,71.052924 3.10192946,71.052924 L66.8980705,71.052924 C67.3384025,71.052924 67.6966805,71.4135965 67.6966805,71.8568713 C67.6966805,72.3001462 67.3384025,72.6608187 66.8980705,72.6608187 Z" id="Shape"></path>
                    <path class="sell-house" d="M54.0065975,47.4695906 L47.519834,47.4695906 C46.639751,47.4695906 45.9239212,48.1902047 45.9239212,49.0761696 L45.9239212,57.2387427 C45.9239212,58.1247076 46.6398963,58.8453216 47.519834,58.8453216 L54.0065975,58.8453216 C54.8866805,58.8453216 55.6025104,58.1245614 55.6025104,57.2387427 L55.6025104,49.0761696 C55.6025104,48.1902047 54.8865353,47.4695906 54.0065975,47.4695906 Z M53.4242324,56.6524854 L48.1023444,56.6524854 L48.1023444,49.6625731 L53.4242324,49.6625731 L53.4242324,56.6524854 Z" id="Shape"></path>
                    <path class="sell-house" d="M22.4800207,47.4695906 L15.9932573,47.4695906 C15.1131743,47.4695906 14.3973444,48.1903509 14.3973444,49.0761696 L14.3973444,57.2387427 C14.3973444,58.1247076 15.1133195,58.8453216 15.9932573,58.8453216 L22.4800207,58.8453216 C23.3601037,58.8453216 24.0759336,58.1245614 24.0759336,57.2387427 L24.0759336,49.0761696 C24.0759336,48.1902047 23.3599585,47.4695906 22.4800207,47.4695906 Z M21.8975104,56.6523392 L16.5756224,56.6523392 L16.5756224,49.6624269 L21.8975104,49.6624269 L21.8975104,56.6523392 Z" id="Shape"></path>
                    <path class="sell-house" d="M46.989751,26.4086257 L35.9582158,15.2127193 C35.7029046,14.9533626 35.3624896,14.8105263 34.9998548,14.8105263 C34.6372199,14.8105263 34.296805,14.9533626 34.0419295,15.2124269 C34.0407676,15.2135965 23.0114108,26.4074561 23.010249,26.4086257 C22.6253942,26.7991228 22.5125519,27.3795322 22.7226971,27.8872807 C22.9328423,28.3950292 23.4216805,28.7233918 23.9683195,28.7233918 L46.0316805,28.7233918 C46.5783195,28.7233918 47.0671577,28.3951754 47.2771577,27.8872807 C47.4873029,27.379386 47.3744606,26.7989766 46.989751,26.4086257 Z M33.9106432,26.5304094 L25.9583817,26.5304094 L28.1392739,24.3169591 L33.9106432,24.3169591 L33.9106432,26.5304094 Z M33.9106432,22.1238304 L30.3002697,22.1238304 L33.9106432,18.4595029 L33.9106432,22.1238304 Z M36.0892116,18.4595029 L39.6997303,22.1238304 L36.0892116,22.1238304 L36.0892116,18.4595029 Z M36.0892116,26.5304094 L36.0892116,24.3169591 L41.8605809,24.3169591 L44.041473,26.5304094 L36.0892116,26.5304094 Z" id="Shape"></path>
                    <path class="sell-house" d="M37.8775519,56.6894737 C37.2957676,56.6894737 36.8243568,57.1640351 36.8243568,57.7497076 L36.8243568,59.9409357 C36.8243568,60.5266082 37.2957676,61.0011696 37.8775519,61.0011696 C38.4593361,61.0011696 38.9307469,60.5266082 38.9307469,59.9409357 L38.9307469,57.7497076 C38.9307469,57.1641813 38.4593361,56.6894737 37.8775519,56.6894737 Z" id="Shape"></path>
                </g>
                <path d="M75.8997468,14.507125 C78.0144269,14.507125 79.7286853,12.7928202 79.7286853,10.6781401 C79.7286853,8.86159804 78.4632327,7.34157182 76.7660756,6.94884354 C76.7313631,3.10525997 73.6053405,0 69.7535539,0 C67.1091031,0 64.8069108,1.46380962 63.6119954,3.62515917 C63.2484182,3.4678176 62.8476722,3.38022538 62.426349,3.38022538 C60.9085474,3.38022538 59.655886,4.51201879 59.46411,5.97749683 C57.489114,6.36911283 56,8.11085395 56,10.2008321 C56,12.5791693 57.928002,14.507125 60.3062466,14.507125 C60.9687033,14.507125 75.4458894,14.507125 75.8997468,14.507125 Z" id="Shape-Copy-2" fill-opacity="0.1" fill="#000000" fill-rule="nonzero"></path>
            </g>
        </g>
    </g>
</svg>