<?xml version="1.0" encoding="UTF-8"?>
<svg width="548px" height="44px" viewBox="0 0 548 44" version="1.1" xmlns="http://www.w3.org/2000/svg" xmlns:xlink="http://www.w3.org/1999/xlink">
    <!-- Generator: Sketch 52.5 (67469) - http://www.bohemiancoding.com/sketch -->
    <title>Group 2</title>
    <desc>Created with Sketch.</desc>
    <g id="Publish-New-Ad-NADLAN" stroke="none" stroke-width="1" fill="none" fill-rule="evenodd">
        <g id="Nadlan---end" transform="translate(-355.000000, -160.000000)">
            <g id="box-login" transform="translate(281.000000, 159.000000)">
                <g id="Group-2" transform="translate(74.000000, 0.000000)">
                    <g id="Group-9-Copy-3" opacity="0.299999982" transform="translate(0.430225, 13.000000)" fill="#FFA900">
                        <path d="M17.0923186,7.96153846 C16.8639436,7.96153846 16.6355686,7.8755213 16.4612366,7.70451509 C16.1129211,7.36181733 16.1129211,6.80630428 16.4612366,6.46360651 L21.8763381,1.14151019 C22.2250021,0.798812423 22.7898379,0.799155187 23.138502,1.14151019 C23.487166,1.48386528 23.487166,2.03937842 23.138502,2.38207618 L17.7237492,7.70451509 C17.5494171,7.8755213 17.3206934,7.96153846 17.0923186,7.96153846 Z" id="Path"></path>
                        <path d="M4.49789552,20.3461538 C4.2681605,20.3461538 4.03842557,20.2599689 3.86305534,20.0875988 C3.51231489,19.7428587 3.51231489,19.1840351 3.86305534,18.8396397 L8.36726421,14.4121427 C8.71800467,14.0677473 9.28655501,14.0677473 9.63694466,14.4121427 C9.98768511,14.7568828 9.98768511,15.3157064 9.63694466,15.6604465 L5.13273579,20.0875988 C4.95736556,20.2599689 4.72763054,20.3461538 4.49789552,20.3461538 Z" id="Path"></path>
                        <path d="M9.89420606,7.96153846 C9.66245026,7.96153846 9.43069438,7.88545938 9.25378151,7.73360544 L3.86536931,3.09916984 C3.51154356,2.79485337 3.51154356,2.30155638 3.86536931,1.9972399 C4.21884115,1.69322772 4.79239266,1.69322772 5.1462184,1.9972399 L10.5346307,6.6316755 C10.8884564,6.93599198 10.8884564,7.42928896 10.5346307,7.73360544 C10.3577178,7.88576368 10.1259619,7.96153846 9.89420606,7.96153846 Z" id="Path"></path>
                        <path d="M22.5074201,19.4615385 C22.2790451,19.4615385 22.0506701,19.3758655 21.8763381,19.2045198 L16.4612366,13.8821774 C16.1129211,13.5394859 16.1129211,12.9839829 16.4612366,12.641634 C16.8099006,12.2989425 17.3750851,12.2989425 17.7237492,12.641634 L23.138502,17.9636337 C23.487166,18.3063252 23.487166,18.8618283 23.138502,19.2045198 C22.9641699,19.3758655 22.7357949,19.4615385 22.5074201,19.4615385 Z" id="Path"></path>
                        <path d="M13.5,5.30769231 C13.0028906,5.30769231 12.6,4.94559611 12.6,4.49952646 L12.6,0.808165845 C12.6,0.361780451 13.0028906,0 13.5,0 C13.9971093,0 14.4,0.361780451 14.4,0.808165845 L14.4,4.49952646 C14.4,4.94591186 13.9971093,5.30769231 13.5,5.30769231 Z" id="Path"></path>
                        <path d="M26.1692973,11.5 L19.7307027,11.5 C19.2718693,11.5 18.9,11.1036508 18.9,10.6153846 C18.9,10.1267729 19.2718693,9.73076923 19.7307027,9.73076923 L26.1692973,9.73076923 C26.6281307,9.73076923 27,10.1267729 27,10.6153846 C27,11.1036508 26.6281307,11.5 26.1692973,11.5 Z" id="Path"></path>
                        <path d="M13.5,23 C13.0028906,23 12.6,22.6273182 12.6,22.167482 L12.6,14.9863641 C12.6,14.526528 13.0028906,14.1538462 13.5,14.1538462 C13.9971093,14.1538462 14.4,14.526528 14.4,14.9863641 L14.4,22.167482 C14.4,22.6273182 13.9971093,23 13.5,23 Z" id="Path"></path>
                        <path d="M7.27498209,11.5 L0.825017908,11.5 C0.369324464,11.5 0,11.1036508 0,10.6153846 C0,10.1267729 0.369324464,9.73076923 0.825017908,9.73076923 L7.27498209,9.73076923 C7.73067562,9.73076923 8.1,10.1267729 8.1,10.6153846 C8.1,11.1036508 7.73067562,11.5 7.27498209,11.5 Z" id="Path"></path>
                    </g>
                    <g id="Group-9-Copy-2" opacity="0.199999988" transform="translate(482.863966, 20.384763) rotate(-14.000000) translate(-482.863966, -20.384763) translate(464.363966, 4.384763)" fill="#FF7100">
                        <path d="M23.628196,11.3248547 C23.323696,11.3248547 23.019196,11.2089185 22.7867533,10.9784319 C22.3223328,10.5165349 22.3223328,9.76779993 22.7867533,9.30590295 L30.0068887,2.13264268 C30.4717741,1.6707457 31.2248884,1.67120768 31.6897739,2.13264268 C32.1546593,2.5940778 32.1546593,3.34281291 31.6897739,3.80470989 L24.4701035,10.9784319 C24.2376607,11.2089185 23.9326958,11.3248547 23.628196,11.3248547 Z" id="Path"></path>
                        <path d="M6.83563194,28.0171624 C6.52931858,28.0171624 6.22300534,27.901 5.98917837,27.6686752 C5.52152443,27.2040255 5.52152443,26.4508284 5.98917837,25.9866433 L11.9947902,20.0191474 C12.4624441,19.5549623 13.2205113,19.5549623 13.6876975,20.0191474 C14.1553514,20.483797 14.1553514,21.2369942 13.6876975,21.7016438 L7.68208563,27.6686752 C7.44825866,27.901 7.1419453,28.0171624 6.83563194,28.0171624 Z" id="Path"></path>
                        <path d="M14.0307127,11.3248547 C13.7217049,11.3248547 13.4126971,11.2223133 13.1768133,11.0176406 L5.99226365,4.77122744 C5.520496,4.36106175 5.520496,3.6961832 5.99226365,3.28601752 C6.46355945,2.87626197 7.22829479,2.87626197 7.70006245,3.28601752 L14.8846122,9.53243071 C15.3563798,9.9425964 15.3563798,10.6074749 14.8846122,11.0176406 C14.6487283,11.2227235 14.3397205,11.3248547 14.0307127,11.3248547 Z" id="Path"></path>
                        <path d="M30.8483313,26.8248547 C30.5438313,26.8248547 30.2393314,26.7093825 30.0068887,26.4784383 L22.7867533,19.3048464 C22.3223328,18.8429578 22.3223328,18.0942364 22.7867533,17.6328096 C23.2516387,17.170921 24.0052181,17.170921 24.4701035,17.6328096 L31.6897739,24.8059396 C32.1546593,25.2678282 32.1546593,26.0165497 31.6897739,26.4784383 C31.4573311,26.7093825 31.1528312,26.8248547 30.8483313,26.8248547 Z" id="Path"></path>
                        <path d="M18.8384379,7.74793163 C18.1756254,7.74793163 17.6384379,7.25988892 17.6384379,6.65866462 L17.6384379,1.68335248 C17.6384379,1.0817026 18.1756254,0.594085474 18.8384379,0.594085474 C19.5012504,0.594085474 20.0384379,1.0817026 20.0384379,1.68335248 L20.0384379,6.65866462 C20.0384379,7.2603145 19.5012504,7.74793163 18.8384379,7.74793163 Z" id="Path"></path>
                        <path d="M35.7308344,16.0940855 L27.1460415,16.0940855 C26.5342636,16.0940855 26.0384379,15.5598757 26.0384379,14.9017778 C26.0384379,14.2432141 26.5342636,13.7094701 27.1460415,13.7094701 L35.7308344,13.7094701 C36.3426122,13.7094701 36.8384379,14.2432141 36.8384379,14.9017778 C36.8384379,15.5598757 36.3426122,16.0940855 35.7308344,16.0940855 Z" id="Path"></path>
                        <path d="M18.8384379,31.5940855 C18.1756254,31.5940855 17.6384379,31.0917752 17.6384379,30.471996 L17.6384379,20.793098 C17.6384379,20.1733188 18.1756254,19.6710086 18.8384379,19.6710086 C19.5012504,19.6710086 20.0384379,20.1733188 20.0384379,20.793098 L20.0384379,30.471996 C20.0384379,31.0917752 19.5012504,31.5940855 18.8384379,31.5940855 Z" id="Path"></path>
                        <path d="M10.538414,16.0940855 L1.93846179,16.0940855 C1.33087053,16.0940855 0.838437912,15.5598757 0.838437912,14.9017778 C0.838437912,14.2432141 1.33087053,13.7094701 1.93846179,13.7094701 L10.538414,13.7094701 C11.1460054,13.7094701 11.6384379,14.2432141 11.6384379,14.9017778 C11.6384379,15.5598757 11.1460054,16.0940855 10.538414,16.0940855 Z" id="Path"></path>
                    </g>
                    <path d="M435,15.2 L437.488242,15.2 L437.488242,18 C437.488242,19.1044 437.8954,20 439,20 C440.1046,20 440.261868,19.1044 440.261868,18 L440.261868,15.2 L443,15.2 C444.1046,15.2 445,15.1044 445,14 C445,12.8956 444.1046,12.3657143 443,12.3657143 L440.261868,12.3657143 L440.261868,10 C440.261868,8.8956 440.1046,8 439,8 C437.8954,8 437.488242,8.8956 437.488242,10 L437.488242,12.3657143 L435,12.3657143 C433.8954,12.3657143 433,12.8956 433,14 C433,15.1046 433.8954,15.2 435,15.2 Z" id="Path-Copy-5" fill="#FF7100" opacity="0.399999976"></path>
                    <path d="M418.999425,35 C416.242716,35 414,37.2431755 414,40.0005749 C413.999885,42.7572845 416.242601,45 418.999425,45 C421.75671,45 424,42.7572845 424,40.0005749 C424,37.2432905 421.75671,35 418.999425,35 Z M418.999425,42.678978 C417.522526,42.678978 416.321022,41.477359 416.321022,40.0005749 C416.320907,38.523101 417.522526,37.321022 418.999425,37.321022 C420.476899,37.321022 421.678978,38.523101 421.678978,40.0005749 C421.678978,41.4775889 420.477014,42.678978 418.999425,42.678978 Z" id="Shape-Copy-4" fill="#FF7100" fill-rule="nonzero" opacity="0.149999991"></path>
                    <path d="M103.5692,30 C100.812491,30 98.5697751,32.2431755 98.5697751,35.0005749 C98.5696601,37.7572845 100.812376,40 103.5692,40 C106.326485,40 108.569775,37.7572845 108.569775,35.0005749 C108.569775,32.2432905 106.326485,30 103.5692,30 Z M103.5692,37.678978 C102.092301,37.678978 100.890797,36.477359 100.890797,35.0005749 C100.890682,33.523101 102.092301,32.321022 103.5692,32.321022 C105.046674,32.321022 106.248753,33.523101 106.248753,35.0005749 C106.248753,36.4775889 105.046789,37.678978 103.5692,37.678978 Z" id="Shape-Copy-2" fill="#FF7100" fill-rule="nonzero" opacity="0.299999982" transform="translate(103.569775, 35.000000) scale(-1, 1) translate(-103.569775, -35.000000) "></path>
                    <path d="M52.75,24.4499572 L52.75,24.6900865 C55.7942842,25.0329918 58.2054907,26.0955021 59.9554453,27.887916 C61.7045896,29.6794997 62.7361637,32.1419841 63.0626405,35.25 L63.1787153,35.25 C63.5485092,32.1414165 64.5802422,29.6820818 66.2870774,27.8939915 C67.9931973,26.1066507 70.3239575,25.0423397 73.25,24.6936123 L73.25,24.438487 C70.2827711,24.1214541 67.9504625,23.0855855 66.2840885,21.3195242 C64.615323,19.5509283 63.5882686,17.0217858 63.183456,13.75 L63.0644695,13.75 C62.7379123,16.9797052 61.7078601,19.5129011 59.9584723,21.3256308 C58.2108138,23.1365687 55.79736,24.1745071 52.75,24.4499572 Z M63.1162987,35.8497524 C63.1181394,35.8745272 63.1199376,35.8993407 63.1216933,35.9241932 L63.109667,35.9352348 L63.1088763,35.9344972 C63.1112988,35.9061984 63.113773,35.8779501 63.1162987,35.8497524 Z M63.1166956,13.1468434 C63.1142176,13.1215577 63.1117748,13.09623 63.1093671,13.0708604 L63.1213163,13.0817293 C63.1198061,13.1034637 63.1182659,13.1251684 63.1166956,13.1468434 Z" id="Rectangle-Copy-3" stroke="#FFA700" stroke-width="1.5" opacity="0.299999982" fill-rule="nonzero"></path>
                    <path d="M116.45,7.96246555 L116.45,8.1228875 C118.250104,8.33257197 119.676256,8.98040337 120.710446,10.0715707 C121.74375,11.1618034 122.35232,12.6593016 122.544393,14.55 L122.598167,14.55 C122.815898,12.6589242 123.424615,11.1633089 124.432869,10.0752623 C125.441094,8.9872474 126.819682,8.33831394 128.55,8.12506378 L128.55,7.95540187 C126.795416,7.76143328 125.415851,7.12977692 124.431108,6.05470868 C123.445436,4.97862748 122.839448,3.44054532 122.600949,1.45 L122.545457,1.45 C122.35331,3.41485293 121.745629,4.9553704 120.712232,6.05841717 C119.679442,7.16081528 118.251914,7.7937589 116.45,7.96246555 Z M122.569333,14.826998 C122.572385,14.8657696 122.575269,14.9046999 122.577985,14.9437887 L122.564905,14.9558276 L122.558452,14.949795 C122.561905,14.9086865 122.565532,14.8677541 122.569333,14.826998 Z" id="Rectangle-Copy-4" stroke="#FFA700" stroke-width="0.9" opacity="0.299999982" fill-rule="nonzero"></path>
                    <path d="M534.4608,30.9750936 L534.4608,31.109877 C536.397484,31.3164677 537.930265,31.9612705 539.043534,33.0519735 C540.156949,34.1428185 540.814675,35.644355 541.023063,37.5392 L541.130549,37.5392 C541.366473,35.6440428 542.024257,34.1444488 543.110843,33.0556274 C544.196336,31.9679012 545.677941,31.3220263 547.5392,31.1119466 L547.5392,30.9683155 C545.651577,30.7775516 544.169092,30.1490599 543.108961,29.0743595 C542.04653,27.9973265 541.391748,26.4551777 541.133573,24.4608 L541.024233,24.4608 C540.815808,26.429637 540.159054,27.9742669 539.045437,29.0780349 C537.933581,30.1800568 536.399461,30.8097586 534.4608,30.9750936 Z" id="Rectangle-Copy-5" stroke="#FFA500" stroke-width="0.9216" opacity="0.599999964" fill-rule="nonzero"></path>
                </g>
            </g>
        </g>
    </g>
</svg>