<?xml version="1.0" encoding="UTF-8"?>
<svg id="studentSVG" alt="לימודים" xmlns="http://www.w3.org/2000/svg" width="130" height="100" viewBox="0 0 130 100">
  <title>לימודים</title>
  <g fill="none" fill-rule="evenodd" transform="translate(42 24)">
    <path class="student1" fill="#E5E5E5" d="M2,55 L44,55 C45.1045695,55 46,55.8954305 46,57 C46,58.1045695 45.1045695,59 44,59 L2,59 C0.8954305,59 1.3527075e-16,58.1045695 0,57 C-1.3527075e-16,55.8954305 0.8954305,55 2,55 Z"/>
    <g fill-rule="nonzero" transform="translate(4)">
      <path class="student1" fill="#E5E5E5" stroke="#7F7F7F" stroke-width=".3" d="M32.0761326 14.7544531C32.5330387 15.11025 33.0462983 15.3945156 33.6018785 15.5946719 34.1329282 15.7859687 34.6848619 15.8944687 35.2398895 15.919625 35.0183425 18.1003437 34.5107182 20.8153594 33.8132597 23.53125L27.4967956 23.53125C29.1841989 19.7464375 30.7427624 16.7600625 32.0761326 14.7544531zM3.77690608 14.2337187C4.26640884 14.3352187 4.76497238 14.3871719 5.26629834 14.3871719 5.90508287 14.3871719 6.54828729 14.3040469 7.18187845 14.1360469 8.31314917 13.8361406 9.3321547 13.2853281 10.1801105 12.5340312L11.3387845 16.8135469 13.0832044 23.53125 6.21701657 23.53125 4.94055249 18.5327031C4.93933702 18.5276719 4.93801105 18.5226406 4.93657459 18.5177187L3.77690608 14.2337187z"/>
      <path class="student" fill="#7F7F7F" d="M25.5080663,0.849975991 C26.1574724,0.849975991 26.6922451,1.33912278 26.756555,1.96652922 L26.7630387,2.09375 L26.763,19.517 L26.9747551,19.0841887 C28.0458345,16.9024927 29.0760492,15.0337409 30.0420291,13.5656753 L30.2637966,13.2340437 L30.432,12.99 L30.3482429,12.8241624 C29.7943248,11.6480933 29.6689437,10.3229493 29.9924729,9.06713025 L30.0686791,8.79916687 L30.158672,8.53380323 C30.5718187,7.41079972 31.9134739,5.90983483 33.9071,4.1634289 C35.2156359,3.01715832 36.6006503,1.9398748 37.7740761,1.08963642 C38.1098091,0.84632166 38.5455287,0.783828956 38.9374189,0.922607653 C39.3294707,1.06161225 39.6266149,1.38447353 39.7301758,1.78443327 C40.0938809,3.18789642 40.4751984,4.9035962 40.7506643,6.6219899 C41.1703786,9.24022415 41.2384353,11.2517181 40.8242027,12.3776764 C40.2921116,13.8241415 39.2017954,14.9724423 37.7974756,15.587412 L37.634,15.654 L37.6004488,16.0241187 C37.417447,17.8885983 37.0364165,20.1199144 36.510724,22.417197 L36.3638067,23.0451381 L36.258,23.476 L36.28938,23.4831723 C37.6899901,23.8278738 38.734586,25.0077798 38.8959969,26.4279564 L38.9124836,26.6230503 L38.9177348,26.8125 C38.9177348,27.7287425 38.5567868,28.5910193 37.9020813,29.2390755 C37.5855328,29.5523118 37.2164565,29.7991993 36.8122248,29.9699799 L36.707,30.009 L36.7077901,51.53125 C36.7077901,54.484025 34.3959169,56.9114315 31.4707636,57.1334459 L31.2502537,57.1459356 L31.0329282,57.15 L8.93348066,57.15 C5.87733531,57.15 3.3773504,54.7457569 3.2627249,51.7464722 L3.25861878,51.53125 L3.258,30.008 L3.18246462,29.9796854 C2.02907894,29.5032658 1.21677158,28.4427704 1.07186795,27.2092943 L1.05395296,27.0021837 L1.04867403,26.8123906 C1.04867403,25.896246 1.40966204,25.033946 2.06431098,24.3858315 C2.51818296,23.9365692 3.07853935,23.6257313 3.69238504,23.4786697 L3.765,23.463 L2.65532154,19.1158189 L0.941241241,12.7837068 L0.909220834,12.615278 L0.899811146,12.503528 L0.901795213,12.3837284 L0.922302034,12.2197076 L2.90351646,2.30815033 C2.99715873,1.83959311 3.35318969,1.46578271 3.8193321,1.34592837 C4.23856438,1.23813554 4.68064711,1.35266409 4.9921161,1.64170008 L5.09089104,1.74444306 L11.6833313,9.43695468 L11.7600051,9.54682289 L11.8325205,9.68190239 L11.8627231,9.75176051 L11.8848266,9.81317113 L11.9035719,9.87508161 L13.6228644,16.2256895 L15.413,23.12 L15.4133149,2.09375 C15.4133149,1.49238955 15.8437477,0.991145412 16.4154606,0.875230634 L16.5400276,0.856393592 L16.6682873,0.849975991 L25.5080663,0.849975991 Z M34.197,30.243 L5.768,30.243 L5.76856354,51.53125 C5.76856354,53.1978234 7.09192357,54.5652111 8.75413482,54.657532 L8.93348066,54.6625 L31.0329282,54.6625 C32.7180873,54.6625 34.0995563,53.3525803 34.1928263,51.7086221 L34.1978453,51.53125 L34.197,30.243 Z M35.4529282,25.86875 L4.51359116,25.86875 C4.25826373,25.86875 4.01884749,25.9670421 3.83798125,26.1460714 C3.65758972,26.3245364 3.55861878,26.5607937 3.55861878,26.8125 C3.55861878,27.2952702 3.92782558,27.6952108 4.40233887,27.7498821 L4.51359116,27.75625 L35.4528177,27.75625 C35.7081451,27.75625 35.9475614,27.6579579 36.1284276,27.4789286 C36.3088191,27.3004636 36.4077901,27.0642063 36.4077901,26.8125 C36.4077901,26.2926483 35.9795423,25.86875 35.4529282,25.86875 Z M10.096,12.8 L10.0128919,12.8716703 C9.19794381,13.5282289 8.25095174,14.0078111 7.22032322,14.2810365 C6.57753169,14.4514761 5.92150436,14.5371719 5.26629834,14.5371719 C4.88419508,14.5371719 4.5024797,14.5076012 4.12389309,14.4489378 L3.983,14.423 L5.08588847,18.4955891 L6.333,23.381 L12.889,23.381 L11.1939975,16.8527478 L10.096,12.8 Z M24.253,3.337 L17.923,3.337 L17.923,23.381 L24.253,23.381 L24.253,21.165 L22.1931492,21.165625 C21.5437396,21.165625 21.0089699,20.6764962 20.9446605,20.0490949 L20.9381768,19.921875 C20.9381768,19.2775968 21.4323584,18.7482006 22.0649012,18.6845428 L22.1931492,18.678125 L24.253,18.678 L24.253,16.79 L22.1931492,16.790625 C21.5437396,16.790625 21.0089699,16.3014962 20.9446605,15.6740949 L20.9381768,15.546875 C20.9381768,14.9025968 21.4323584,14.3732006 22.0649012,14.3095428 L22.1931492,14.303125 L24.253,14.303 L24.253,12.415 L22.1931492,12.415625 C21.5437396,12.415625 21.0089699,11.9264962 20.9446605,11.2990949 L20.9381768,11.171875 C20.9381768,10.5275968 21.4323584,9.99820057 22.0649012,9.93454276 L22.1931492,9.928125 L24.253,9.928 L24.253,8.04 L22.1931492,8.040625 C21.5437396,8.040625 21.0089699,7.55149619 20.9446605,6.92409493 L20.9381768,6.796875 C20.9381768,6.15259677 21.4323584,5.62320057 22.0649012,5.55954276 L22.1931492,5.553125 L24.253,5.553 L24.253,3.337 Z M32.2245583,15.0501676 L32.114,14.969 L32.0184658,15.1161008 C30.7950924,17.0090449 29.3891681,19.7024135 27.8739406,23.0571575 L27.728,23.381 L33.695,23.381 L33.8137942,22.9149517 C34.3853616,20.6001633 34.8146256,18.3087387 35.0388968,16.379132 L35.073,16.057 L34.8904473,16.04358 C34.5487852,16.0073887 34.2105169,15.9403636 33.8794976,15.843106 L33.5510374,15.735793 C33.0782724,15.5654722 32.6330172,15.334987 32.2245583,15.0501676 Z M37.8982813,5.01522069 L37.735,4.247 L37.6462505,4.31724731 C34.9840807,6.41432165 32.8587868,8.45583592 32.5168345,9.3852996 C32.1544229,10.3725659 32.3142264,11.4671983 32.9449096,12.3144922 C33.3142621,12.8113216 33.8203509,13.186034 34.4085971,13.3980541 C34.9766791,13.6025598 35.5852065,13.6425106 36.1690874,13.5136132 C37.2361461,13.2804757 38.093628,12.5379518 38.4659649,11.5257563 C38.7841787,10.6607978 38.5171916,8.05238548 37.8982813,5.01522069 Z M4.861,5.317 L3.574,11.749 L3.70673089,11.7970521 C4.54480523,12.0738935 5.43808961,12.1235006 6.31057238,11.9400669 L6.57161716,11.8780398 C7.52959071,11.6240753 8.37368473,11.1062552 9.01910868,10.3822137 L9.11,10.274 L4.861,5.317 Z"/>
    </g>
  </g>
</svg>
