<?xml version="1.0" encoding="UTF-8"?>
<svg id="tourismSVG" alt="תיירות ונופש" xmlns="http://www.w3.org/2000/svg" width="130" height="100" viewBox="0 0 130 100">
  <title>תיירות ונופש</title>
  <g fill="none" fill-rule="evenodd" transform="translate(24 13)">
    <path class="tourism1" fill="#E5E5E5" d="M2.20472441,65.3937008 L80.2952756,65.3937008 C81.5129113,65.3937008 82.5,66.3807895 82.5,67.5984252 C82.5,68.8160609 81.5129113,69.8031496 80.2952756,69.8031496 L2.20472441,69.8031496 C0.987088741,69.8031496 1.49117362e-16,68.8160609 0,67.5984252 C-1.49117362e-16,66.3807895 0.987088741,65.3937008 2.20472441,65.3937008 Z" transform="matrix(-1 0 0 1 82.5 0)"/>
    <path class="tourism1" fill="#E5E5E5" fill-rule="nonzero" d="M43.5,25.5 C38.5,23.8333333 34,23.8333333 30,25.5 C26,27.1666667 27.3333333,21 34,7 L39,7 L44.5,21 L43.5,25.5 Z"/>
    <polygon class="tourism1" fill="#E5E5E5" fill-rule="nonzero" points="74.5 38.5 56.5 54 17.5 54 17.5 50 20.5 48.5 54 48.5 70 35 73 35"/>
    <path class="tourism" fill="#7F7F7F" fill-rule="nonzero" d="M51.5859375,27.8586279 C51.5859375,28.6280049 52.2067107,29.2515593 52.9726562,29.2515593 C53.7386018,29.2515593 54.359375,28.6280049 54.359375,27.8586279 C54.359375,27.7122613 54.4032516,27.5642623 54.4947967,27.4026604 C55.1329041,26.2730802 57.7324601,25.0727651 61.2929688,25.0727651 C65.5257111,25.0727651 68.2265625,26.7230623 68.2265625,27.8586279 C68.2265625,28.6280049 68.8473357,29.2515593 69.6132812,29.2515593 C70.3792268,29.2515593 71,28.6280049 71,27.8586279 C71,15.1600995 59.0233001,6.16807432 46.0390625,5.60274002 L46.0390625,1.39293139 C46.0390625,0.623554374 45.4182893,0 44.6523438,0 C43.8863982,0 43.265625,0.623554374 43.265625,1.39293139 L43.265625,5.60274002 C30.193634,6.17188316 18.3046875,15.2335547 18.3046875,27.8586279 C18.3046875,28.6280049 18.9254607,29.2515593 19.6914063,29.2515593 C20.4573518,29.2515593 21.078125,28.6280049 21.078125,27.8586279 C21.078125,26.7230623 23.7789764,25.0727651 28.0117188,25.0727651 C32.2444611,25.0727651 34.9453125,26.7230623 34.9453125,27.8586279 C34.9453125,28.6280049 35.5660857,29.2515593 36.3320312,29.2515593 C37.0979768,29.2515593 37.71875,28.6280049 37.71875,27.8586279 C37.71875,27.7122613 37.7626266,27.5642623 37.8541717,27.4026604 C38.4061508,26.4259762 40.4261018,25.3965128 43.265625,25.1358823 L43.265625,47.3596674 L28.0063019,47.3596674 C27.5285339,47.3596674 27.069725,47.1844628 26.7127532,46.8661561 L13.4002532,34.981622 C11.9929504,33.724719 10.0515442,33.4260005 8.33331299,34.2008186 C7.40648648,34.618698 6.67087558,35.2950315 6.18823242,36.1248051 C5.05448154,35.4800302 3.69051358,35.407663 2.45655063,35.9637474 C-0.367805516,37.2369738 -0.804946969,40.9320508 1.39592739,42.8990221 L20.0218353,59.528773 C20.6583175,60.0973719 21.3939286,60.5381042 22.1875,60.838455 L22.1875,65.4683195 C22.1875,66.2371525 22.8082732,66.8612509 23.5742188,66.8612509 L34.6679688,66.8612509 C35.4333725,66.8612509 36.0546875,66.2371525 36.0546875,65.4683195 L36.0546875,61.2895254 L51.5859375,61.2895254 L51.5859375,65.4683195 C51.5859375,66.2371525 52.2067107,66.8612509 52.9726562,66.8612509 L64.0664062,66.8612509 C64.83181,66.8612509 65.453125,66.2371525 65.453125,65.4683195 L65.453125,61.2895254 L66.8398438,61.2895254 C69.1338883,61.2895254 71,59.4145092 71,57.1101871 C71,54.8064092 69.1338883,52.9313929 66.8398438,52.9313929 L65.453125,52.9313929 L65.453125,52.099987 C65.453125,49.4860642 63.3362122,47.3596674 60.7339478,47.3596674 L46.0390625,47.3596674 L46.0390625,25.1353382 C49.4652328,25.4438506 51.5859375,26.8525614 51.5859375,27.8586279 Z M33.28125,64.0748441 L24.9609375,64.0748441 L24.9609375,61.2889813 L33.28125,61.2889813 L33.28125,64.0748441 Z M62.6796875,64.0748441 L54.359375,64.0748441 L54.359375,61.2889813 L62.6796875,61.2889813 L62.6796875,64.0748441 Z M62.6796875,52.099987 L62.6796875,52.9313929 L32.3671875,52.9313929 C31.601242,52.9313929 30.9804687,53.5554915 30.9804687,54.3243243 C30.9804687,55.0937013 31.601242,55.7172557 32.3671875,55.7172557 L66.8398437,55.7172557 C67.6047058,55.7172557 68.2265625,56.3424425 68.2265625,57.1101871 C68.2265625,57.8784758 67.6047058,58.5031185 66.8398437,58.5031185 L24.6310501,58.5031185 C23.5796356,58.5031185 22.602974,58.1064596 21.8646545,57.4469936 L3.23874668,40.8172427 C2.51938633,40.1741001 2.62880703,38.9389618 3.59192661,38.5053031 C3.78422539,38.418789 4.45808418,38.1793789 5.08048252,38.7354633 L22.9209441,54.6638514 C23.6847229,55.3434495 24.6657181,55.7172557 25.6830063,55.7172557 L38.2734375,55.7172557 C39.0388412,55.7172557 39.6601562,55.0937013 39.6601562,54.3243243 C39.6601562,53.5554915 39.0388412,52.9313929 38.2734375,52.9313929 L25.6830063,52.9313929 C25.3439103,52.9313929 25.0156479,52.8062467 24.7615967,52.5798953 L8.39614868,37.9682627 C8.54890449,37.4268694 8.9264603,36.9872255 9.46923062,36.7423743 C10.1880493,36.4175383 10.9691619,36.5383316 11.5579757,37.0639456 L24.8704757,48.9484797 C25.7350082,49.7205773 26.8487167,50.1455301 28.0063019,50.1455301 L60.7339478,50.1455301 C61.8070297,50.1455301 62.6796875,51.0220976 62.6796875,52.099987 Z M67.654541,23.5840696 C65.9747696,22.768443 63.7711869,22.2869023 61.2929688,22.2869023 C58.5276566,22.2869023 56.0494385,22.8919569 54.2889558,23.9241408 C54.0267791,19.0456163 52.860527,12.8198658 50.0128784,8.86633482 C58.7789994,10.559073 65.6800919,16.309812 67.654541,23.5840696 Z M28.0117187,22.2869023 C25.5335006,22.2869023 23.3299179,22.768443 21.6501465,23.5840696 C23.6245956,16.309812 30.5251465,10.559073 39.2918091,8.86633482 C36.4436188,12.8204099 35.2773666,19.0477927 35.0157317,23.9268614 C33.2758332,22.9044715 30.8192826,22.2869023 28.0117187,22.2869023 Z M37.7945862,23.839259 C38.3324813,14.5942211 41.649231,8.35758836 44.6523437,8.35758836 C47.6554565,8.35758836 50.9727478,14.5958533 51.5101013,23.8430678 C49.7799529,22.8707364 47.3824463,22.2869023 44.6523437,22.2869023 C41.9634094,22.2869023 39.544777,22.8582217 37.7945862,23.839259 Z" transform="matrix(-1 0 0 1 81.3 0)"/>
  </g>
</svg>
