<?xml version="1.0" encoding="UTF-8"?>
<svg id="yad2SVG" alt="יד שניה" xmlns="http://www.w3.org/2000/svg" width="130" height="100" viewBox="0 0 130 100">
  <title>יד שניה</title>
  <g fill="none" fill-rule="evenodd" transform="translate(4 18)">
    <path class="yad2_1" fill="#E5E5E5" d="M2.20472441,68.691758 L119.295276,68.691758 C120.512911,68.691758 121.5,69.6788467 121.5,70.8964824 C121.5,72.1141181 120.512911,73.1012068 119.295276,73.1012068 L2.20472441,73.1012068 C0.987088741,73.1012068 1.49117362e-16,72.1141181 0,70.8964824 C-1.49117362e-16,69.6788467 0.987088741,68.691758 2.20472441,68.691758 Z"/>
    <g transform="translate(12.3)">
      <polygon class="yad2_1" fill="#E5E5E5" points="80.542 37 18.118 37 18.118 30.538 24.554 27.854 35.621 27.854 45.521 30.538 49.33 30.538 56.159 27.854 66.11 27.854 77.36 30.538 80.542 30.538"/>
      <path class="yad2" fill="#7F7F7F" fill-rule="nonzero" d="M98.2317047,23.3628537 C97.5268292,18.423274 93.2648387,14.6927629 88.3205801,14.685716 C88.0580451,14.6860923 87.8200834,14.6955271 87.5800618,14.7147803 L87.2560746,14.7407686 L87.2560746,8.10293937 C87.2560746,3.63417966 83.6773483,-4.26325641e-14 79.2812945,-4.26325641e-14 L55.5103119,-4.26325641e-14 C53.125098,-4.26325641e-14 50.9074714,1.07611866 49.3992862,2.90286987 L49.1679435,3.18307776 L48.9366009,2.90286987 C47.4284157,1.07611866 45.2107891,-4.26325641e-14 42.8255752,-4.26325641e-14 L19.0576844,-4.26325641e-14 C14.6616307,-4.26325641e-14 11.0829044,3.63417966 11.0829044,8.10293937 L11.0829044,14.740883 L10.7589922,14.7149825 C10.5201597,14.6958851 10.2814155,14.6860941 10.0441824,14.685716 C5.07788229,14.6927589 0.812660459,18.4197332 0.107470433,23.3628329 C-0.267791295,25.9932002 0.346930414,28.6192575 1.83810753,30.7586962 C2.98654156,32.406862 4.57317306,33.6627225 6.40950122,34.3834009 L6.59990252,58.7411479 C6.59990252,59.6601895 7.33184254,60.4035345 8.2323142,60.4035345 L11.0487007,60.4035345 L11.0487007,67.5818957 C11.0487007,68.5009373 11.7806407,69.2442823 12.6811124,69.2442823 L18.0451007,69.2442823 C18.698506,69.2442823 19.289564,68.8473924 19.5466165,68.2344225 L22.8280684,60.4035345 L75.5109105,60.4035345 L78.7923687,68.2344376 C79.0492019,68.8474407 79.6403038,69.2442823 80.2938782,69.2442823 L85.6578666,69.2442823 C86.5583382,69.2442823 87.2902782,68.5009373 87.2902782,67.5818957 L87.2902782,60.4035345 L90.1066647,60.4035345 C91.0071364,60.4035345 91.7390764,59.6601895 91.7390764,58.7411479 L91.7390764,34.4581251 C93.7659465,33.6626673 95.3527077,32.4067424 96.5009046,30.7586487 C97.9923123,28.6191484 98.6071345,25.9930822 98.2317047,23.3628537 Z M55.5103119,3.32457694 L79.2812945,3.32457694 C81.8797372,3.32457694 83.9912512,5.46877912 83.9912512,8.10274314 L83.9912512,15.7610495 L83.8377213,15.8469408 C83.7594892,15.89083 83.7594892,15.89083 83.74485,15.8991588 C80.8359564,17.5617545 79.0266923,20.7596966 79.0266923,24.245139 L79.0266923,27.7754777 L78.6246035,27.6299639 C75.2768575,26.4184327 70.9977882,25.7575014 66.4309501,25.7575014 C60.4430671,25.7575014 54.7592459,26.9356783 51.251943,28.9928695 L50.8001571,29.2578623 L50.8001571,8.10296285 C50.8001571,5.46882068 52.9116401,3.32457694 55.5103119,3.32457694 Z M66.4307568,29.0828633 C71.2579192,29.0828633 75.7923688,29.8934639 78.8519065,31.3013372 L79.0264991,31.3816776 L79.0264991,34.5132779 L50.7975051,34.5132779 L50.8001736,34.2106328 C50.8216404,31.7760331 57.7890192,29.0828633 66.4307568,29.0828633 Z M19.3124798,44.8613349 L19.3124798,37.8380511 L79.0266923,37.8380511 L79.0266923,44.8613349 L19.3124798,44.8613349 Z M19.4871312,31.2999365 C22.546579,29.8929042 27.0796104,29.0828633 31.904937,29.0828633 C40.54683,29.0828633 47.5142465,31.7760226 47.5357134,34.2106328 L47.538382,34.5132779 L19.3124798,34.5132779 L19.3124798,31.3802582 L19.4871312,31.2999365 Z M14.3475345,8.10293937 C14.3475345,5.4690411 16.4591771,3.32477318 19.0574912,3.32477318 L42.8253819,3.32477318 C45.4238566,3.32477318 47.5353386,5.46900774 47.5353386,8.10313561 L47.5353386,29.2582519 L47.0835576,28.993262 C43.5762169,26.9360486 37.8925546,25.7578939 31.9045505,25.7578939 C27.339527,25.7578939 23.0616375,26.4184658 19.7141437,27.6293891 L19.3120934,27.7748269 L19.3120934,24.2455315 C19.3120934,23.5968684 19.2493254,22.95305 19.1257059,22.3226758 C19.1099993,22.2438888 19.1099993,22.2438888 19.0937129,22.1661398 C19.0500258,21.9605518 18.9993329,21.7553016 18.9418475,21.5507898 C18.9201993,21.4745152 18.9201993,21.4745152 18.8979289,21.3988731 C18.8504637,21.2397138 18.7985938,21.0809284 18.7424157,20.9226493 C18.7232262,20.8684397 18.7113104,20.8359225 18.6787824,20.7487533 C18.6534898,20.6816224 18.6281495,20.6163137 18.6024805,20.5521771 C18.5826953,20.5026645 18.570966,20.4741969 18.5379579,20.3954396 C18.5096126,20.328525 18.5096126,20.328525 18.4801793,20.2612014 C18.432585,20.1527849 18.3829076,20.044988 18.3310645,19.9375874 C18.2895404,19.8515416 18.2467094,19.7662601 18.2020813,19.6808004 C18.1736336,19.6263042 18.1736336,19.6263042 18.1441393,19.5712651 C18.0252387,19.3500267 17.8985169,19.1346751 17.7642073,18.9257285 C16.9544161,17.6670731 15.8724163,16.6304548 14.5951988,15.9003782 C14.5108489,15.8527626 14.5108489,15.8527626 14.6475345,15.5855194 L14.5036032,15.8487375 L14.3475345,15.763397 L14.3475345,8.10293937 Z M14.3133308,65.9197053 L14.3133308,60.4037307 L19.2781146,60.4037307 L16.9669613,65.9197053 L14.3133308,65.9197053 Z M79.0606548,60.4037307 L84.0254549,60.4037307 L84.0254549,65.9197053 L81.3720248,65.9197053 L79.0606548,60.4037307 Z M89.759603,31.5849588 C89.0100361,31.7510194 88.4742531,32.426608 88.4742531,33.2093209 L88.4742531,57.0791538 L9.86453264,57.0791538 L9.86453264,33.2095172 C9.86453264,32.4268378 9.32878779,31.7511879 8.57918273,31.585155 C5.07231239,30.8077443 2.81933635,27.4755797 3.33811589,23.8414797 C3.81185144,20.5219387 6.68315636,18.0156081 10.0192494,18.010686 C10.7507391,18.0119077 11.4404333,18.1342834 12.1020383,18.380039 C12.3574223,18.4778711 12.5714779,18.5732624 12.7868296,18.6851103 C12.925788,18.7599408 12.9557004,18.7762713 12.9963581,18.7992691 C14.8802793,19.8760196 16.0476565,21.9635677 16.0476565,24.2459239 L16.0476565,46.5241139 C16.0476565,47.4431555 16.7795965,48.1865005 17.6800682,48.1865005 L80.659104,48.1865005 C81.5595757,48.1865005 82.2915157,47.4431555 82.2915157,46.5241139 L82.2915157,24.2455315 C82.2915157,23.9624573 82.3095084,23.6805063 82.3455951,23.3983744 C82.3664753,23.2485205 82.3778842,23.1744191 82.3926352,23.0899278 C82.4111241,22.9900314 82.4111241,22.9900314 82.4212251,22.9387349 C82.4378176,22.8558896 82.4564994,22.7717997 82.4779632,22.6831371 C82.508354,22.562736 82.508354,22.562736 82.5156831,22.5354711 C82.5366471,22.4573419 82.5589515,22.3799703 82.5829501,22.3022847 C82.9916222,20.9991742 83.77438,19.8909559 84.8357177,19.1250696 C85.0600724,18.9697876 85.1949675,18.8833768 85.3473431,18.7963243 C85.679817,18.614493 85.9289543,18.4975212 86.1958294,18.396144 C86.8901574,18.1374037 87.5779713,18.0117277 88.2956438,18.010686 C91.6518944,18.0154047 94.5265714,20.5178456 95.000861,23.8412689 C95.5196453,27.4751978 93.2664623,30.8075505 89.759603,31.5849588 Z"/>
    </g>
  </g>
</svg>
